<mxfile host="app.diagrams.net" modified="2022-03-03T06:50:23.904Z" agent="5.0 (Windows NT 10.0; Win64; x64) AppleWebKit/537.36 (KHTML, like Gecko) Chrome/97.0.4692.99 Safari/537.36" etag="ELrpLEzFJcDCQp7-hRdU" version="16.5.6" type="github" pages="3">
  <diagram id="9er5RW46-mA64O8XQp0p" name="Page-1">
    <mxGraphModel dx="1422" dy="762" grid="0" gridSize="10" guides="1" tooltips="1" connect="1" arrows="1" fold="1" page="1" pageScale="1" pageWidth="2339" pageHeight="3300" math="0" shadow="0">
      <root>
        <mxCell id="0" />
        <mxCell id="1" parent="0" />
        <mxCell id="OfepuMnayNndNPJ2Ai6v-22" value="" style="group" parent="1" vertex="1" connectable="0">
          <mxGeometry x="99" y="40" width="630" height="240" as="geometry" />
        </mxCell>
        <mxCell id="OfepuMnayNndNPJ2Ai6v-1" value="saas线索生产方式" style="rounded=0;whiteSpace=wrap;html=1;" parent="OfepuMnayNndNPJ2Ai6v-22" vertex="1">
          <mxGeometry y="130" width="120" height="60" as="geometry" />
        </mxCell>
        <mxCell id="OfepuMnayNndNPJ2Ai6v-2" value="平台下发" style="rounded=0;whiteSpace=wrap;html=1;" parent="OfepuMnayNndNPJ2Ai6v-22" vertex="1">
          <mxGeometry x="170" y="80" width="120" height="60" as="geometry" />
        </mxCell>
        <mxCell id="OfepuMnayNndNPJ2Ai6v-3" value="商家自建" style="rounded=0;whiteSpace=wrap;html=1;" parent="OfepuMnayNndNPJ2Ai6v-22" vertex="1">
          <mxGeometry x="170" y="180" width="120" height="60" as="geometry" />
        </mxCell>
        <mxCell id="OfepuMnayNndNPJ2Ai6v-5" value="" style="strokeWidth=1;html=1;shape=mxgraph.flowchart.annotation_2;align=left;labelPosition=right;pointerEvents=1;" parent="OfepuMnayNndNPJ2Ai6v-22" vertex="1">
          <mxGeometry x="120" y="110" width="50" height="100" as="geometry" />
        </mxCell>
        <mxCell id="OfepuMnayNndNPJ2Ai6v-6" value="填写需求" style="rounded=0;whiteSpace=wrap;html=1;" parent="OfepuMnayNndNPJ2Ai6v-22" vertex="1">
          <mxGeometry x="340" y="30" width="120" height="60" as="geometry" />
        </mxCell>
        <mxCell id="OfepuMnayNndNPJ2Ai6v-7" value="保姆列表页&lt;br&gt;(预约订单)" style="rounded=0;whiteSpace=wrap;html=1;" parent="OfepuMnayNndNPJ2Ai6v-22" vertex="1">
          <mxGeometry x="340" y="120" width="120" height="60" as="geometry" />
        </mxCell>
        <mxCell id="OfepuMnayNndNPJ2Ai6v-8" value="" style="strokeWidth=1;html=1;shape=mxgraph.flowchart.annotation_2;align=left;labelPosition=right;pointerEvents=1;" parent="OfepuMnayNndNPJ2Ai6v-22" vertex="1">
          <mxGeometry x="290" y="60" width="50" height="100" as="geometry" />
        </mxCell>
        <mxCell id="OfepuMnayNndNPJ2Ai6v-9" value="用户填写需求" style="rounded=0;whiteSpace=wrap;html=1;" parent="OfepuMnayNndNPJ2Ai6v-22" vertex="1">
          <mxGeometry x="510" width="120" height="60" as="geometry" />
        </mxCell>
        <mxCell id="OfepuMnayNndNPJ2Ai6v-10" value="电话下单" style="rounded=0;whiteSpace=wrap;html=1;" parent="OfepuMnayNndNPJ2Ai6v-22" vertex="1">
          <mxGeometry x="510" y="80" width="120" height="60" as="geometry" />
        </mxCell>
        <mxCell id="OfepuMnayNndNPJ2Ai6v-11" value="" style="strokeWidth=1;html=1;shape=mxgraph.flowchart.annotation_2;align=left;labelPosition=right;pointerEvents=1;" parent="OfepuMnayNndNPJ2Ai6v-22" vertex="1">
          <mxGeometry x="460" y="20" width="50" height="100" as="geometry" />
        </mxCell>
        <mxCell id="OfepuMnayNndNPJ2Ai6v-23" value="家服线索生成方式：" style="text;html=1;align=center;verticalAlign=middle;resizable=0;points=[];autosize=1;strokeColor=none;" parent="1" vertex="1">
          <mxGeometry x="30" y="40" width="120" height="20" as="geometry" />
        </mxCell>
        <mxCell id="jWoE7ujcPuWihpP76wZ1-42" value="" style="group" parent="1" vertex="1" connectable="0">
          <mxGeometry x="953" y="9" width="487" height="1030" as="geometry" />
        </mxCell>
        <mxCell id="OfepuMnayNndNPJ2Ai6v-24" value="劳动者培训业务流程：" style="text;html=1;align=center;verticalAlign=middle;resizable=0;points=[];autosize=1;strokeColor=none;" parent="jWoE7ujcPuWihpP76wZ1-42" vertex="1">
          <mxGeometry y="18" width="140" height="20" as="geometry" />
        </mxCell>
        <mxCell id="jWoE7ujcPuWihpP76wZ1-3" value="通过接口接入第三方商家培训线索数据" style="rounded=0;whiteSpace=wrap;html=1;" parent="jWoE7ujcPuWihpP76wZ1-42" vertex="1">
          <mxGeometry x="177" y="10" width="120" height="60" as="geometry" />
        </mxCell>
        <mxCell id="jWoE7ujcPuWihpP76wZ1-5" value="平台根据策略下发给培训商家" style="whiteSpace=wrap;html=1;rounded=0;" parent="jWoE7ujcPuWihpP76wZ1-42" vertex="1">
          <mxGeometry x="177" y="110" width="120" height="60" as="geometry" />
        </mxCell>
        <mxCell id="jWoE7ujcPuWihpP76wZ1-1" value="" style="edgeStyle=orthogonalEdgeStyle;rounded=0;orthogonalLoop=1;jettySize=auto;html=1;" parent="jWoE7ujcPuWihpP76wZ1-42" source="jWoE7ujcPuWihpP76wZ1-3" target="jWoE7ujcPuWihpP76wZ1-5" edge="1">
          <mxGeometry relative="1" as="geometry" />
        </mxCell>
        <mxCell id="jWoE7ujcPuWihpP76wZ1-8" value="商家/门店跟进线索" style="whiteSpace=wrap;html=1;rounded=0;" parent="jWoE7ujcPuWihpP76wZ1-42" vertex="1">
          <mxGeometry x="177" y="220" width="120" height="60" as="geometry" />
        </mxCell>
        <mxCell id="jWoE7ujcPuWihpP76wZ1-4" value="" style="edgeStyle=orthogonalEdgeStyle;rounded=0;orthogonalLoop=1;jettySize=auto;html=1;" parent="jWoE7ujcPuWihpP76wZ1-42" source="jWoE7ujcPuWihpP76wZ1-5" target="jWoE7ujcPuWihpP76wZ1-8" edge="1">
          <mxGeometry relative="1" as="geometry" />
        </mxCell>
        <mxCell id="jWoE7ujcPuWihpP76wZ1-9" value="" style="edgeStyle=orthogonalEdgeStyle;rounded=0;orthogonalLoop=1;jettySize=auto;html=1;" parent="jWoE7ujcPuWihpP76wZ1-42" source="jWoE7ujcPuWihpP76wZ1-11" edge="1">
          <mxGeometry relative="1" as="geometry">
            <mxPoint x="237" y="420" as="targetPoint" />
          </mxGeometry>
        </mxCell>
        <mxCell id="jWoE7ujcPuWihpP76wZ1-11" value="分配经纪人联系培训对象" style="whiteSpace=wrap;html=1;rounded=0;" parent="jWoE7ujcPuWihpP76wZ1-42" vertex="1">
          <mxGeometry x="177" y="330" width="120" height="60" as="geometry" />
        </mxCell>
        <mxCell id="jWoE7ujcPuWihpP76wZ1-6" value="" style="edgeStyle=orthogonalEdgeStyle;rounded=0;orthogonalLoop=1;jettySize=auto;html=1;" parent="jWoE7ujcPuWihpP76wZ1-42" source="jWoE7ujcPuWihpP76wZ1-8" target="jWoE7ujcPuWihpP76wZ1-11" edge="1">
          <mxGeometry relative="1" as="geometry" />
        </mxCell>
        <mxCell id="jWoE7ujcPuWihpP76wZ1-14" value="是否签培训单" style="rhombus;whiteSpace=wrap;html=1;" parent="jWoE7ujcPuWihpP76wZ1-42" vertex="1">
          <mxGeometry x="197" y="420" width="80" height="80" as="geometry" />
        </mxCell>
        <mxCell id="jWoE7ujcPuWihpP76wZ1-15" value="培训线索流失，（后期会直接转化简历）" style="whiteSpace=wrap;html=1;" parent="jWoE7ujcPuWihpP76wZ1-42" vertex="1">
          <mxGeometry x="17" y="430" width="120" height="60" as="geometry" />
        </mxCell>
        <mxCell id="jWoE7ujcPuWihpP76wZ1-12" value="" style="edgeStyle=orthogonalEdgeStyle;rounded=0;orthogonalLoop=1;jettySize=auto;html=1;" parent="jWoE7ujcPuWihpP76wZ1-42" source="jWoE7ujcPuWihpP76wZ1-14" target="jWoE7ujcPuWihpP76wZ1-15" edge="1">
          <mxGeometry relative="1" as="geometry" />
        </mxCell>
        <mxCell id="jWoE7ujcPuWihpP76wZ1-16" value="N" style="text;html=1;align=center;verticalAlign=middle;resizable=0;points=[];autosize=1;strokeColor=none;" parent="jWoE7ujcPuWihpP76wZ1-42" vertex="1">
          <mxGeometry x="167" y="440" width="20" height="20" as="geometry" />
        </mxCell>
        <mxCell id="jWoE7ujcPuWihpP76wZ1-18" value="生成培训订单" style="whiteSpace=wrap;html=1;" parent="jWoE7ujcPuWihpP76wZ1-42" vertex="1">
          <mxGeometry x="177" y="540" width="120" height="60" as="geometry" />
        </mxCell>
        <mxCell id="jWoE7ujcPuWihpP76wZ1-13" value="" style="edgeStyle=orthogonalEdgeStyle;rounded=0;orthogonalLoop=1;jettySize=auto;html=1;" parent="jWoE7ujcPuWihpP76wZ1-42" source="jWoE7ujcPuWihpP76wZ1-14" target="jWoE7ujcPuWihpP76wZ1-18" edge="1">
          <mxGeometry relative="1" as="geometry" />
        </mxCell>
        <mxCell id="jWoE7ujcPuWihpP76wZ1-19" value="Y&lt;br&gt;" style="text;html=1;align=center;verticalAlign=middle;resizable=0;points=[];autosize=1;strokeColor=none;" parent="jWoE7ujcPuWihpP76wZ1-42" vertex="1">
          <mxGeometry x="237" y="500" width="20" height="20" as="geometry" />
        </mxCell>
        <mxCell id="jWoE7ujcPuWihpP76wZ1-20" value="" style="edgeStyle=orthogonalEdgeStyle;rounded=0;orthogonalLoop=1;jettySize=auto;html=1;" parent="jWoE7ujcPuWihpP76wZ1-42" edge="1">
          <mxGeometry relative="1" as="geometry">
            <mxPoint x="237" y="600" as="sourcePoint" />
            <mxPoint x="237" y="630" as="targetPoint" />
          </mxGeometry>
        </mxCell>
        <mxCell id="jWoE7ujcPuWihpP76wZ1-23" value="是否培训完成" style="rhombus;whiteSpace=wrap;html=1;" parent="jWoE7ujcPuWihpP76wZ1-42" vertex="1">
          <mxGeometry x="197" y="630" width="80" height="80" as="geometry" />
        </mxCell>
        <mxCell id="jWoE7ujcPuWihpP76wZ1-24" value="培训订单流失" style="whiteSpace=wrap;html=1;" parent="jWoE7ujcPuWihpP76wZ1-42" vertex="1">
          <mxGeometry x="17" y="640" width="120" height="60" as="geometry" />
        </mxCell>
        <mxCell id="jWoE7ujcPuWihpP76wZ1-21" value="" style="edgeStyle=orthogonalEdgeStyle;rounded=0;orthogonalLoop=1;jettySize=auto;html=1;" parent="jWoE7ujcPuWihpP76wZ1-42" source="jWoE7ujcPuWihpP76wZ1-23" target="jWoE7ujcPuWihpP76wZ1-24" edge="1">
          <mxGeometry relative="1" as="geometry" />
        </mxCell>
        <mxCell id="jWoE7ujcPuWihpP76wZ1-25" value="N" style="text;html=1;align=center;verticalAlign=middle;resizable=0;points=[];autosize=1;strokeColor=none;" parent="jWoE7ujcPuWihpP76wZ1-42" vertex="1">
          <mxGeometry x="167" y="650" width="20" height="20" as="geometry" />
        </mxCell>
        <mxCell id="jWoE7ujcPuWihpP76wZ1-27" value="培训完成" style="whiteSpace=wrap;html=1;" parent="jWoE7ujcPuWihpP76wZ1-42" vertex="1">
          <mxGeometry x="177" y="750" width="120" height="60" as="geometry" />
        </mxCell>
        <mxCell id="jWoE7ujcPuWihpP76wZ1-22" value="" style="edgeStyle=orthogonalEdgeStyle;rounded=0;orthogonalLoop=1;jettySize=auto;html=1;" parent="jWoE7ujcPuWihpP76wZ1-42" source="jWoE7ujcPuWihpP76wZ1-23" target="jWoE7ujcPuWihpP76wZ1-27" edge="1">
          <mxGeometry relative="1" as="geometry" />
        </mxCell>
        <mxCell id="jWoE7ujcPuWihpP76wZ1-28" value="Y&lt;br&gt;" style="text;html=1;align=center;verticalAlign=middle;resizable=0;points=[];autosize=1;strokeColor=none;" parent="jWoE7ujcPuWihpP76wZ1-42" vertex="1">
          <mxGeometry x="237" y="710" width="20" height="20" as="geometry" />
        </mxCell>
        <mxCell id="jWoE7ujcPuWihpP76wZ1-31" value="是否录入过简历" style="rhombus;whiteSpace=wrap;html=1;" parent="jWoE7ujcPuWihpP76wZ1-42" vertex="1">
          <mxGeometry x="197" y="840" width="80" height="80" as="geometry" />
        </mxCell>
        <mxCell id="jWoE7ujcPuWihpP76wZ1-33" value="录入公开简历" style="whiteSpace=wrap;html=1;" parent="jWoE7ujcPuWihpP76wZ1-42" vertex="1">
          <mxGeometry x="17" y="850" width="120" height="60" as="geometry" />
        </mxCell>
        <mxCell id="jWoE7ujcPuWihpP76wZ1-29" value="" style="edgeStyle=orthogonalEdgeStyle;rounded=0;orthogonalLoop=1;jettySize=auto;html=1;" parent="jWoE7ujcPuWihpP76wZ1-42" source="jWoE7ujcPuWihpP76wZ1-31" target="jWoE7ujcPuWihpP76wZ1-33" edge="1">
          <mxGeometry relative="1" as="geometry" />
        </mxCell>
        <mxCell id="jWoE7ujcPuWihpP76wZ1-34" value="N" style="text;html=1;align=center;verticalAlign=middle;resizable=0;points=[];autosize=1;strokeColor=none;" parent="jWoE7ujcPuWihpP76wZ1-42" vertex="1">
          <mxGeometry x="167" y="860" width="20" height="20" as="geometry" />
        </mxCell>
        <mxCell id="jWoE7ujcPuWihpP76wZ1-36" value="结束" style="whiteSpace=wrap;html=1;" parent="jWoE7ujcPuWihpP76wZ1-42" vertex="1">
          <mxGeometry x="177" y="960" width="120" height="60" as="geometry" />
        </mxCell>
        <mxCell id="jWoE7ujcPuWihpP76wZ1-30" value="" style="edgeStyle=orthogonalEdgeStyle;rounded=0;orthogonalLoop=1;jettySize=auto;html=1;" parent="jWoE7ujcPuWihpP76wZ1-42" source="jWoE7ujcPuWihpP76wZ1-31" target="jWoE7ujcPuWihpP76wZ1-36" edge="1">
          <mxGeometry relative="1" as="geometry" />
        </mxCell>
        <mxCell id="jWoE7ujcPuWihpP76wZ1-32" style="edgeStyle=orthogonalEdgeStyle;rounded=0;orthogonalLoop=1;jettySize=auto;html=1;exitX=0.5;exitY=1;exitDx=0;exitDy=0;entryX=0;entryY=0.5;entryDx=0;entryDy=0;" parent="jWoE7ujcPuWihpP76wZ1-42" source="jWoE7ujcPuWihpP76wZ1-33" target="jWoE7ujcPuWihpP76wZ1-36" edge="1">
          <mxGeometry relative="1" as="geometry" />
        </mxCell>
        <mxCell id="jWoE7ujcPuWihpP76wZ1-37" value="Y&lt;br&gt;" style="text;html=1;align=center;verticalAlign=middle;resizable=0;points=[];autosize=1;strokeColor=none;" parent="jWoE7ujcPuWihpP76wZ1-42" vertex="1">
          <mxGeometry x="237" y="920" width="20" height="20" as="geometry" />
        </mxCell>
        <mxCell id="jWoE7ujcPuWihpP76wZ1-26" value="" style="edgeStyle=orthogonalEdgeStyle;rounded=0;orthogonalLoop=1;jettySize=auto;html=1;" parent="jWoE7ujcPuWihpP76wZ1-42" source="jWoE7ujcPuWihpP76wZ1-27" edge="1">
          <mxGeometry relative="1" as="geometry">
            <mxPoint x="237" y="839" as="targetPoint" />
          </mxGeometry>
        </mxCell>
        <mxCell id="jWoE7ujcPuWihpP76wZ1-38" value="&lt;span style=&quot;color: rgb(51 , 51 , 51) ; font-family: &amp;#34;robotodraft&amp;#34; , &amp;#34;helvetica neue&amp;#34; , &amp;#34;helvetica&amp;#34; , &amp;#34;pingfang sc&amp;#34; , &amp;#34;nimbus sans l&amp;#34; , &amp;#34;arial&amp;#34; , &amp;#34;liberation sans&amp;#34; , &amp;#34;hiragino sans gb&amp;#34; , &amp;#34;sour    ce han sans cn normal&amp;#34; , &amp;#34;microsoft yahei&amp;#34; , &amp;#34;wenquanyi micro hei&amp;#34; , &amp;#34;wenquanyi zen hei&amp;#34; , &amp;#34;st heiti&amp;#34; , &amp;#34;simhei&amp;#34; , &amp;#34;wenquanyi zen hei sharp&amp;#34; , sans-serif ; font-size: 14px ; background-color: rgb(255 , 255 , 255)&quot;&gt;劳动者侧_求职线索收集表&lt;/span&gt;" style="shape=document;whiteSpace=wrap;html=1;boundedLbl=1;" parent="jWoE7ujcPuWihpP76wZ1-42" vertex="1">
          <mxGeometry x="367" width="120" height="80" as="geometry" />
        </mxCell>
        <mxCell id="jWoE7ujcPuWihpP76wZ1-2" style="edgeStyle=none;rounded=0;orthogonalLoop=1;jettySize=auto;html=1;exitX=1;exitY=0.5;exitDx=0;exitDy=0;entryX=0;entryY=0.5;entryDx=0;entryDy=0;" parent="jWoE7ujcPuWihpP76wZ1-42" source="jWoE7ujcPuWihpP76wZ1-3" target="jWoE7ujcPuWihpP76wZ1-38" edge="1">
          <mxGeometry relative="1" as="geometry" />
        </mxCell>
        <mxCell id="jWoE7ujcPuWihpP76wZ1-39" value="&lt;span style=&quot;color: rgb(51 , 51 , 51) ; font-family: &amp;#34;robotodraft&amp;#34; , &amp;#34;helvetica neue&amp;#34; , &amp;#34;helvetica&amp;#34; , &amp;#34;pingfang sc&amp;#34; , &amp;#34;nimbus sans l&amp;#34; , &amp;#34;arial&amp;#34; , &amp;#34;liberation sans&amp;#34; , &amp;#34;hiragino sans gb&amp;#34; , &amp;#34;sour    ce han sans cn normal&amp;#34; , &amp;#34;microsoft yahei&amp;#34; , &amp;#34;wenquanyi micro hei&amp;#34; , &amp;#34;wenquanyi zen hei&amp;#34; , &amp;#34;st heiti&amp;#34; , &amp;#34;simhei&amp;#34; , &amp;#34;wenquanyi zen hei sharp&amp;#34; , sans-serif ; font-size: 14px ; background-color: rgb(255 , 255 , 255)&quot;&gt;劳动者侧_求职线索跟进表&lt;/span&gt;" style="shape=document;whiteSpace=wrap;html=1;boundedLbl=1;" parent="jWoE7ujcPuWihpP76wZ1-42" vertex="1">
          <mxGeometry x="367" y="270" width="120" height="80" as="geometry" />
        </mxCell>
        <mxCell id="jWoE7ujcPuWihpP76wZ1-40" value="&lt;span style=&quot;color: rgb(51 , 51 , 51) ; font-family: &amp;#34;robotodraft&amp;#34; , &amp;#34;helvetica neue&amp;#34; , &amp;#34;helvetica&amp;#34; , &amp;#34;pingfang sc&amp;#34; , &amp;#34;nimbus sans l&amp;#34; , &amp;#34;arial&amp;#34; , &amp;#34;liberation sans&amp;#34; , &amp;#34;hiragino sans gb&amp;#34; , &amp;#34;sour    ce han sans cn normal&amp;#34; , &amp;#34;microsoft yahei&amp;#34; , &amp;#34;wenquanyi micro hei&amp;#34; , &amp;#34;wenquanyi zen hei&amp;#34; , &amp;#34;st heiti&amp;#34; , &amp;#34;simhei&amp;#34; , &amp;#34;wenquanyi zen hei sharp&amp;#34; , sans-serif ; font-size: 14px ; background-color: rgb(255 , 255 , 255)&quot;&gt;订单表&lt;/span&gt;" style="shape=document;whiteSpace=wrap;html=1;boundedLbl=1;" parent="jWoE7ujcPuWihpP76wZ1-42" vertex="1">
          <mxGeometry x="367" y="530" width="120" height="80" as="geometry" />
        </mxCell>
        <mxCell id="jWoE7ujcPuWihpP76wZ1-17" value="" style="edgeStyle=none;rounded=0;orthogonalLoop=1;jettySize=auto;html=1;" parent="jWoE7ujcPuWihpP76wZ1-42" source="jWoE7ujcPuWihpP76wZ1-18" target="jWoE7ujcPuWihpP76wZ1-40" edge="1">
          <mxGeometry relative="1" as="geometry" />
        </mxCell>
        <mxCell id="jWoE7ujcPuWihpP76wZ1-41" value="&lt;span style=&quot;color: rgb(51 , 51 , 51) ; font-family: &amp;#34;robotodraft&amp;#34; , &amp;#34;helvetica neue&amp;#34; , &amp;#34;helvetica&amp;#34; , &amp;#34;pingfang sc&amp;#34; , &amp;#34;nimbus sans l&amp;#34; , &amp;#34;arial&amp;#34; , &amp;#34;liberation sans&amp;#34; , &amp;#34;hiragino sans gb&amp;#34; , &amp;#34;sour    ce han sans cn normal&amp;#34; , &amp;#34;microsoft yahei&amp;#34; , &amp;#34;wenquanyi micro hei&amp;#34; , &amp;#34;wenquanyi zen hei&amp;#34; , &amp;#34;st heiti&amp;#34; , &amp;#34;simhei&amp;#34; , &amp;#34;wenquanyi zen hei sharp&amp;#34; , sans-serif ; font-size: 14px ; background-color: rgb(255 , 255 , 255)&quot;&gt;劳动者简历表&lt;/span&gt;" style="shape=document;whiteSpace=wrap;html=1;boundedLbl=1;" parent="jWoE7ujcPuWihpP76wZ1-42" vertex="1">
          <mxGeometry x="367" y="950" width="120" height="80" as="geometry" />
        </mxCell>
        <mxCell id="jWoE7ujcPuWihpP76wZ1-35" value="" style="edgeStyle=none;rounded=0;orthogonalLoop=1;jettySize=auto;html=1;" parent="jWoE7ujcPuWihpP76wZ1-42" source="jWoE7ujcPuWihpP76wZ1-36" target="jWoE7ujcPuWihpP76wZ1-41" edge="1">
          <mxGeometry relative="1" as="geometry" />
        </mxCell>
        <mxCell id="t94Ltg6bgHI9p4h5GBrI-1" value="" style="shape=curlyBracket;whiteSpace=wrap;html=1;rounded=1;flipH=1;strokeWidth=1;" parent="jWoE7ujcPuWihpP76wZ1-42" vertex="1">
          <mxGeometry x="322" y="254" width="20" height="120" as="geometry" />
        </mxCell>
        <mxCell id="jWoE7ujcPuWihpP76wZ1-43" value="劳动者简历生成流程：&lt;br&gt;" style="text;html=1;align=center;verticalAlign=middle;resizable=0;points=[];autosize=1;strokeColor=none;" parent="1" vertex="1">
          <mxGeometry x="72" y="1061" width="130" height="18" as="geometry" />
        </mxCell>
        <mxCell id="jWoE7ujcPuWihpP76wZ1-47" value="" style="edgeStyle=none;rounded=0;orthogonalLoop=1;jettySize=auto;html=1;" parent="1" source="jWoE7ujcPuWihpP76wZ1-44" target="jWoE7ujcPuWihpP76wZ1-46" edge="1">
          <mxGeometry relative="1" as="geometry" />
        </mxCell>
        <mxCell id="jWoE7ujcPuWihpP76wZ1-44" value="经纪人登录系统" style="rounded=0;whiteSpace=wrap;html=1;" parent="1" vertex="1">
          <mxGeometry x="301" y="1096" width="120" height="39" as="geometry" />
        </mxCell>
        <mxCell id="jWoE7ujcPuWihpP76wZ1-45" value="1.自有简历" style="text;html=1;align=center;verticalAlign=middle;resizable=0;points=[];autosize=1;strokeColor=none;" parent="1" vertex="1">
          <mxGeometry x="304" y="1071" width="68" height="18" as="geometry" />
        </mxCell>
        <mxCell id="jWoE7ujcPuWihpP76wZ1-54" value="" style="edgeStyle=none;rounded=0;orthogonalLoop=1;jettySize=auto;html=1;" parent="1" source="jWoE7ujcPuWihpP76wZ1-46" target="jWoE7ujcPuWihpP76wZ1-50" edge="1">
          <mxGeometry relative="1" as="geometry" />
        </mxCell>
        <mxCell id="jWoE7ujcPuWihpP76wZ1-46" value="录入阿姨简历" style="rounded=0;whiteSpace=wrap;html=1;" parent="1" vertex="1">
          <mxGeometry x="301" y="1162" width="120" height="36" as="geometry" />
        </mxCell>
        <mxCell id="jWoE7ujcPuWihpP76wZ1-52" value="" style="edgeStyle=none;rounded=0;orthogonalLoop=1;jettySize=auto;html=1;" parent="1" source="jWoE7ujcPuWihpP76wZ1-50" target="jWoE7ujcPuWihpP76wZ1-51" edge="1">
          <mxGeometry relative="1" as="geometry" />
        </mxCell>
        <mxCell id="jWoE7ujcPuWihpP76wZ1-59" value="" style="edgeStyle=none;rounded=0;orthogonalLoop=1;jettySize=auto;html=1;" parent="1" source="jWoE7ujcPuWihpP76wZ1-50" target="jWoE7ujcPuWihpP76wZ1-58" edge="1">
          <mxGeometry relative="1" as="geometry" />
        </mxCell>
        <mxCell id="jWoE7ujcPuWihpP76wZ1-50" value="是否中途退出" style="rhombus;whiteSpace=wrap;html=1;" parent="1" vertex="1">
          <mxGeometry x="321" y="1345" width="80" height="80" as="geometry" />
        </mxCell>
        <mxCell id="jWoE7ujcPuWihpP76wZ1-88" value="" style="edgeStyle=none;rounded=0;orthogonalLoop=1;jettySize=auto;html=1;" parent="1" source="jWoE7ujcPuWihpP76wZ1-51" target="jWoE7ujcPuWihpP76wZ1-85" edge="1">
          <mxGeometry relative="1" as="geometry" />
        </mxCell>
        <mxCell id="jWoE7ujcPuWihpP76wZ1-51" value="简历草稿" style="rounded=0;whiteSpace=wrap;html=1;" parent="1" vertex="1">
          <mxGeometry x="93" y="1368" width="111" height="34" as="geometry" />
        </mxCell>
        <mxCell id="jWoE7ujcPuWihpP76wZ1-53" value="Y" style="text;html=1;align=center;verticalAlign=middle;resizable=0;points=[];autosize=1;strokeColor=none;" parent="1" vertex="1">
          <mxGeometry x="281" y="1368" width="18" height="18" as="geometry" />
        </mxCell>
        <mxCell id="jWoE7ujcPuWihpP76wZ1-69" value="" style="edgeStyle=none;rounded=0;orthogonalLoop=1;jettySize=auto;html=1;" parent="1" source="jWoE7ujcPuWihpP76wZ1-58" target="jWoE7ujcPuWihpP76wZ1-63" edge="1">
          <mxGeometry relative="1" as="geometry" />
        </mxCell>
        <mxCell id="jWoE7ujcPuWihpP76wZ1-58" value="提交审核" style="rounded=0;whiteSpace=wrap;html=1;" parent="1" vertex="1">
          <mxGeometry x="301" y="1462" width="120" height="36" as="geometry" />
        </mxCell>
        <mxCell id="jWoE7ujcPuWihpP76wZ1-60" value="N" style="text;html=1;align=center;verticalAlign=middle;resizable=0;points=[];autosize=1;strokeColor=none;" parent="1" vertex="1">
          <mxGeometry x="363" y="1437" width="19" height="18" as="geometry" />
        </mxCell>
        <mxCell id="jWoE7ujcPuWihpP76wZ1-61" value="" style="edgeStyle=none;rounded=0;orthogonalLoop=1;jettySize=auto;html=1;" parent="1" source="jWoE7ujcPuWihpP76wZ1-63" target="jWoE7ujcPuWihpP76wZ1-64" edge="1">
          <mxGeometry relative="1" as="geometry" />
        </mxCell>
        <mxCell id="jWoE7ujcPuWihpP76wZ1-62" value="" style="edgeStyle=none;rounded=0;orthogonalLoop=1;jettySize=auto;html=1;" parent="1" source="jWoE7ujcPuWihpP76wZ1-63" target="jWoE7ujcPuWihpP76wZ1-66" edge="1">
          <mxGeometry relative="1" as="geometry" />
        </mxCell>
        <mxCell id="jWoE7ujcPuWihpP76wZ1-63" value="是否通过" style="rhombus;whiteSpace=wrap;html=1;" parent="1" vertex="1">
          <mxGeometry x="321" y="1538" width="80" height="80" as="geometry" />
        </mxCell>
        <mxCell id="jWoE7ujcPuWihpP76wZ1-64" value="审核拒绝" style="rounded=0;whiteSpace=wrap;html=1;" parent="1" vertex="1">
          <mxGeometry x="164" y="1561" width="111" height="34" as="geometry" />
        </mxCell>
        <mxCell id="jWoE7ujcPuWihpP76wZ1-65" value="N" style="text;html=1;align=center;verticalAlign=middle;resizable=0;points=[];autosize=1;strokeColor=none;" parent="1" vertex="1">
          <mxGeometry x="281" y="1561" width="19" height="18" as="geometry" />
        </mxCell>
        <mxCell id="jWoE7ujcPuWihpP76wZ1-77" value="" style="edgeStyle=none;rounded=0;orthogonalLoop=1;jettySize=auto;html=1;" parent="1" source="jWoE7ujcPuWihpP76wZ1-66" target="jWoE7ujcPuWihpP76wZ1-72" edge="1">
          <mxGeometry relative="1" as="geometry" />
        </mxCell>
        <mxCell id="jWoE7ujcPuWihpP76wZ1-66" value="审核通过" style="rounded=0;whiteSpace=wrap;html=1;" parent="1" vertex="1">
          <mxGeometry x="301" y="1655" width="120" height="36" as="geometry" />
        </mxCell>
        <mxCell id="jWoE7ujcPuWihpP76wZ1-67" value="Y" style="text;html=1;align=center;verticalAlign=middle;resizable=0;points=[];autosize=1;strokeColor=none;" parent="1" vertex="1">
          <mxGeometry x="364" y="1630" width="18" height="18" as="geometry" />
        </mxCell>
        <mxCell id="jWoE7ujcPuWihpP76wZ1-70" value="" style="edgeStyle=none;rounded=0;orthogonalLoop=1;jettySize=auto;html=1;" parent="1" source="jWoE7ujcPuWihpP76wZ1-72" target="jWoE7ujcPuWihpP76wZ1-73" edge="1">
          <mxGeometry relative="1" as="geometry" />
        </mxCell>
        <mxCell id="jWoE7ujcPuWihpP76wZ1-71" value="" style="edgeStyle=none;rounded=0;orthogonalLoop=1;jettySize=auto;html=1;" parent="1" source="jWoE7ujcPuWihpP76wZ1-72" target="jWoE7ujcPuWihpP76wZ1-75" edge="1">
          <mxGeometry relative="1" as="geometry" />
        </mxCell>
        <mxCell id="jWoE7ujcPuWihpP76wZ1-72" value="经纪人是否是劳动者侧" style="rhombus;whiteSpace=wrap;html=1;" parent="1" vertex="1">
          <mxGeometry x="321" y="1723" width="80" height="80" as="geometry" />
        </mxCell>
        <mxCell id="jWoE7ujcPuWihpP76wZ1-73" value="非公开简历" style="rounded=0;whiteSpace=wrap;html=1;" parent="1" vertex="1">
          <mxGeometry x="182.5" y="1746" width="111" height="34" as="geometry" />
        </mxCell>
        <mxCell id="jWoE7ujcPuWihpP76wZ1-74" value="N" style="text;html=1;align=center;verticalAlign=middle;resizable=0;points=[];autosize=1;strokeColor=none;" parent="1" vertex="1">
          <mxGeometry x="298" y="1746" width="19" height="18" as="geometry" />
        </mxCell>
        <mxCell id="jWoE7ujcPuWihpP76wZ1-116" value="" style="edgeStyle=none;rounded=0;orthogonalLoop=1;jettySize=auto;html=1;" parent="1" source="jWoE7ujcPuWihpP76wZ1-75" target="jWoE7ujcPuWihpP76wZ1-115" edge="1">
          <mxGeometry relative="1" as="geometry" />
        </mxCell>
        <mxCell id="jWoE7ujcPuWihpP76wZ1-75" value="公开简历" style="rounded=0;whiteSpace=wrap;html=1;" parent="1" vertex="1">
          <mxGeometry x="301" y="1840" width="120" height="36" as="geometry" />
        </mxCell>
        <mxCell id="jWoE7ujcPuWihpP76wZ1-76" value="Y" style="text;html=1;align=center;verticalAlign=middle;resizable=0;points=[];autosize=1;strokeColor=none;" parent="1" vertex="1">
          <mxGeometry x="364" y="1815" width="18" height="18" as="geometry" />
        </mxCell>
        <mxCell id="jWoE7ujcPuWihpP76wZ1-84" value="" style="endArrow=none;html=1;" parent="1" edge="1">
          <mxGeometry width="50" height="50" relative="1" as="geometry">
            <mxPoint x="219" y="1703" as="sourcePoint" />
            <mxPoint x="219" y="1595" as="targetPoint" />
          </mxGeometry>
        </mxCell>
        <mxCell id="jWoE7ujcPuWihpP76wZ1-89" value="" style="edgeStyle=none;rounded=0;orthogonalLoop=1;jettySize=auto;html=1;" parent="1" source="jWoE7ujcPuWihpP76wZ1-85" target="jWoE7ujcPuWihpP76wZ1-58" edge="1">
          <mxGeometry relative="1" as="geometry" />
        </mxCell>
        <mxCell id="jWoE7ujcPuWihpP76wZ1-85" value="完善简历" style="rounded=0;whiteSpace=wrap;html=1;" parent="1" vertex="1">
          <mxGeometry x="93" y="1464" width="111" height="34" as="geometry" />
        </mxCell>
        <mxCell id="jWoE7ujcPuWihpP76wZ1-92" value="2.邀请" style="text;html=1;align=center;verticalAlign=middle;resizable=0;points=[];autosize=1;strokeColor=none;" parent="1" vertex="1">
          <mxGeometry x="488" y="1071" width="44" height="18" as="geometry" />
        </mxCell>
        <mxCell id="jWoE7ujcPuWihpP76wZ1-97" value="" style="edgeStyle=none;rounded=0;orthogonalLoop=1;jettySize=auto;html=1;" parent="1" source="jWoE7ujcPuWihpP76wZ1-95" target="jWoE7ujcPuWihpP76wZ1-96" edge="1">
          <mxGeometry relative="1" as="geometry" />
        </mxCell>
        <mxCell id="jWoE7ujcPuWihpP76wZ1-95" value="经纪人提供二维码" style="rounded=0;whiteSpace=wrap;html=1;" parent="1" vertex="1">
          <mxGeometry x="482" y="1096" width="120" height="39" as="geometry" />
        </mxCell>
        <mxCell id="jWoE7ujcPuWihpP76wZ1-103" value="" style="edgeStyle=none;rounded=0;orthogonalLoop=1;jettySize=auto;html=1;" parent="1" source="jWoE7ujcPuWihpP76wZ1-96" target="jWoE7ujcPuWihpP76wZ1-98" edge="1">
          <mxGeometry relative="1" as="geometry" />
        </mxCell>
        <mxCell id="jWoE7ujcPuWihpP76wZ1-96" value="阿姨扫码登录" style="rounded=0;whiteSpace=wrap;html=1;" parent="1" vertex="1">
          <mxGeometry x="482" y="1162" width="120" height="36" as="geometry" />
        </mxCell>
        <mxCell id="jWoE7ujcPuWihpP76wZ1-98" value="三步认证" style="rounded=0;whiteSpace=wrap;html=1;" parent="1" vertex="1">
          <mxGeometry x="482" y="1314" width="120" height="36" as="geometry" />
        </mxCell>
        <mxCell id="jWoE7ujcPuWihpP76wZ1-99" value="" style="strokeWidth=1;html=1;shape=mxgraph.flowchart.annotation_2;align=left;labelPosition=right;pointerEvents=1;" parent="1" vertex="1">
          <mxGeometry x="602" y="1284" width="50" height="100" as="geometry" />
        </mxCell>
        <mxCell id="jWoE7ujcPuWihpP76wZ1-100" value="身份证认证" style="rounded=0;whiteSpace=wrap;html=1;" parent="1" vertex="1">
          <mxGeometry x="649" y="1265" width="120" height="36" as="geometry" />
        </mxCell>
        <mxCell id="jWoE7ujcPuWihpP76wZ1-101" value="接单意向认证" style="rounded=0;whiteSpace=wrap;html=1;" parent="1" vertex="1">
          <mxGeometry x="649" y="1314" width="120" height="36" as="geometry" />
        </mxCell>
        <mxCell id="jWoE7ujcPuWihpP76wZ1-102" value="个人信息认证" style="rounded=0;whiteSpace=wrap;html=1;" parent="1" vertex="1">
          <mxGeometry x="649" y="1363" width="120" height="36" as="geometry" />
        </mxCell>
        <mxCell id="jWoE7ujcPuWihpP76wZ1-104" value="" style="endArrow=none;html=1;" parent="1" edge="1">
          <mxGeometry width="50" height="50" relative="1" as="geometry">
            <mxPoint x="361" y="1332" as="sourcePoint" />
            <mxPoint x="482" y="1332" as="targetPoint" />
          </mxGeometry>
        </mxCell>
        <mxCell id="jWoE7ujcPuWihpP76wZ1-105" value="3 阿姨自己登录注册" style="text;html=1;align=center;verticalAlign=middle;resizable=0;points=[];autosize=1;strokeColor=none;" parent="1" vertex="1">
          <mxGeometry x="649" y="1071" width="116" height="18" as="geometry" />
        </mxCell>
        <mxCell id="jWoE7ujcPuWihpP76wZ1-106" value="阿姨自己登录" style="rounded=0;whiteSpace=wrap;html=1;" parent="1" vertex="1">
          <mxGeometry x="649" y="1206" width="120" height="36" as="geometry" />
        </mxCell>
        <mxCell id="jWoE7ujcPuWihpP76wZ1-107" value="" style="endArrow=none;html=1;" parent="1" edge="1">
          <mxGeometry width="50" height="50" relative="1" as="geometry">
            <mxPoint x="544" y="1226" as="sourcePoint" />
            <mxPoint x="649" y="1226" as="targetPoint" />
          </mxGeometry>
        </mxCell>
        <mxCell id="jWoE7ujcPuWihpP76wZ1-118" value="" style="edgeStyle=none;rounded=0;orthogonalLoop=1;jettySize=auto;html=1;" parent="1" source="jWoE7ujcPuWihpP76wZ1-115" target="jWoE7ujcPuWihpP76wZ1-117" edge="1">
          <mxGeometry relative="1" as="geometry" />
        </mxCell>
        <mxCell id="jWoE7ujcPuWihpP76wZ1-121" value="" style="edgeStyle=none;rounded=0;orthogonalLoop=1;jettySize=auto;html=1;" parent="1" source="jWoE7ujcPuWihpP76wZ1-115" target="jWoE7ujcPuWihpP76wZ1-120" edge="1">
          <mxGeometry relative="1" as="geometry" />
        </mxCell>
        <mxCell id="jWoE7ujcPuWihpP76wZ1-115" value="是否经纪人录入" style="rhombus;whiteSpace=wrap;html=1;rounded=0;" parent="1" vertex="1">
          <mxGeometry x="321" y="1934" width="80" height="80" as="geometry" />
        </mxCell>
        <mxCell id="jWoE7ujcPuWihpP76wZ1-117" value="自有简历" style="whiteSpace=wrap;html=1;rounded=0;" parent="1" vertex="1">
          <mxGeometry x="141" y="1956.5" width="120" height="35" as="geometry" />
        </mxCell>
        <mxCell id="jWoE7ujcPuWihpP76wZ1-119" value="Y" style="text;html=1;align=center;verticalAlign=middle;resizable=0;points=[];autosize=1;strokeColor=none;" parent="1" vertex="1">
          <mxGeometry x="285" y="1949" width="18" height="18" as="geometry" />
        </mxCell>
        <mxCell id="jWoE7ujcPuWihpP76wZ1-124" value="" style="edgeStyle=none;rounded=0;orthogonalLoop=1;jettySize=auto;html=1;" parent="1" source="jWoE7ujcPuWihpP76wZ1-120" edge="1">
          <mxGeometry relative="1" as="geometry">
            <mxPoint x="261" y="2097" as="targetPoint" />
          </mxGeometry>
        </mxCell>
        <mxCell id="jWoE7ujcPuWihpP76wZ1-129" value="" style="edgeStyle=none;rounded=0;orthogonalLoop=1;jettySize=auto;html=1;" parent="1" source="jWoE7ujcPuWihpP76wZ1-120" edge="1">
          <mxGeometry relative="1" as="geometry">
            <mxPoint x="361" y="2189" as="targetPoint" />
          </mxGeometry>
        </mxCell>
        <mxCell id="jWoE7ujcPuWihpP76wZ1-120" value="是否阿姨扫经纪人二维码" style="rhombus;whiteSpace=wrap;html=1;rounded=0;" parent="1" vertex="1">
          <mxGeometry x="321" y="2057" width="80" height="80" as="geometry" />
        </mxCell>
        <mxCell id="jWoE7ujcPuWihpP76wZ1-122" value="N" style="text;html=1;align=center;verticalAlign=middle;resizable=0;points=[];autosize=1;strokeColor=none;" parent="1" vertex="1">
          <mxGeometry x="370" y="2021" width="19" height="18" as="geometry" />
        </mxCell>
        <mxCell id="jWoE7ujcPuWihpP76wZ1-125" value="Y" style="text;html=1;align=center;verticalAlign=middle;resizable=0;points=[];autosize=1;strokeColor=none;" parent="1" vertex="1">
          <mxGeometry x="288" y="2082" width="18" height="18" as="geometry" />
        </mxCell>
        <mxCell id="jWoE7ujcPuWihpP76wZ1-126" value="邀请简历" style="rounded=0;whiteSpace=wrap;html=1;" parent="1" vertex="1">
          <mxGeometry x="143" y="2079" width="120" height="36" as="geometry" />
        </mxCell>
        <mxCell id="jWoE7ujcPuWihpP76wZ1-127" value="下面流程可在录入简历时同步完成&lt;br&gt;也可在后续添加关系" style="text;html=1;align=center;verticalAlign=middle;resizable=0;points=[];autosize=1;strokeColor=none;" parent="1" vertex="1">
          <mxGeometry x="836.79" y="1992.52" width="190" height="32" as="geometry" />
        </mxCell>
        <mxCell id="jWoE7ujcPuWihpP76wZ1-130" value="N" style="text;html=1;align=center;verticalAlign=middle;resizable=0;points=[];autosize=1;strokeColor=none;" parent="1" vertex="1">
          <mxGeometry x="359" y="2141" width="19" height="18" as="geometry" />
        </mxCell>
        <mxCell id="jWoE7ujcPuWihpP76wZ1-131" value="" style="edgeStyle=none;rounded=0;orthogonalLoop=1;jettySize=auto;html=1;" parent="1" source="jWoE7ujcPuWihpP76wZ1-132" edge="1">
          <mxGeometry relative="1" as="geometry">
            <mxPoint x="263" y="2355" as="targetPoint" />
          </mxGeometry>
        </mxCell>
        <mxCell id="jWoE7ujcPuWihpP76wZ1-132" value="是否经纪人扫阿姨二维码" style="rhombus;whiteSpace=wrap;html=1;rounded=0;" parent="1" vertex="1">
          <mxGeometry x="322" y="2315" width="80" height="80" as="geometry" />
        </mxCell>
        <mxCell id="jWoE7ujcPuWihpP76wZ1-133" value="Y" style="text;html=1;align=center;verticalAlign=middle;resizable=0;points=[];autosize=1;strokeColor=none;" parent="1" vertex="1">
          <mxGeometry x="290" y="2340" width="18" height="18" as="geometry" />
        </mxCell>
        <mxCell id="jWoE7ujcPuWihpP76wZ1-134" value="代理简历" style="rounded=0;whiteSpace=wrap;html=1;" parent="1" vertex="1">
          <mxGeometry x="145" y="2337" width="120" height="36" as="geometry" />
        </mxCell>
        <mxCell id="jWoE7ujcPuWihpP76wZ1-148" value="" style="edgeStyle=none;rounded=0;orthogonalLoop=1;jettySize=auto;html=1;exitX=0.5;exitY=1;exitDx=0;exitDy=0;" parent="1" source="jWoE7ujcPuWihpP76wZ1-132" target="jWoE7ujcPuWihpP76wZ1-147" edge="1">
          <mxGeometry relative="1" as="geometry">
            <mxPoint x="362.38277511961724" y="2648.6172248803828" as="sourcePoint" />
          </mxGeometry>
        </mxCell>
        <mxCell id="63CXJILJnVrkTmEtlI7v-12" value="" style="edgeStyle=none;rounded=0;orthogonalLoop=1;jettySize=auto;html=1;" parent="1" source="jWoE7ujcPuWihpP76wZ1-147" target="63CXJILJnVrkTmEtlI7v-11" edge="1">
          <mxGeometry relative="1" as="geometry" />
        </mxCell>
        <mxCell id="jWoE7ujcPuWihpP76wZ1-147" value="二者没有建立联系" style="whiteSpace=wrap;html=1;rounded=0;" parent="1" vertex="1">
          <mxGeometry x="302" y="2660" width="120" height="35" as="geometry" />
        </mxCell>
        <mxCell id="jWoE7ujcPuWihpP76wZ1-149" value="N" style="text;html=1;align=center;verticalAlign=middle;resizable=0;points=[];autosize=1;strokeColor=none;" parent="1" vertex="1">
          <mxGeometry x="414" y="2566" width="19" height="18" as="geometry" />
        </mxCell>
        <mxCell id="63CXJILJnVrkTmEtlI7v-4" value="" style="edgeStyle=none;rounded=0;orthogonalLoop=1;jettySize=auto;html=1;" parent="1" source="63CXJILJnVrkTmEtlI7v-6" edge="1">
          <mxGeometry relative="1" as="geometry">
            <mxPoint x="358" y="2722" as="targetPoint" />
            <Array as="points">
              <mxPoint x="111" y="2227" />
              <mxPoint x="116" y="2722" />
              <mxPoint x="169" y="2722" />
              <mxPoint x="342" y="2722" />
            </Array>
          </mxGeometry>
        </mxCell>
        <mxCell id="63CXJILJnVrkTmEtlI7v-5" value="" style="edgeStyle=none;rounded=0;orthogonalLoop=1;jettySize=auto;html=1;" parent="1" source="63CXJILJnVrkTmEtlI7v-6" edge="1">
          <mxGeometry relative="1" as="geometry">
            <mxPoint x="363" y="2318" as="targetPoint" />
          </mxGeometry>
        </mxCell>
        <mxCell id="63CXJILJnVrkTmEtlI7v-6" value="简历是否审核通过" style="rhombus;whiteSpace=wrap;html=1;rounded=0;" parent="1" vertex="1">
          <mxGeometry x="321" y="2185" width="80" height="80" as="geometry" />
        </mxCell>
        <mxCell id="63CXJILJnVrkTmEtlI7v-7" value="N" style="text;html=1;align=center;verticalAlign=middle;resizable=0;points=[];autosize=1;strokeColor=none;" parent="1" vertex="1">
          <mxGeometry x="291" y="2225" width="19" height="18" as="geometry" />
        </mxCell>
        <mxCell id="63CXJILJnVrkTmEtlI7v-10" value="Y" style="text;html=1;align=center;verticalAlign=middle;resizable=0;points=[];autosize=1;strokeColor=none;" parent="1" vertex="1">
          <mxGeometry x="370" y="2271.02" width="18" height="18" as="geometry" />
        </mxCell>
        <mxCell id="63CXJILJnVrkTmEtlI7v-11" value="结束" style="ellipse;whiteSpace=wrap;html=1;rounded=0;" parent="1" vertex="1">
          <mxGeometry x="301" y="2737" width="120" height="39" as="geometry" />
        </mxCell>
        <mxCell id="63CXJILJnVrkTmEtlI7v-13" value="自有和邀请不能并存" style="ellipse;shape=cloud;whiteSpace=wrap;html=1;" parent="1" vertex="1">
          <mxGeometry x="418" y="2021" width="120" height="80" as="geometry" />
        </mxCell>
        <mxCell id="63CXJILJnVrkTmEtlI7v-14" value="" style="edgeStyle=none;rounded=0;orthogonalLoop=1;jettySize=auto;html=1;" parent="1" source="63CXJILJnVrkTmEtlI7v-15" target="63CXJILJnVrkTmEtlI7v-17" edge="1">
          <mxGeometry relative="1" as="geometry" />
        </mxCell>
        <mxCell id="63CXJILJnVrkTmEtlI7v-15" value="经纪人查看平台公开简历列表" style="whiteSpace=wrap;html=1;rounded=0;" parent="1" vertex="1">
          <mxGeometry x="478" y="2343" width="120" height="34" as="geometry" />
        </mxCell>
        <mxCell id="63CXJILJnVrkTmEtlI7v-16" value="" style="edgeStyle=none;rounded=0;orthogonalLoop=1;jettySize=auto;html=1;" parent="1" source="63CXJILJnVrkTmEtlI7v-17" target="63CXJILJnVrkTmEtlI7v-19" edge="1">
          <mxGeometry relative="1" as="geometry" />
        </mxCell>
        <mxCell id="63CXJILJnVrkTmEtlI7v-17" value="阿姨简历详情" style="whiteSpace=wrap;html=1;rounded=0;" parent="1" vertex="1">
          <mxGeometry x="479" y="2413" width="120" height="34" as="geometry" />
        </mxCell>
        <mxCell id="63CXJILJnVrkTmEtlI7v-22" value="" style="edgeStyle=none;rounded=0;orthogonalLoop=1;jettySize=auto;html=1;" parent="1" source="63CXJILJnVrkTmEtlI7v-19" target="63CXJILJnVrkTmEtlI7v-21" edge="1">
          <mxGeometry relative="1" as="geometry" />
        </mxCell>
        <mxCell id="63CXJILJnVrkTmEtlI7v-19" value="是否查看阿姨电话" style="rhombus;whiteSpace=wrap;html=1;rounded=0;" parent="1" vertex="1">
          <mxGeometry x="498" y="2479" width="80" height="80" as="geometry" />
        </mxCell>
        <mxCell id="63CXJILJnVrkTmEtlI7v-21" value="查看简历" style="rounded=0;whiteSpace=wrap;html=1;" parent="1" vertex="1">
          <mxGeometry x="626" y="2501" width="120" height="36" as="geometry" />
        </mxCell>
        <mxCell id="63CXJILJnVrkTmEtlI7v-23" value="Y" style="text;html=1;align=center;verticalAlign=middle;resizable=0;points=[];autosize=1;strokeColor=none;" parent="1" vertex="1">
          <mxGeometry x="586" y="2496" width="18" height="18" as="geometry" />
        </mxCell>
        <mxCell id="zK1in1OdM6DxXNlaO13Y-2" value="" style="endArrow=none;html=1;rounded=0;fontFamily=Helvetica;fontSize=12;fontColor=#0000FF;entryX=0.5;entryY=1;entryDx=0;entryDy=0;" parent="1" target="jWoE7ujcPuWihpP76wZ1-73" edge="1">
          <mxGeometry width="50" height="50" relative="1" as="geometry">
            <mxPoint x="359" y="1899" as="sourcePoint" />
            <mxPoint x="260" y="1816" as="targetPoint" />
            <Array as="points">
              <mxPoint x="238" y="1899" />
            </Array>
          </mxGeometry>
        </mxCell>
        <mxCell id="zK1in1OdM6DxXNlaO13Y-3" value="" style="endArrow=none;html=1;rounded=0;fontFamily=Helvetica;fontSize=12;fontColor=#0000FF;" parent="1" target="jWoE7ujcPuWihpP76wZ1-85" edge="1">
          <mxGeometry width="50" height="50" relative="1" as="geometry">
            <mxPoint x="360" y="1701" as="sourcePoint" />
            <mxPoint x="148" y="1574" as="targetPoint" />
            <Array as="points">
              <mxPoint x="149" y="1701" />
            </Array>
          </mxGeometry>
        </mxCell>
        <mxCell id="zK1in1OdM6DxXNlaO13Y-4" value="" style="endArrow=classic;html=1;rounded=0;fontFamily=Helvetica;fontSize=12;fontColor=#0000FF;" parent="1" edge="1">
          <mxGeometry width="50" height="50" relative="1" as="geometry">
            <mxPoint x="363" y="2287" as="sourcePoint" />
            <mxPoint x="537" y="2340" as="targetPoint" />
            <Array as="points">
              <mxPoint x="537" y="2287" />
            </Array>
          </mxGeometry>
        </mxCell>
        <mxCell id="zK1in1OdM6DxXNlaO13Y-5" value="" style="endArrow=classic;html=1;rounded=0;fontFamily=Helvetica;fontSize=12;fontColor=#0000FF;exitX=0.5;exitY=1;exitDx=0;exitDy=0;" parent="1" source="63CXJILJnVrkTmEtlI7v-19" edge="1">
          <mxGeometry width="50" height="50" relative="1" as="geometry">
            <mxPoint x="535" y="2622" as="sourcePoint" />
            <mxPoint x="364" y="2588" as="targetPoint" />
            <Array as="points">
              <mxPoint x="538" y="2588" />
            </Array>
          </mxGeometry>
        </mxCell>
        <mxCell id="_G3ia_d3sfydCc_fVNjM-1" value="aaa" style="whiteSpace=wrap;html=1;aspect=fixed;" vertex="1" parent="1">
          <mxGeometry x="237" y="429" width="80" height="80" as="geometry" />
        </mxCell>
      </root>
    </mxGraphModel>
  </diagram>
  <diagram id="hYqClQniGawqTu3LPdBv" name="交易侧">
    <mxGraphModel dx="1422" dy="762" grid="0" gridSize="10" guides="1" tooltips="1" connect="1" arrows="1" fold="1" page="1" pageScale="1" pageWidth="2339" pageHeight="3300" math="0" shadow="0">
      <root>
        <mxCell id="T3wQ4acbohLQeAf4zLge-0" />
        <mxCell id="T3wQ4acbohLQeAf4zLge-1" parent="T3wQ4acbohLQeAf4zLge-0" />
        <mxCell id="7kCQT9pWkkyVaMc0LGde-74" value="" style="rounded=0;whiteSpace=wrap;html=1;fontFamily=Helvetica;fontSize=12;fontColor=default;fillColor=none;gradientColor=none;" parent="T3wQ4acbohLQeAf4zLge-1" vertex="1">
          <mxGeometry x="1073" y="254" width="600" height="1137" as="geometry" />
        </mxCell>
        <mxCell id="7kCQT9pWkkyVaMc0LGde-16" value="" style="edgeStyle=orthogonalEdgeStyle;rounded=0;orthogonalLoop=1;jettySize=auto;html=1;" parent="T3wQ4acbohLQeAf4zLge-1" source="7kCQT9pWkkyVaMc0LGde-14" target="7kCQT9pWkkyVaMc0LGde-15" edge="1">
          <mxGeometry relative="1" as="geometry" />
        </mxCell>
        <mxCell id="7kCQT9pWkkyVaMc0LGde-14" value="家服入口" style="rounded=1;whiteSpace=wrap;html=1;strokeWidth=1;" parent="T3wQ4acbohLQeAf4zLge-1" vertex="1">
          <mxGeometry x="1162" y="294" width="120" height="30" as="geometry" />
        </mxCell>
        <mxCell id="7kCQT9pWkkyVaMc0LGde-20" style="edgeStyle=orthogonalEdgeStyle;rounded=0;orthogonalLoop=1;jettySize=auto;html=1;exitX=0.5;exitY=1;exitDx=0;exitDy=0;entryX=0.5;entryY=0;entryDx=0;entryDy=0;" parent="T3wQ4acbohLQeAf4zLge-1" source="7kCQT9pWkkyVaMc0LGde-15" target="7kCQT9pWkkyVaMc0LGde-18" edge="1">
          <mxGeometry relative="1" as="geometry" />
        </mxCell>
        <mxCell id="7kCQT9pWkkyVaMc0LGde-15" value="&lt;span style=&quot;color: rgb(50 , 50 , 50) ; font-size: 13px ; background-color: rgba(255 , 255 , 255 , 0.01)&quot;&gt;需求发布页&lt;/span&gt;" style="rounded=0;whiteSpace=wrap;html=1;strokeWidth=1;" parent="T3wQ4acbohLQeAf4zLge-1" vertex="1">
          <mxGeometry x="1162" y="354" width="120" height="30" as="geometry" />
        </mxCell>
        <mxCell id="7kCQT9pWkkyVaMc0LGde-24" value="" style="edgeStyle=orthogonalEdgeStyle;rounded=0;orthogonalLoop=1;jettySize=auto;html=1;" parent="T3wQ4acbohLQeAf4zLge-1" source="7kCQT9pWkkyVaMc0LGde-18" target="7kCQT9pWkkyVaMc0LGde-23" edge="1">
          <mxGeometry relative="1" as="geometry" />
        </mxCell>
        <mxCell id="7kCQT9pWkkyVaMc0LGde-18" value="&lt;span style=&quot;color: rgb(50 , 50 , 50) ; font-size: 13px ; background-color: rgba(255 , 255 , 255 , 0.01)&quot;&gt;电话下单&lt;/span&gt;" style="rounded=0;whiteSpace=wrap;html=1;strokeWidth=1;" parent="T3wQ4acbohLQeAf4zLge-1" vertex="1">
          <mxGeometry x="1082" y="424" width="120" height="30" as="geometry" />
        </mxCell>
        <mxCell id="7kCQT9pWkkyVaMc0LGde-19" value="&lt;span style=&quot;color: rgb(50 , 50 , 50) ; font-size: 13px ; background-color: rgba(255 , 255 , 255 , 0.01)&quot;&gt;填写需求&lt;/span&gt;" style="rounded=0;whiteSpace=wrap;html=1;strokeWidth=1;" parent="T3wQ4acbohLQeAf4zLge-1" vertex="1">
          <mxGeometry x="1242" y="424" width="120" height="30" as="geometry" />
        </mxCell>
        <mxCell id="7kCQT9pWkkyVaMc0LGde-22" value="" style="edgeStyle=segmentEdgeStyle;endArrow=classic;html=1;rounded=0;" parent="T3wQ4acbohLQeAf4zLge-1" target="7kCQT9pWkkyVaMc0LGde-19" edge="1">
          <mxGeometry width="50" height="50" relative="1" as="geometry">
            <mxPoint x="1212" y="404" as="sourcePoint" />
            <mxPoint x="1302" y="414" as="targetPoint" />
          </mxGeometry>
        </mxCell>
        <mxCell id="7kCQT9pWkkyVaMc0LGde-43" style="edgeStyle=orthogonalEdgeStyle;rounded=0;orthogonalLoop=1;jettySize=auto;html=1;entryX=0.5;entryY=0;entryDx=0;entryDy=0;" parent="T3wQ4acbohLQeAf4zLge-1" source="7kCQT9pWkkyVaMc0LGde-23" target="7kCQT9pWkkyVaMc0LGde-36" edge="1">
          <mxGeometry relative="1" as="geometry">
            <Array as="points">
              <mxPoint x="1222" y="544" />
              <mxPoint x="1382" y="544" />
            </Array>
          </mxGeometry>
        </mxCell>
        <mxCell id="7kCQT9pWkkyVaMc0LGde-23" value="&lt;font color=&quot;#323232&quot;&gt;&lt;span style=&quot;font-size: 13px ; background-color: rgba(255 , 255 , 255 , 0.01)&quot;&gt;生成用户需求&lt;/span&gt;&lt;/font&gt;" style="rounded=0;whiteSpace=wrap;html=1;strokeWidth=1;" parent="T3wQ4acbohLQeAf4zLge-1" vertex="1">
          <mxGeometry x="1162" y="494" width="120" height="30" as="geometry" />
        </mxCell>
        <mxCell id="7kCQT9pWkkyVaMc0LGde-25" value="" style="edgeStyle=segmentEdgeStyle;endArrow=classic;html=1;rounded=0;exitX=0.5;exitY=1;exitDx=0;exitDy=0;entryX=0.5;entryY=0;entryDx=0;entryDy=0;" parent="T3wQ4acbohLQeAf4zLge-1" source="7kCQT9pWkkyVaMc0LGde-19" target="7kCQT9pWkkyVaMc0LGde-23" edge="1">
          <mxGeometry width="50" height="50" relative="1" as="geometry">
            <mxPoint x="1442" y="484" as="sourcePoint" />
            <mxPoint x="1492" y="434" as="targetPoint" />
            <Array as="points">
              <mxPoint x="1302" y="474" />
              <mxPoint x="1222" y="474" />
            </Array>
          </mxGeometry>
        </mxCell>
        <mxCell id="7kCQT9pWkkyVaMc0LGde-29" value="" style="edgeStyle=orthogonalEdgeStyle;rounded=0;orthogonalLoop=1;jettySize=auto;html=1;" parent="T3wQ4acbohLQeAf4zLge-1" source="7kCQT9pWkkyVaMc0LGde-26" target="7kCQT9pWkkyVaMc0LGde-28" edge="1">
          <mxGeometry relative="1" as="geometry" />
        </mxCell>
        <mxCell id="7kCQT9pWkkyVaMc0LGde-26" value="家服入口" style="rounded=1;whiteSpace=wrap;html=1;strokeWidth=1;" parent="T3wQ4acbohLQeAf4zLge-1" vertex="1">
          <mxGeometry x="1482" y="294" width="120" height="30" as="geometry" />
        </mxCell>
        <mxCell id="7kCQT9pWkkyVaMc0LGde-27" value="&lt;span style=&quot;color: rgb(50 , 50 , 50) ; font-size: 13px ; background-color: rgba(255 , 255 , 255 , 0.01)&quot;&gt;阿姨列表页&lt;/span&gt;" style="rounded=0;whiteSpace=wrap;html=1;strokeWidth=1;" parent="T3wQ4acbohLQeAf4zLge-1" vertex="1">
          <mxGeometry x="1482" y="344" width="120" height="30" as="geometry" />
        </mxCell>
        <mxCell id="7kCQT9pWkkyVaMc0LGde-31" value="" style="edgeStyle=orthogonalEdgeStyle;rounded=0;orthogonalLoop=1;jettySize=auto;html=1;" parent="T3wQ4acbohLQeAf4zLge-1" source="7kCQT9pWkkyVaMc0LGde-28" target="7kCQT9pWkkyVaMc0LGde-30" edge="1">
          <mxGeometry relative="1" as="geometry" />
        </mxCell>
        <mxCell id="7kCQT9pWkkyVaMc0LGde-28" value="&lt;span style=&quot;color: rgb(50 , 50 , 50) ; font-size: 13px ; background-color: rgba(255 , 255 , 255 , 0.01)&quot;&gt;查看阿姨详情&lt;/span&gt;" style="rounded=0;whiteSpace=wrap;html=1;strokeWidth=1;" parent="T3wQ4acbohLQeAf4zLge-1" vertex="1">
          <mxGeometry x="1482" y="394" width="120" height="30" as="geometry" />
        </mxCell>
        <mxCell id="7kCQT9pWkkyVaMc0LGde-35" value="" style="edgeStyle=orthogonalEdgeStyle;rounded=0;orthogonalLoop=1;jettySize=auto;html=1;" parent="T3wQ4acbohLQeAf4zLge-1" source="7kCQT9pWkkyVaMc0LGde-30" target="7kCQT9pWkkyVaMc0LGde-32" edge="1">
          <mxGeometry relative="1" as="geometry" />
        </mxCell>
        <mxCell id="7kCQT9pWkkyVaMc0LGde-30" value="&lt;span style=&quot;color: rgb(50 , 50 , 50) ; font-size: 13px ; background-color: rgba(255 , 255 , 255 , 0.01)&quot;&gt;预约阿姨&lt;/span&gt;" style="rounded=0;whiteSpace=wrap;html=1;strokeWidth=1;" parent="T3wQ4acbohLQeAf4zLge-1" vertex="1">
          <mxGeometry x="1482" y="444" width="120" height="30" as="geometry" />
        </mxCell>
        <mxCell id="7kCQT9pWkkyVaMc0LGde-32" value="&lt;span style=&quot;color: rgb(50 , 50 , 50) ; font-size: 13px ; background-color: rgba(255 , 255 , 255 , 0.01)&quot;&gt;生成预约订单&lt;br&gt;（线索）&lt;br&gt;&lt;/span&gt;" style="rounded=0;whiteSpace=wrap;html=1;strokeWidth=1;" parent="T3wQ4acbohLQeAf4zLge-1" vertex="1">
          <mxGeometry x="1482" y="494" width="120" height="30" as="geometry" />
        </mxCell>
        <mxCell id="7kCQT9pWkkyVaMc0LGde-45" value="" style="edgeStyle=orthogonalEdgeStyle;rounded=0;orthogonalLoop=1;jettySize=auto;html=1;" parent="T3wQ4acbohLQeAf4zLge-1" source="7kCQT9pWkkyVaMc0LGde-36" target="7kCQT9pWkkyVaMc0LGde-42" edge="1">
          <mxGeometry relative="1" as="geometry" />
        </mxCell>
        <mxCell id="7kCQT9pWkkyVaMc0LGde-36" value="&lt;span style=&quot;color: rgb(50 , 50 , 50) ; font-size: 13px ; background-color: rgba(255 , 255 , 255 , 0.01)&quot;&gt;平台下发需求&lt;br&gt;&lt;/span&gt;" style="rounded=0;whiteSpace=wrap;html=1;strokeWidth=1;" parent="T3wQ4acbohLQeAf4zLge-1" vertex="1">
          <mxGeometry x="1322" y="564" width="120" height="30" as="geometry" />
        </mxCell>
        <mxCell id="7kCQT9pWkkyVaMc0LGde-47" value="" style="edgeStyle=orthogonalEdgeStyle;rounded=0;orthogonalLoop=1;jettySize=auto;html=1;" parent="T3wQ4acbohLQeAf4zLge-1" source="7kCQT9pWkkyVaMc0LGde-42" target="7kCQT9pWkkyVaMc0LGde-46" edge="1">
          <mxGeometry relative="1" as="geometry" />
        </mxCell>
        <mxCell id="7kCQT9pWkkyVaMc0LGde-50" value="" style="edgeStyle=orthogonalEdgeStyle;rounded=0;orthogonalLoop=1;jettySize=auto;html=1;" parent="T3wQ4acbohLQeAf4zLge-1" source="7kCQT9pWkkyVaMc0LGde-42" target="7kCQT9pWkkyVaMc0LGde-49" edge="1">
          <mxGeometry relative="1" as="geometry" />
        </mxCell>
        <mxCell id="7kCQT9pWkkyVaMc0LGde-42" value="是否开启直接分配经纪人" style="rhombus;whiteSpace=wrap;html=1;strokeWidth=1;" parent="T3wQ4acbohLQeAf4zLge-1" vertex="1">
          <mxGeometry x="1307" y="624" width="150" height="80" as="geometry" />
        </mxCell>
        <mxCell id="7kCQT9pWkkyVaMc0LGde-44" value="" style="edgeStyle=segmentEdgeStyle;endArrow=classic;html=1;rounded=0;exitX=0.5;exitY=1;exitDx=0;exitDy=0;entryX=0.5;entryY=0;entryDx=0;entryDy=0;" parent="T3wQ4acbohLQeAf4zLge-1" source="7kCQT9pWkkyVaMc0LGde-32" target="7kCQT9pWkkyVaMc0LGde-36" edge="1">
          <mxGeometry width="50" height="50" relative="1" as="geometry">
            <mxPoint x="1442" y="574" as="sourcePoint" />
            <mxPoint x="1492" y="524" as="targetPoint" />
            <Array as="points">
              <mxPoint x="1542" y="544" />
              <mxPoint x="1382" y="544" />
            </Array>
          </mxGeometry>
        </mxCell>
        <mxCell id="7kCQT9pWkkyVaMc0LGde-46" value="&lt;span style=&quot;color: rgb(50 , 50 , 50) ; font-size: 13px ; background-color: rgba(255 , 255 , 255 , 0.01)&quot;&gt;分配经纪人&lt;br&gt;&lt;/span&gt;" style="rounded=0;whiteSpace=wrap;html=1;strokeWidth=1;" parent="T3wQ4acbohLQeAf4zLge-1" vertex="1">
          <mxGeometry x="1492" y="649" width="120" height="30" as="geometry" />
        </mxCell>
        <mxCell id="7kCQT9pWkkyVaMc0LGde-48" value="Y" style="text;html=1;align=center;verticalAlign=middle;resizable=0;points=[];autosize=1;strokeColor=none;fillColor=none;" parent="T3wQ4acbohLQeAf4zLge-1" vertex="1">
          <mxGeometry x="1457" y="644" width="20" height="20" as="geometry" />
        </mxCell>
        <mxCell id="7kCQT9pWkkyVaMc0LGde-52" value="" style="edgeStyle=orthogonalEdgeStyle;rounded=0;orthogonalLoop=1;jettySize=auto;html=1;" parent="T3wQ4acbohLQeAf4zLge-1" source="7kCQT9pWkkyVaMc0LGde-49" target="7kCQT9pWkkyVaMc0LGde-51" edge="1">
          <mxGeometry relative="1" as="geometry" />
        </mxCell>
        <mxCell id="7kCQT9pWkkyVaMc0LGde-49" value="&lt;span style=&quot;color: rgb(50 , 50 , 50) ; font-size: 13px ; background-color: rgba(255 , 255 , 255 , 0.01)&quot;&gt;商家/门店跟进需求&lt;/span&gt;&lt;span style=&quot;color: rgb(50 , 50 , 50) ; font-size: 13px ; background-color: rgba(255 , 255 , 255 , 0.01)&quot;&gt;&lt;br&gt;&lt;/span&gt;" style="rounded=0;whiteSpace=wrap;html=1;strokeWidth=1;" parent="T3wQ4acbohLQeAf4zLge-1" vertex="1">
          <mxGeometry x="1322" y="724" width="120" height="30" as="geometry" />
        </mxCell>
        <mxCell id="7kCQT9pWkkyVaMc0LGde-54" value="" style="edgeStyle=orthogonalEdgeStyle;rounded=0;orthogonalLoop=1;jettySize=auto;html=1;" parent="T3wQ4acbohLQeAf4zLge-1" source="7kCQT9pWkkyVaMc0LGde-51" target="7kCQT9pWkkyVaMc0LGde-53" edge="1">
          <mxGeometry relative="1" as="geometry" />
        </mxCell>
        <mxCell id="7kCQT9pWkkyVaMc0LGde-51" value="&lt;span style=&quot;color: rgb(50 , 50 , 50) ; font-size: 13px ; background-color: rgba(255 , 255 , 255 , 0.01)&quot;&gt;分配经纪人&lt;br&gt;&lt;/span&gt;" style="rounded=0;whiteSpace=wrap;html=1;strokeWidth=1;" parent="T3wQ4acbohLQeAf4zLge-1" vertex="1">
          <mxGeometry x="1322" y="774" width="120" height="30" as="geometry" />
        </mxCell>
        <mxCell id="7kCQT9pWkkyVaMc0LGde-56" value="" style="edgeStyle=orthogonalEdgeStyle;rounded=0;orthogonalLoop=1;jettySize=auto;html=1;" parent="T3wQ4acbohLQeAf4zLge-1" source="7kCQT9pWkkyVaMc0LGde-53" target="7kCQT9pWkkyVaMc0LGde-55" edge="1">
          <mxGeometry relative="1" as="geometry" />
        </mxCell>
        <mxCell id="7kCQT9pWkkyVaMc0LGde-60" value="" style="edgeStyle=orthogonalEdgeStyle;rounded=0;orthogonalLoop=1;jettySize=auto;html=1;" parent="T3wQ4acbohLQeAf4zLge-1" source="7kCQT9pWkkyVaMc0LGde-53" target="7kCQT9pWkkyVaMc0LGde-58" edge="1">
          <mxGeometry relative="1" as="geometry" />
        </mxCell>
        <mxCell id="7kCQT9pWkkyVaMc0LGde-53" value="&lt;span style=&quot;color: rgb(50 , 50 , 50) ; font-size: 13px ; background-color: rgba(255 , 255 , 255 , 0.01)&quot;&gt;联系客户，沟通客户意向&lt;/span&gt;" style="rhombus;whiteSpace=wrap;html=1;strokeWidth=1;" parent="T3wQ4acbohLQeAf4zLge-1" vertex="1">
          <mxGeometry x="1304" y="834" width="155" height="80" as="geometry" />
        </mxCell>
        <mxCell id="7kCQT9pWkkyVaMc0LGde-55" value="&lt;span style=&quot;color: rgb(50 , 50 , 50) ; font-size: 13px ; background-color: rgba(255 , 255 , 255 , 0.01)&quot;&gt;客户流失，进入公海&lt;br&gt;&lt;/span&gt;" style="rounded=0;whiteSpace=wrap;html=1;strokeWidth=1;" parent="T3wQ4acbohLQeAf4zLge-1" vertex="1">
          <mxGeometry x="1542" y="859" width="120" height="30" as="geometry" />
        </mxCell>
        <mxCell id="7kCQT9pWkkyVaMc0LGde-57" value="无法达成一致" style="text;html=1;align=center;verticalAlign=middle;resizable=0;points=[];autosize=1;strokeColor=none;fillColor=none;" parent="T3wQ4acbohLQeAf4zLge-1" vertex="1">
          <mxGeometry x="1450" y="854" width="90" height="20" as="geometry" />
        </mxCell>
        <mxCell id="7kCQT9pWkkyVaMc0LGde-63" value="" style="edgeStyle=orthogonalEdgeStyle;rounded=0;orthogonalLoop=1;jettySize=auto;html=1;" parent="T3wQ4acbohLQeAf4zLge-1" source="7kCQT9pWkkyVaMc0LGde-58" target="7kCQT9pWkkyVaMc0LGde-62" edge="1">
          <mxGeometry relative="1" as="geometry" />
        </mxCell>
        <mxCell id="7kCQT9pWkkyVaMc0LGde-58" value="&lt;span style=&quot;color: rgb(50 , 50 , 50) ; font-size: 13px ; background-color: rgba(255 , 255 , 255 , 0.01)&quot;&gt;联系客户和阿姨面试&lt;br&gt;&lt;/span&gt;" style="rounded=0;whiteSpace=wrap;html=1;strokeWidth=1;" parent="T3wQ4acbohLQeAf4zLge-1" vertex="1">
          <mxGeometry x="1322" y="944" width="120" height="30" as="geometry" />
        </mxCell>
        <mxCell id="7kCQT9pWkkyVaMc0LGde-59" value="或长时间不联系" style="text;html=1;align=center;verticalAlign=middle;resizable=0;points=[];autosize=1;strokeColor=none;fillColor=none;" parent="T3wQ4acbohLQeAf4zLge-1" vertex="1">
          <mxGeometry x="1447" y="884" width="100" height="20" as="geometry" />
        </mxCell>
        <mxCell id="7kCQT9pWkkyVaMc0LGde-61" value="达成一致" style="text;html=1;align=center;verticalAlign=middle;resizable=0;points=[];autosize=1;strokeColor=none;fillColor=none;" parent="T3wQ4acbohLQeAf4zLge-1" vertex="1">
          <mxGeometry x="1383" y="914" width="60" height="20" as="geometry" />
        </mxCell>
        <mxCell id="7kCQT9pWkkyVaMc0LGde-66" value="" style="edgeStyle=orthogonalEdgeStyle;rounded=0;orthogonalLoop=1;jettySize=auto;html=1;" parent="T3wQ4acbohLQeAf4zLge-1" source="7kCQT9pWkkyVaMc0LGde-62" target="7kCQT9pWkkyVaMc0LGde-64" edge="1">
          <mxGeometry relative="1" as="geometry" />
        </mxCell>
        <mxCell id="7kCQT9pWkkyVaMc0LGde-70" value="" style="edgeStyle=orthogonalEdgeStyle;rounded=0;orthogonalLoop=1;jettySize=auto;html=1;" parent="T3wQ4acbohLQeAf4zLge-1" source="7kCQT9pWkkyVaMc0LGde-62" target="7kCQT9pWkkyVaMc0LGde-69" edge="1">
          <mxGeometry relative="1" as="geometry" />
        </mxCell>
        <mxCell id="7kCQT9pWkkyVaMc0LGde-62" value="&lt;span style=&quot;color: rgb(50 , 50 , 50) ; font-size: 13px ; background-color: rgba(255 , 255 , 255 , 0.01)&quot;&gt;面试通过&lt;/span&gt;" style="rhombus;whiteSpace=wrap;html=1;strokeWidth=1;" parent="T3wQ4acbohLQeAf4zLge-1" vertex="1">
          <mxGeometry x="1304" y="1004" width="155" height="80" as="geometry" />
        </mxCell>
        <mxCell id="7kCQT9pWkkyVaMc0LGde-65" style="edgeStyle=orthogonalEdgeStyle;rounded=0;orthogonalLoop=1;jettySize=auto;html=1;" parent="T3wQ4acbohLQeAf4zLge-1" source="7kCQT9pWkkyVaMc0LGde-64" edge="1">
          <mxGeometry relative="1" as="geometry">
            <mxPoint x="1382" y="984" as="targetPoint" />
            <Array as="points">
              <mxPoint x="1562" y="984" />
            </Array>
          </mxGeometry>
        </mxCell>
        <mxCell id="7kCQT9pWkkyVaMc0LGde-64" value="&lt;span style=&quot;color: rgb(50 , 50 , 50) ; font-size: 13px ; background-color: rgba(255 , 255 , 255 , 0.01)&quot;&gt;重新匹配阿姨&lt;br&gt;&lt;/span&gt;" style="rounded=0;whiteSpace=wrap;html=1;strokeWidth=1;" parent="T3wQ4acbohLQeAf4zLge-1" vertex="1">
          <mxGeometry x="1502" y="1029" width="120" height="30" as="geometry" />
        </mxCell>
        <mxCell id="7kCQT9pWkkyVaMc0LGde-67" value="N" style="text;html=1;align=center;verticalAlign=middle;resizable=0;points=[];autosize=1;strokeColor=none;fillColor=none;" parent="T3wQ4acbohLQeAf4zLge-1" vertex="1">
          <mxGeometry x="1462" y="1024" width="20" height="20" as="geometry" />
        </mxCell>
        <mxCell id="7kCQT9pWkkyVaMc0LGde-68" value="N" style="text;html=1;align=center;verticalAlign=middle;resizable=0;points=[];autosize=1;strokeColor=none;fillColor=none;" parent="T3wQ4acbohLQeAf4zLge-1" vertex="1">
          <mxGeometry x="1392" y="694" width="20" height="20" as="geometry" />
        </mxCell>
        <mxCell id="xcZ_hmNgE5VOip_oZ6rO-1" value="" style="edgeStyle=orthogonalEdgeStyle;rounded=0;orthogonalLoop=1;jettySize=auto;html=1;strokeColor=#000000;" parent="T3wQ4acbohLQeAf4zLge-1" source="7kCQT9pWkkyVaMc0LGde-69" target="xcZ_hmNgE5VOip_oZ6rO-0" edge="1">
          <mxGeometry relative="1" as="geometry" />
        </mxCell>
        <mxCell id="7kCQT9pWkkyVaMc0LGde-69" value="&lt;span style=&quot;color: rgb(50 , 50 , 50) ; font-size: 13px ; background-color: rgba(255 , 255 , 255 , 0.01)&quot;&gt;签订合同，生成订单&lt;br&gt;&lt;/span&gt;" style="rounded=0;whiteSpace=wrap;html=1;strokeWidth=1;" parent="T3wQ4acbohLQeAf4zLge-1" vertex="1">
          <mxGeometry x="1321.5" y="1114" width="120" height="30" as="geometry" />
        </mxCell>
        <mxCell id="e4yuiqqUa7OBExsKw5T6-2" value="" style="edgeStyle=orthogonalEdgeStyle;rounded=0;orthogonalLoop=1;jettySize=auto;html=1;fontFamily=Helvetica;fontSize=12;fontColor=#0000FF;" parent="T3wQ4acbohLQeAf4zLge-1" source="e4yuiqqUa7OBExsKw5T6-0" target="e4yuiqqUa7OBExsKw5T6-1" edge="1">
          <mxGeometry relative="1" as="geometry" />
        </mxCell>
        <mxCell id="e4yuiqqUa7OBExsKw5T6-0" value="&lt;font color=&quot;#0000ff&quot;&gt;1000&lt;br&gt;预下单&lt;/font&gt;" style="whiteSpace=wrap;html=1;aspect=fixed;labelBackgroundColor=none;fontFamily=Helvetica;fontSize=12;fontColor=#333333;strokeWidth=1;fillColor=#f5f5f5;strokeColor=#666666;" parent="T3wQ4acbohLQeAf4zLge-1" vertex="1">
          <mxGeometry x="115" y="1375" width="70" height="70" as="geometry" />
        </mxCell>
        <mxCell id="e4yuiqqUa7OBExsKw5T6-4" value="" style="edgeStyle=orthogonalEdgeStyle;rounded=0;orthogonalLoop=1;jettySize=auto;html=1;fontFamily=Helvetica;fontSize=12;fontColor=#0000FF;" parent="T3wQ4acbohLQeAf4zLge-1" source="e4yuiqqUa7OBExsKw5T6-1" target="e4yuiqqUa7OBExsKw5T6-3" edge="1">
          <mxGeometry relative="1" as="geometry" />
        </mxCell>
        <mxCell id="e4yuiqqUa7OBExsKw5T6-6" value="" style="edgeStyle=orthogonalEdgeStyle;rounded=0;orthogonalLoop=1;jettySize=auto;html=1;fontFamily=Helvetica;fontSize=12;fontColor=#0000FF;" parent="T3wQ4acbohLQeAf4zLge-1" source="e4yuiqqUa7OBExsKw5T6-1" target="e4yuiqqUa7OBExsKw5T6-5" edge="1">
          <mxGeometry relative="1" as="geometry" />
        </mxCell>
        <mxCell id="e4yuiqqUa7OBExsKw5T6-16" style="edgeStyle=orthogonalEdgeStyle;rounded=0;orthogonalLoop=1;jettySize=auto;html=1;entryX=0.25;entryY=1;entryDx=0;entryDy=0;fontFamily=Helvetica;fontSize=12;fontColor=#0000FF;strokeColor=#FF3333;" parent="T3wQ4acbohLQeAf4zLge-1" source="e4yuiqqUa7OBExsKw5T6-1" target="e4yuiqqUa7OBExsKw5T6-14" edge="1">
          <mxGeometry relative="1" as="geometry">
            <Array as="points">
              <mxPoint x="210" y="1540" />
              <mxPoint x="210" y="1595" />
              <mxPoint x="393" y="1595" />
            </Array>
          </mxGeometry>
        </mxCell>
        <mxCell id="e4yuiqqUa7OBExsKw5T6-1" value="&lt;font color=&quot;#0000ff&quot;&gt;1001&lt;br&gt;待签字&lt;br&gt;&lt;/font&gt;" style="whiteSpace=wrap;html=1;aspect=fixed;labelBackgroundColor=none;fontFamily=Helvetica;fontSize=12;fontColor=#333333;strokeWidth=1;fillColor=#f5f5f5;strokeColor=#666666;" parent="T3wQ4acbohLQeAf4zLge-1" vertex="1">
          <mxGeometry x="115" y="1505" width="70" height="70" as="geometry" />
        </mxCell>
        <mxCell id="e4yuiqqUa7OBExsKw5T6-3" value="&lt;font color=&quot;#0000ff&quot;&gt;1002&lt;br&gt;超时未签字&lt;br&gt;&lt;/font&gt;" style="whiteSpace=wrap;html=1;aspect=fixed;labelBackgroundColor=none;fontFamily=Helvetica;fontSize=12;fontColor=#333333;strokeWidth=1;fillColor=#f5f5f5;strokeColor=#666666;" parent="T3wQ4acbohLQeAf4zLge-1" vertex="1">
          <mxGeometry x="115" y="1635" width="70" height="70" as="geometry" />
        </mxCell>
        <mxCell id="e4yuiqqUa7OBExsKw5T6-8" value="" style="edgeStyle=orthogonalEdgeStyle;rounded=0;orthogonalLoop=1;jettySize=auto;html=1;fontFamily=Helvetica;fontSize=12;fontColor=#0000FF;" parent="T3wQ4acbohLQeAf4zLge-1" source="e4yuiqqUa7OBExsKw5T6-5" target="e4yuiqqUa7OBExsKw5T6-7" edge="1">
          <mxGeometry relative="1" as="geometry" />
        </mxCell>
        <mxCell id="e4yuiqqUa7OBExsKw5T6-11" value="" style="edgeStyle=orthogonalEdgeStyle;rounded=0;orthogonalLoop=1;jettySize=auto;html=1;fontFamily=Helvetica;fontSize=12;fontColor=#0000FF;" parent="T3wQ4acbohLQeAf4zLge-1" source="e4yuiqqUa7OBExsKw5T6-5" target="e4yuiqqUa7OBExsKw5T6-10" edge="1">
          <mxGeometry relative="1" as="geometry" />
        </mxCell>
        <mxCell id="e4yuiqqUa7OBExsKw5T6-15" value="" style="edgeStyle=orthogonalEdgeStyle;rounded=0;orthogonalLoop=1;jettySize=auto;html=1;fontFamily=Helvetica;fontSize=12;fontColor=#0000FF;" parent="T3wQ4acbohLQeAf4zLge-1" source="e4yuiqqUa7OBExsKw5T6-5" target="e4yuiqqUa7OBExsKw5T6-14" edge="1">
          <mxGeometry relative="1" as="geometry" />
        </mxCell>
        <mxCell id="e4yuiqqUa7OBExsKw5T6-5" value="&lt;font color=&quot;#0000ff&quot;&gt;3002&lt;br&gt;待支付&lt;br&gt;&lt;/font&gt;" style="whiteSpace=wrap;html=1;aspect=fixed;labelBackgroundColor=none;fontFamily=Helvetica;fontSize=12;strokeWidth=1;fillColor=#fff2cc;strokeColor=#d6b656;" parent="T3wQ4acbohLQeAf4zLge-1" vertex="1">
          <mxGeometry x="245" y="1505" width="70" height="70" as="geometry" />
        </mxCell>
        <mxCell id="e4yuiqqUa7OBExsKw5T6-7" value="&lt;font color=&quot;#0000ff&quot;&gt;9010&lt;br&gt;商家关闭&lt;br&gt;&lt;/font&gt;" style="whiteSpace=wrap;html=1;aspect=fixed;labelBackgroundColor=none;fontFamily=Helvetica;fontSize=12;fontColor=#333333;strokeWidth=1;fillColor=#f5f5f5;strokeColor=#666666;" parent="T3wQ4acbohLQeAf4zLge-1" vertex="1">
          <mxGeometry x="245" y="1395" width="70" height="70" as="geometry" />
        </mxCell>
        <mxCell id="e4yuiqqUa7OBExsKw5T6-9" value="" style="endArrow=classic;html=1;rounded=0;fontFamily=Helvetica;fontSize=12;fontColor=#0000FF;" parent="T3wQ4acbohLQeAf4zLge-1" edge="1">
          <mxGeometry width="50" height="50" relative="1" as="geometry">
            <mxPoint x="210" y="1539" as="sourcePoint" />
            <mxPoint x="245" y="1429" as="targetPoint" />
            <Array as="points">
              <mxPoint x="210" y="1429" />
            </Array>
          </mxGeometry>
        </mxCell>
        <mxCell id="e4yuiqqUa7OBExsKw5T6-12" style="edgeStyle=orthogonalEdgeStyle;rounded=0;orthogonalLoop=1;jettySize=auto;html=1;entryX=0;entryY=0.5;entryDx=0;entryDy=0;fontFamily=Helvetica;fontSize=12;fontColor=#0000FF;" parent="T3wQ4acbohLQeAf4zLge-1" source="e4yuiqqUa7OBExsKw5T6-10" target="e4yuiqqUa7OBExsKw5T6-0" edge="1">
          <mxGeometry relative="1" as="geometry">
            <Array as="points">
              <mxPoint x="280" y="1735" />
              <mxPoint x="60" y="1735" />
              <mxPoint x="60" y="1410" />
            </Array>
          </mxGeometry>
        </mxCell>
        <mxCell id="e4yuiqqUa7OBExsKw5T6-10" value="&lt;font color=&quot;#0000ff&quot;&gt;9004&lt;br&gt;超时未支付&lt;br&gt;&lt;/font&gt;" style="whiteSpace=wrap;html=1;aspect=fixed;labelBackgroundColor=none;fontFamily=Helvetica;fontSize=12;fontColor=#333333;strokeWidth=1;fillColor=#f5f5f5;strokeColor=#666666;" parent="T3wQ4acbohLQeAf4zLge-1" vertex="1">
          <mxGeometry x="245" y="1635" width="70" height="70" as="geometry" />
        </mxCell>
        <mxCell id="e4yuiqqUa7OBExsKw5T6-13" value="" style="endArrow=none;html=1;rounded=0;fontFamily=Helvetica;fontSize=12;fontColor=#0000FF;entryX=0.5;entryY=1;entryDx=0;entryDy=0;" parent="T3wQ4acbohLQeAf4zLge-1" target="e4yuiqqUa7OBExsKw5T6-3" edge="1">
          <mxGeometry width="50" height="50" relative="1" as="geometry">
            <mxPoint x="150" y="1735" as="sourcePoint" />
            <mxPoint x="200" y="1705" as="targetPoint" />
          </mxGeometry>
        </mxCell>
        <mxCell id="e4yuiqqUa7OBExsKw5T6-19" value="" style="edgeStyle=orthogonalEdgeStyle;rounded=0;orthogonalLoop=1;jettySize=auto;html=1;fontFamily=Helvetica;fontSize=12;fontColor=#FF3333;strokeColor=#000000;" parent="T3wQ4acbohLQeAf4zLge-1" source="e4yuiqqUa7OBExsKw5T6-14" target="e4yuiqqUa7OBExsKw5T6-18" edge="1">
          <mxGeometry relative="1" as="geometry" />
        </mxCell>
        <mxCell id="e4yuiqqUa7OBExsKw5T6-21" value="" style="edgeStyle=orthogonalEdgeStyle;rounded=0;orthogonalLoop=1;jettySize=auto;html=1;fontFamily=Helvetica;fontSize=12;fontColor=#FF3333;strokeColor=#000000;" parent="T3wQ4acbohLQeAf4zLge-1" source="e4yuiqqUa7OBExsKw5T6-14" target="e4yuiqqUa7OBExsKw5T6-20" edge="1">
          <mxGeometry relative="1" as="geometry" />
        </mxCell>
        <mxCell id="e4yuiqqUa7OBExsKw5T6-14" value="&lt;font color=&quot;#0000ff&quot;&gt;2001&lt;br&gt;待上户&lt;br&gt;&lt;/font&gt;" style="whiteSpace=wrap;html=1;aspect=fixed;labelBackgroundColor=none;fontFamily=Helvetica;fontSize=12;strokeWidth=1;fillColor=#fff2cc;strokeColor=#d6b656;" parent="T3wQ4acbohLQeAf4zLge-1" vertex="1">
          <mxGeometry x="375" y="1505" width="70" height="70" as="geometry" />
        </mxCell>
        <mxCell id="e4yuiqqUa7OBExsKw5T6-17" value="&lt;font color=&quot;#ff3333&quot;&gt;迁移支付记录&lt;br&gt;可以选择连跳&lt;/font&gt;" style="text;html=1;align=center;verticalAlign=middle;resizable=0;points=[];autosize=1;strokeColor=none;fillColor=none;fontSize=12;fontFamily=Helvetica;fontColor=#0000FF;" parent="T3wQ4acbohLQeAf4zLge-1" vertex="1">
          <mxGeometry x="185" y="1595" width="90" height="30" as="geometry" />
        </mxCell>
        <mxCell id="e4yuiqqUa7OBExsKw5T6-18" value="&lt;font color=&quot;#0000ff&quot;&gt;9005&lt;br&gt;超时未上户&lt;br&gt;&lt;/font&gt;" style="whiteSpace=wrap;html=1;aspect=fixed;labelBackgroundColor=none;fontFamily=Helvetica;fontSize=12;fontColor=#333333;strokeWidth=1;fillColor=#f5f5f5;strokeColor=#666666;" parent="T3wQ4acbohLQeAf4zLge-1" vertex="1">
          <mxGeometry x="375" y="1635" width="70" height="70" as="geometry" />
        </mxCell>
        <mxCell id="iYG5_1s-Tv-2Olf-WNrP-8" value="" style="edgeStyle=orthogonalEdgeStyle;rounded=0;orthogonalLoop=1;jettySize=auto;html=1;strokeColor=#000000;" parent="T3wQ4acbohLQeAf4zLge-1" source="e4yuiqqUa7OBExsKw5T6-20" target="e4yuiqqUa7OBExsKw5T6-22" edge="1">
          <mxGeometry relative="1" as="geometry" />
        </mxCell>
        <mxCell id="e4yuiqqUa7OBExsKw5T6-20" value="&lt;font color=&quot;#0000ff&quot;&gt;5001&lt;br&gt;服务中&lt;br&gt;&lt;/font&gt;" style="whiteSpace=wrap;html=1;aspect=fixed;labelBackgroundColor=none;fontFamily=Helvetica;fontSize=12;fontColor=#333333;strokeWidth=1;fillColor=#f5f5f5;strokeColor=#666666;" parent="T3wQ4acbohLQeAf4zLge-1" vertex="1">
          <mxGeometry x="500" y="1505" width="70" height="70" as="geometry" />
        </mxCell>
        <mxCell id="e4yuiqqUa7OBExsKw5T6-22" value="&lt;font color=&quot;#0000ff&quot;&gt;9001&lt;br&gt;服务完成&lt;br&gt;&lt;/font&gt;" style="whiteSpace=wrap;html=1;aspect=fixed;labelBackgroundColor=none;fontFamily=Helvetica;fontSize=12;strokeWidth=1;fillColor=#fff2cc;strokeColor=#d6b656;" parent="T3wQ4acbohLQeAf4zLge-1" vertex="1">
          <mxGeometry x="615" y="1505" width="70" height="70" as="geometry" />
        </mxCell>
        <mxCell id="e4yuiqqUa7OBExsKw5T6-31" value="" style="edgeStyle=orthogonalEdgeStyle;rounded=0;orthogonalLoop=1;jettySize=auto;html=1;fontFamily=Helvetica;fontSize=12;fontColor=#FF3333;strokeColor=#000000;" parent="T3wQ4acbohLQeAf4zLge-1" source="e4yuiqqUa7OBExsKw5T6-24" target="e4yuiqqUa7OBExsKw5T6-30" edge="1">
          <mxGeometry relative="1" as="geometry" />
        </mxCell>
        <mxCell id="e4yuiqqUa7OBExsKw5T6-24" value="&lt;font color=&quot;#0000ff&quot;&gt;3001&lt;br&gt;申请更换中&lt;br&gt;&lt;/font&gt;" style="whiteSpace=wrap;html=1;aspect=fixed;labelBackgroundColor=none;fontFamily=Helvetica;fontSize=12;fontColor=#333333;strokeWidth=1;fillColor=#f5f5f5;strokeColor=#666666;" parent="T3wQ4acbohLQeAf4zLge-1" vertex="1">
          <mxGeometry x="440" y="1425" width="70" height="70" as="geometry" />
        </mxCell>
        <mxCell id="e4yuiqqUa7OBExsKw5T6-26" value="" style="endArrow=classic;startArrow=classic;html=1;rounded=0;fontFamily=Helvetica;fontSize=12;fontColor=#FF3333;strokeColor=#000000;exitX=0.381;exitY=0.01;exitDx=0;exitDy=0;exitPerimeter=0;" parent="T3wQ4acbohLQeAf4zLge-1" source="e4yuiqqUa7OBExsKw5T6-14" edge="1">
          <mxGeometry width="50" height="50" relative="1" as="geometry">
            <mxPoint x="390" y="1505" as="sourcePoint" />
            <mxPoint x="440" y="1455" as="targetPoint" />
            <Array as="points">
              <mxPoint x="402" y="1455" />
            </Array>
          </mxGeometry>
        </mxCell>
        <mxCell id="e4yuiqqUa7OBExsKw5T6-28" value="" style="endArrow=classic;startArrow=classic;html=1;rounded=0;fontFamily=Helvetica;fontSize=12;fontColor=#FF3333;strokeColor=#000000;entryX=1;entryY=0.5;entryDx=0;entryDy=0;exitX=0.5;exitY=0;exitDx=0;exitDy=0;" parent="T3wQ4acbohLQeAf4zLge-1" source="e4yuiqqUa7OBExsKw5T6-20" target="e4yuiqqUa7OBExsKw5T6-24" edge="1">
          <mxGeometry width="50" height="50" relative="1" as="geometry">
            <mxPoint x="360" y="1505" as="sourcePoint" />
            <mxPoint x="410" y="1455" as="targetPoint" />
            <Array as="points">
              <mxPoint x="535" y="1460" />
            </Array>
          </mxGeometry>
        </mxCell>
        <mxCell id="e4yuiqqUa7OBExsKw5T6-36" value="" style="edgeStyle=orthogonalEdgeStyle;rounded=0;orthogonalLoop=1;jettySize=auto;html=1;fontFamily=Helvetica;fontSize=12;fontColor=#FF3333;strokeColor=#000000;" parent="T3wQ4acbohLQeAf4zLge-1" source="e4yuiqqUa7OBExsKw5T6-30" target="e4yuiqqUa7OBExsKw5T6-35" edge="1">
          <mxGeometry relative="1" as="geometry" />
        </mxCell>
        <mxCell id="e4yuiqqUa7OBExsKw5T6-30" value="&lt;font color=&quot;#0000ff&quot;&gt;9003&lt;br&gt;正在更换中&lt;br&gt;&lt;/font&gt;" style="whiteSpace=wrap;html=1;aspect=fixed;labelBackgroundColor=none;fontFamily=Helvetica;fontSize=12;fontColor=#333333;strokeWidth=1;fillColor=#f5f5f5;strokeColor=#666666;" parent="T3wQ4acbohLQeAf4zLge-1" vertex="1">
          <mxGeometry x="440" y="1325" width="70" height="70" as="geometry" />
        </mxCell>
        <mxCell id="e4yuiqqUa7OBExsKw5T6-32" value="" style="endArrow=classic;startArrow=classic;html=1;rounded=0;fontFamily=Helvetica;fontSize=12;fontColor=#FF3333;strokeColor=#000000;exitX=0.25;exitY=0;exitDx=0;exitDy=0;" parent="T3wQ4acbohLQeAf4zLge-1" source="e4yuiqqUa7OBExsKw5T6-14" edge="1">
          <mxGeometry width="50" height="50" relative="1" as="geometry">
            <mxPoint x="390" y="1405" as="sourcePoint" />
            <mxPoint x="440" y="1355" as="targetPoint" />
            <Array as="points">
              <mxPoint x="393" y="1355" />
            </Array>
          </mxGeometry>
        </mxCell>
        <mxCell id="e4yuiqqUa7OBExsKw5T6-34" value="" style="endArrow=classic;startArrow=classic;html=1;rounded=0;fontFamily=Helvetica;fontSize=12;fontColor=#FF3333;strokeColor=#000000;exitX=1;exitY=0.5;exitDx=0;exitDy=0;entryX=0.75;entryY=0;entryDx=0;entryDy=0;" parent="T3wQ4acbohLQeAf4zLge-1" source="e4yuiqqUa7OBExsKw5T6-30" target="e4yuiqqUa7OBExsKw5T6-20" edge="1">
          <mxGeometry width="50" height="50" relative="1" as="geometry">
            <mxPoint x="550" y="1405" as="sourcePoint" />
            <mxPoint x="600" y="1355" as="targetPoint" />
            <Array as="points">
              <mxPoint x="553" y="1360" />
            </Array>
          </mxGeometry>
        </mxCell>
        <mxCell id="e4yuiqqUa7OBExsKw5T6-35" value="&lt;font color=&quot;#0000ff&quot;&gt;9009&lt;br&gt;更换家政员关闭&lt;br&gt;&lt;/font&gt;" style="whiteSpace=wrap;html=1;aspect=fixed;labelBackgroundColor=none;fontFamily=Helvetica;fontSize=12;fontColor=#333333;strokeWidth=1;fillColor=#f5f5f5;strokeColor=#666666;" parent="T3wQ4acbohLQeAf4zLge-1" vertex="1">
          <mxGeometry x="440" y="1225" width="70" height="70" as="geometry" />
        </mxCell>
        <mxCell id="e4yuiqqUa7OBExsKw5T6-41" value="" style="edgeStyle=orthogonalEdgeStyle;rounded=0;orthogonalLoop=1;jettySize=auto;html=1;fontFamily=Helvetica;fontSize=12;fontColor=#FF3333;strokeColor=#000000;" parent="T3wQ4acbohLQeAf4zLge-1" source="e4yuiqqUa7OBExsKw5T6-37" target="e4yuiqqUa7OBExsKw5T6-40" edge="1">
          <mxGeometry relative="1" as="geometry" />
        </mxCell>
        <mxCell id="e4yuiqqUa7OBExsKw5T6-37" value="&lt;font color=&quot;#0000ff&quot;&gt;6001&lt;br&gt;退款中&lt;br&gt;&lt;/font&gt;" style="whiteSpace=wrap;html=1;aspect=fixed;labelBackgroundColor=none;fontFamily=Helvetica;fontSize=12;fontColor=#333333;strokeWidth=1;fillColor=#f5f5f5;strokeColor=#666666;" parent="T3wQ4acbohLQeAf4zLge-1" vertex="1">
          <mxGeometry x="500" y="1605" width="70" height="70" as="geometry" />
        </mxCell>
        <mxCell id="e4yuiqqUa7OBExsKw5T6-38" value="" style="endArrow=classic;startArrow=classic;html=1;rounded=0;fontFamily=Helvetica;fontSize=12;fontColor=#FF3333;strokeColor=#000000;entryX=0.5;entryY=1;entryDx=0;entryDy=0;" parent="T3wQ4acbohLQeAf4zLge-1" target="e4yuiqqUa7OBExsKw5T6-20" edge="1">
          <mxGeometry width="50" height="50" relative="1" as="geometry">
            <mxPoint x="535" y="1605" as="sourcePoint" />
            <mxPoint x="580" y="1575" as="targetPoint" />
          </mxGeometry>
        </mxCell>
        <mxCell id="e4yuiqqUa7OBExsKw5T6-39" value="" style="endArrow=classic;startArrow=classic;html=1;rounded=0;fontFamily=Helvetica;fontSize=12;fontColor=#FF3333;strokeColor=#000000;entryX=0.75;entryY=1;entryDx=0;entryDy=0;exitX=0;exitY=0.25;exitDx=0;exitDy=0;" parent="T3wQ4acbohLQeAf4zLge-1" source="e4yuiqqUa7OBExsKw5T6-37" target="e4yuiqqUa7OBExsKw5T6-14" edge="1">
          <mxGeometry width="50" height="50" relative="1" as="geometry">
            <mxPoint x="440" y="1635" as="sourcePoint" />
            <mxPoint x="490" y="1585" as="targetPoint" />
            <Array as="points">
              <mxPoint x="428" y="1623" />
            </Array>
          </mxGeometry>
        </mxCell>
        <mxCell id="e4yuiqqUa7OBExsKw5T6-40" value="&lt;font color=&quot;#0000ff&quot;&gt;9002&lt;br&gt;退款关闭&lt;br&gt;&lt;/font&gt;" style="whiteSpace=wrap;html=1;aspect=fixed;labelBackgroundColor=none;fontFamily=Helvetica;fontSize=12;strokeWidth=1;fillColor=#fff2cc;strokeColor=#d6b656;" parent="T3wQ4acbohLQeAf4zLge-1" vertex="1">
          <mxGeometry x="500" y="1715" width="70" height="70" as="geometry" />
        </mxCell>
        <mxCell id="e4yuiqqUa7OBExsKw5T6-42" value="&lt;font color=&quot;#0000ff&quot;&gt;2002&lt;br&gt;服务中止&lt;br&gt;&lt;/font&gt;" style="whiteSpace=wrap;html=1;aspect=fixed;labelBackgroundColor=none;fontFamily=Helvetica;fontSize=12;fontColor=#333333;strokeWidth=1;fillColor=#f5f5f5;strokeColor=#666666;" parent="T3wQ4acbohLQeAf4zLge-1" vertex="1">
          <mxGeometry x="603" y="1612" width="70" height="70" as="geometry" />
        </mxCell>
        <mxCell id="e4yuiqqUa7OBExsKw5T6-48" value="月嫂首尾款订单" style="text;html=1;strokeColor=none;fillColor=none;align=center;verticalAlign=middle;whiteSpace=wrap;rounded=0;labelBackgroundColor=none;fontFamily=Helvetica;fontSize=12;fontColor=#FF3333;" parent="T3wQ4acbohLQeAf4zLge-1" vertex="1">
          <mxGeometry x="627" y="1582" width="60" height="30" as="geometry" />
        </mxCell>
        <mxCell id="iYG5_1s-Tv-2Olf-WNrP-5" value="" style="endArrow=classic;startArrow=classic;html=1;rounded=0;entryX=0.25;entryY=0;entryDx=0;entryDy=0;strokeColor=#FF3333;" parent="T3wQ4acbohLQeAf4zLge-1" target="e4yuiqqUa7OBExsKw5T6-42" edge="1">
          <mxGeometry width="50" height="50" relative="1" as="geometry">
            <mxPoint x="547" y="1575" as="sourcePoint" />
            <mxPoint x="657" y="1674" as="targetPoint" />
            <Array as="points">
              <mxPoint x="547" y="1592" />
              <mxPoint x="622" y="1592" />
            </Array>
          </mxGeometry>
        </mxCell>
        <mxCell id="xcZ_hmNgE5VOip_oZ6rO-3" value="" style="edgeStyle=orthogonalEdgeStyle;rounded=0;orthogonalLoop=1;jettySize=auto;html=1;strokeColor=#000000;" parent="T3wQ4acbohLQeAf4zLge-1" source="xcZ_hmNgE5VOip_oZ6rO-0" target="xcZ_hmNgE5VOip_oZ6rO-2" edge="1">
          <mxGeometry relative="1" as="geometry" />
        </mxCell>
        <mxCell id="xcZ_hmNgE5VOip_oZ6rO-0" value="&lt;span style=&quot;color: rgb(50 , 50 , 50) ; font-size: 13px ; background-color: rgba(255 , 255 , 255 , 0.01)&quot;&gt;支付订单&lt;br&gt;&lt;/span&gt;" style="rounded=0;whiteSpace=wrap;html=1;strokeWidth=1;" parent="T3wQ4acbohLQeAf4zLge-1" vertex="1">
          <mxGeometry x="1321.5" y="1169" width="120" height="30" as="geometry" />
        </mxCell>
        <mxCell id="xcZ_hmNgE5VOip_oZ6rO-5" value="" style="edgeStyle=orthogonalEdgeStyle;rounded=0;orthogonalLoop=1;jettySize=auto;html=1;strokeColor=#000000;" parent="T3wQ4acbohLQeAf4zLge-1" source="xcZ_hmNgE5VOip_oZ6rO-2" target="xcZ_hmNgE5VOip_oZ6rO-4" edge="1">
          <mxGeometry relative="1" as="geometry" />
        </mxCell>
        <mxCell id="LQp-TOS6l6jIE_p288gQ-1" value="" style="edgeStyle=orthogonalEdgeStyle;rounded=0;orthogonalLoop=1;jettySize=auto;html=1;" parent="T3wQ4acbohLQeAf4zLge-1" source="xcZ_hmNgE5VOip_oZ6rO-2" target="LQp-TOS6l6jIE_p288gQ-0" edge="1">
          <mxGeometry relative="1" as="geometry" />
        </mxCell>
        <mxCell id="xcZ_hmNgE5VOip_oZ6rO-2" value="&lt;span style=&quot;color: rgb(50 , 50 , 50) ; font-size: 13px ; background-color: rgba(255 , 255 , 255 , 0.01)&quot;&gt;上户服务&lt;br&gt;&lt;/span&gt;" style="rounded=0;whiteSpace=wrap;html=1;strokeWidth=1;" parent="T3wQ4acbohLQeAf4zLge-1" vertex="1">
          <mxGeometry x="1322" y="1225" width="120" height="30" as="geometry" />
        </mxCell>
        <mxCell id="xcZ_hmNgE5VOip_oZ6rO-7" value="" style="edgeStyle=orthogonalEdgeStyle;rounded=0;orthogonalLoop=1;jettySize=auto;html=1;strokeColor=#000000;" parent="T3wQ4acbohLQeAf4zLge-1" source="xcZ_hmNgE5VOip_oZ6rO-4" target="xcZ_hmNgE5VOip_oZ6rO-6" edge="1">
          <mxGeometry relative="1" as="geometry" />
        </mxCell>
        <mxCell id="xcZ_hmNgE5VOip_oZ6rO-4" value="&lt;span style=&quot;color: rgb(50 , 50 , 50) ; font-size: 13px ; background-color: rgba(255 , 255 , 255 , 0.01)&quot;&gt;服务完成&lt;br&gt;&lt;/span&gt;" style="rounded=0;whiteSpace=wrap;html=1;strokeWidth=1;" parent="T3wQ4acbohLQeAf4zLge-1" vertex="1">
          <mxGeometry x="1321.5" y="1281" width="120" height="30" as="geometry" />
        </mxCell>
        <mxCell id="xcZ_hmNgE5VOip_oZ6rO-6" value="&lt;span style=&quot;color: rgb(50 , 50 , 50) ; font-size: 13px ; background-color: rgba(255 , 255 , 255 , 0.01)&quot;&gt;评价&lt;br&gt;&lt;/span&gt;" style="rounded=0;whiteSpace=wrap;html=1;strokeWidth=1;" parent="T3wQ4acbohLQeAf4zLge-1" vertex="1">
          <mxGeometry x="1321.5" y="1337" width="120" height="30" as="geometry" />
        </mxCell>
        <mxCell id="xcZ_hmNgE5VOip_oZ6rO-33" value="" style="group" parent="T3wQ4acbohLQeAf4zLge-1" vertex="1" connectable="0">
          <mxGeometry x="752" y="254" width="438" height="1178" as="geometry" />
        </mxCell>
        <mxCell id="xcZ_hmNgE5VOip_oZ6rO-8" value="&lt;span style=&quot;color: rgba(0 , 0 , 0 , 0) ; font-family: monospace ; font-size: 0px&quot;&gt;%3CmxGraphModel%3E%3Croot%3E%3CmxCell%20id%3D%220%22%2F%3E%3CmxCell%20id%3D%221%22%20parent%3D%220%22%2F%3E%3CmxCell%20id%3D%222%22%20value%3D%22%22%20style%3D%22group%22%20vertex%3D%221%22%20connectable%3D%220%22%20parent%3D%221%22%3E%3CmxGeometry%20x%3D%22833%22%20y%3D%22884%22%20width%3D%22130%22%20height%3D%2250%22%20as%3D%22geometry%22%2F%3E%3C%2FmxCell%3E%3CmxCell%20id%3D%223%22%20value%3D%22db58_hyjiatingfuwu_t_jtfw_operate_log%22%20style%3D%22text%3Bhtml%3D1%3BstrokeColor%3Dnone%3BfillColor%3Dnone%3Balign%3Dcenter%3BverticalAlign%3Dmiddle%3BwhiteSpace%3Dwrap%3Brounded%3D0%3BlabelBackgroundColor%3Dnone%3BfontFamily%3DHelvetica%3BfontSize%3D12%3BfontColor%3D%230000FF%3B%22%20vertex%3D%221%22%20parent%3D%222%22%3E%3CmxGeometry%20x%3D%2245%22%20y%3D%2220%22%20width%3D%2260%22%20height%3D%2230%22%20as%3D%22geometry%22%2F%3E%3C%2FmxCell%3E%3CmxCell%20id%3D%224%22%20value%3D%22%E5%AE%B6%E5%BA%AD%E6%9C%8D%E5%8A%A1%E6%93%8D%E4%BD%9C%E6%97%A5%E5%BF%97%E8%A1%A8%22%20style%3D%22text%3Bhtml%3D1%3BstrokeColor%3Dnone%3BfillColor%3Dnone%3Balign%3Dcenter%3BverticalAlign%3Dmiddle%3BwhiteSpace%3Dwrap%3Brounded%3D0%3BlabelBackgroundColor%3Dnone%3BfontFamily%3DHelvetica%3BfontSize%3D12%3BfontColor%3D%23000000%3B%22%20vertex%3D%221%22%20parent%3D%222%22%3E%3CmxGeometry%20width%3D%22130%22%20height%3D%2230%22%20as%3D%22geometry%22%2F%3E%3C%2FmxCell%3E%3C%2Froot%3E%3C%2FmxGraphModel%3E&lt;/span&gt;" style="rounded=0;whiteSpace=wrap;html=1;labelBackgroundColor=none;fontFamily=Helvetica;fontSize=12;fillColor=#fff2cc;strokeColor=#d6b656;" parent="xcZ_hmNgE5VOip_oZ6rO-33" vertex="1">
          <mxGeometry y="834" width="320.1185185185185" height="304" as="geometry" />
        </mxCell>
        <mxCell id="7kCQT9pWkkyVaMc0LGde-81" value="" style="rounded=0;whiteSpace=wrap;html=1;labelBackgroundColor=none;fontFamily=Helvetica;fontSize=12;fillColor=#d5e8d4;strokeColor=#82b366;" parent="xcZ_hmNgE5VOip_oZ6rO-33" vertex="1">
          <mxGeometry y="210" width="320.1185185185185" height="70" as="geometry" />
        </mxCell>
        <mxCell id="7kCQT9pWkkyVaMc0LGde-75" value="" style="rounded=0;whiteSpace=wrap;html=1;fontFamily=Helvetica;fontSize=12;fillColor=#fff2cc;labelBackgroundColor=#FFF2CC;strokeColor=#d6b656;" parent="xcZ_hmNgE5VOip_oZ6rO-33" vertex="1">
          <mxGeometry width="320.1185185185185" height="210" as="geometry" />
        </mxCell>
        <mxCell id="7kCQT9pWkkyVaMc0LGde-84" value="" style="rounded=0;whiteSpace=wrap;html=1;labelBackgroundColor=none;fontFamily=Helvetica;fontSize=12;fillColor=#dae8fc;strokeColor=#6c8ebf;" parent="xcZ_hmNgE5VOip_oZ6rO-33" vertex="1">
          <mxGeometry y="280" width="320.1185185185185" height="80" as="geometry" />
        </mxCell>
        <mxCell id="7kCQT9pWkkyVaMc0LGde-107" value="" style="rounded=0;whiteSpace=wrap;html=1;labelBackgroundColor=none;fontFamily=Helvetica;fontSize=12;fillColor=#e1d5e7;strokeColor=#9673a6;" parent="xcZ_hmNgE5VOip_oZ6rO-33" vertex="1">
          <mxGeometry y="360" width="320.1185185185185" height="90" as="geometry" />
        </mxCell>
        <mxCell id="7kCQT9pWkkyVaMc0LGde-115" value="" style="rounded=0;whiteSpace=wrap;html=1;labelBackgroundColor=none;fontFamily=Helvetica;fontSize=12;fillColor=#f8cecc;strokeColor=#b85450;" parent="xcZ_hmNgE5VOip_oZ6rO-33" vertex="1">
          <mxGeometry y="450" width="320.1185185185185" height="384" as="geometry" />
        </mxCell>
        <mxCell id="7kCQT9pWkkyVaMc0LGde-77" value="前端流量表" style="text;html=1;strokeColor=none;fillColor=none;align=center;verticalAlign=middle;whiteSpace=wrap;rounded=0;fontFamily=Helvetica;fontSize=12;fontColor=default;" parent="T3wQ4acbohLQeAf4zLge-1" vertex="1">
          <mxGeometry x="858" y="344" width="100" height="30" as="geometry" />
        </mxCell>
        <mxCell id="7kCQT9pWkkyVaMc0LGde-79" value="用户需求表" style="text;html=1;strokeColor=none;fillColor=none;align=center;verticalAlign=middle;whiteSpace=wrap;rounded=0;fontFamily=Helvetica;fontSize=12;fontColor=default;" parent="T3wQ4acbohLQeAf4zLge-1" vertex="1">
          <mxGeometry x="858" y="474" width="100" height="30" as="geometry" />
        </mxCell>
        <mxCell id="7kCQT9pWkkyVaMc0LGde-82" value="&lt;font color=&quot;#0000ff&quot;&gt;hdp_lbg_data_mart.dwd_jtfw_flow_detail&lt;/font&gt;" style="text;html=1;strokeColor=none;fillColor=none;align=center;verticalAlign=middle;whiteSpace=wrap;rounded=0;labelBackgroundColor=none;fontFamily=Helvetica;fontSize=12;fontColor=default;" parent="T3wQ4acbohLQeAf4zLge-1" vertex="1">
          <mxGeometry x="888" y="364" width="60" height="30" as="geometry" />
        </mxCell>
        <mxCell id="7kCQT9pWkkyVaMc0LGde-83" value="&lt;div&gt;db58_hyjiatingfuwu_&lt;/div&gt;&lt;div&gt;t_jtfw_customer_user_demand&amp;nbsp;&lt;/div&gt;" style="text;html=1;strokeColor=none;fillColor=none;align=center;verticalAlign=middle;whiteSpace=wrap;rounded=0;labelBackgroundColor=none;fontFamily=Helvetica;fontSize=12;fontColor=#0000FF;" parent="T3wQ4acbohLQeAf4zLge-1" vertex="1">
          <mxGeometry x="878" y="494" width="60" height="30" as="geometry" />
        </mxCell>
        <mxCell id="7kCQT9pWkkyVaMc0LGde-101" value="" style="group" parent="T3wQ4acbohLQeAf4zLge-1" vertex="1" connectable="0">
          <mxGeometry x="878" y="534" width="70" height="87" as="geometry" />
        </mxCell>
        <mxCell id="7kCQT9pWkkyVaMc0LGde-86" value="客户表" style="text;html=1;strokeColor=none;fillColor=none;align=center;verticalAlign=middle;whiteSpace=wrap;rounded=0;labelBackgroundColor=none;fontFamily=Helvetica;fontSize=12;fontColor=#000000;" parent="7kCQT9pWkkyVaMc0LGde-101" vertex="1">
          <mxGeometry width="60" height="30" as="geometry" />
        </mxCell>
        <mxCell id="7kCQT9pWkkyVaMc0LGde-100" value="db58_hyjiatingfuwu_t_jtfw_customer&amp;nbsp;" style="text;html=1;strokeColor=none;fillColor=none;align=center;verticalAlign=middle;whiteSpace=wrap;rounded=0;labelBackgroundColor=none;fontFamily=Helvetica;fontSize=12;fontColor=#0000FF;" parent="7kCQT9pWkkyVaMc0LGde-101" vertex="1">
          <mxGeometry y="20" width="60" height="30" as="geometry" />
        </mxCell>
        <mxCell id="7kCQT9pWkkyVaMc0LGde-103" value="" style="group" parent="7kCQT9pWkkyVaMc0LGde-101" vertex="1" connectable="0">
          <mxGeometry x="-10" y="40" width="80" height="47" as="geometry" />
        </mxCell>
        <mxCell id="7kCQT9pWkkyVaMc0LGde-90" value="客户需求表" style="text;html=1;strokeColor=none;fillColor=none;align=center;verticalAlign=middle;whiteSpace=wrap;rounded=0;labelBackgroundColor=none;fontFamily=Helvetica;fontSize=12;fontColor=#000000;" parent="7kCQT9pWkkyVaMc0LGde-103" vertex="1">
          <mxGeometry width="80" height="30" as="geometry" />
        </mxCell>
        <mxCell id="7kCQT9pWkkyVaMc0LGde-102" value="db58_hyjiatingfuwu_t_jtfw_customer_demand&amp;nbsp;" style="text;html=1;strokeColor=none;fillColor=none;align=center;verticalAlign=middle;whiteSpace=wrap;rounded=0;labelBackgroundColor=none;fontFamily=Helvetica;fontSize=12;fontColor=#0000FF;" parent="7kCQT9pWkkyVaMc0LGde-103" vertex="1">
          <mxGeometry x="10" y="17" width="60" height="30" as="geometry" />
        </mxCell>
        <mxCell id="7kCQT9pWkkyVaMc0LGde-110" value="" style="group" parent="T3wQ4acbohLQeAf4zLge-1" vertex="1" connectable="0">
          <mxGeometry x="823" y="614" width="170" height="90" as="geometry" />
        </mxCell>
        <mxCell id="7kCQT9pWkkyVaMc0LGde-108" value="&lt;font color=&quot;#000000&quot;&gt;用户扩展表_直接下发经纪人&lt;/font&gt;" style="text;html=1;strokeColor=none;fillColor=none;align=center;verticalAlign=middle;whiteSpace=wrap;rounded=0;labelBackgroundColor=none;fontFamily=Helvetica;fontSize=12;fontColor=#0000FF;" parent="7kCQT9pWkkyVaMc0LGde-110" vertex="1">
          <mxGeometry width="170" height="30" as="geometry" />
        </mxCell>
        <mxCell id="7kCQT9pWkkyVaMc0LGde-109" value="&lt;font color=&quot;#0000ff&quot;&gt;&amp;nbsp;db58_hyjiatingfuwu_t_jtfw_user_extend_info&lt;/font&gt;" style="text;html=1;strokeColor=none;fillColor=none;align=center;verticalAlign=middle;whiteSpace=wrap;rounded=0;labelBackgroundColor=none;fontFamily=Helvetica;fontSize=12;fontColor=#000000;" parent="7kCQT9pWkkyVaMc0LGde-110" vertex="1">
          <mxGeometry x="55" y="20" width="60" height="30" as="geometry" />
        </mxCell>
        <mxCell id="7kCQT9pWkkyVaMc0LGde-113" value="" style="group" parent="7kCQT9pWkkyVaMc0LGde-110" vertex="1" connectable="0">
          <mxGeometry x="20" y="40" width="130" height="50" as="geometry" />
        </mxCell>
        <mxCell id="7kCQT9pWkkyVaMc0LGde-111" value="db58_hyjiatingfuwu_t_jtfw_crm_customer_extend_info" style="text;html=1;strokeColor=none;fillColor=none;align=center;verticalAlign=middle;whiteSpace=wrap;rounded=0;labelBackgroundColor=none;fontFamily=Helvetica;fontSize=12;fontColor=#0000FF;" parent="7kCQT9pWkkyVaMc0LGde-113" vertex="1">
          <mxGeometry x="45" y="20" width="60" height="30" as="geometry" />
        </mxCell>
        <mxCell id="7kCQT9pWkkyVaMc0LGde-112" value="家庭服务_客户扩展表" style="text;html=1;strokeColor=none;fillColor=none;align=center;verticalAlign=middle;whiteSpace=wrap;rounded=0;labelBackgroundColor=none;fontFamily=Helvetica;fontSize=12;fontColor=#000000;" parent="7kCQT9pWkkyVaMc0LGde-113" vertex="1">
          <mxGeometry width="130" height="30" as="geometry" />
        </mxCell>
        <mxCell id="7kCQT9pWkkyVaMc0LGde-117" value="家庭服务（saas）客户需求跟进表" style="text;html=1;strokeColor=none;fillColor=none;align=center;verticalAlign=middle;whiteSpace=wrap;rounded=0;labelBackgroundColor=none;fontFamily=Helvetica;fontSize=12;fontColor=#000000;" parent="T3wQ4acbohLQeAf4zLge-1" vertex="1">
          <mxGeometry x="813" y="714" width="190" height="30" as="geometry" />
        </mxCell>
        <mxCell id="7kCQT9pWkkyVaMc0LGde-118" value="db58_hyjiatingfuwu_t_jtfw_follow" style="text;html=1;strokeColor=none;fillColor=none;align=center;verticalAlign=middle;whiteSpace=wrap;rounded=0;labelBackgroundColor=none;fontFamily=Helvetica;fontSize=12;fontColor=#0000FF;" parent="T3wQ4acbohLQeAf4zLge-1" vertex="1">
          <mxGeometry x="878" y="734" width="60" height="30" as="geometry" />
        </mxCell>
        <mxCell id="7kCQT9pWkkyVaMc0LGde-119" value="&lt;font color=&quot;#000000&quot;&gt;话单表&lt;/font&gt;" style="text;html=1;strokeColor=none;fillColor=none;align=center;verticalAlign=middle;whiteSpace=wrap;rounded=0;labelBackgroundColor=none;fontFamily=Helvetica;fontSize=12;fontColor=#0000FF;" parent="T3wQ4acbohLQeAf4zLge-1" vertex="1">
          <mxGeometry x="868" y="774" width="60" height="30" as="geometry" />
        </mxCell>
        <mxCell id="7kCQT9pWkkyVaMc0LGde-120" value="&lt;font color=&quot;#0000ff&quot;&gt;t_d_linkplatform_phoneandcall_info&amp;nbsp;&lt;/font&gt;" style="text;html=1;strokeColor=none;fillColor=none;align=center;verticalAlign=middle;whiteSpace=wrap;rounded=0;labelBackgroundColor=none;fontFamily=Helvetica;fontSize=12;fontColor=#000000;" parent="T3wQ4acbohLQeAf4zLge-1" vertex="1">
          <mxGeometry x="868" y="794" width="60" height="30" as="geometry" />
        </mxCell>
        <mxCell id="7kCQT9pWkkyVaMc0LGde-122" value="&lt;font color=&quot;#000000&quot;&gt;公海客户信息表&lt;/font&gt;" style="text;html=1;strokeColor=none;fillColor=none;align=center;verticalAlign=middle;whiteSpace=wrap;rounded=0;labelBackgroundColor=none;fontFamily=Helvetica;fontSize=12;fontColor=#0000FF;" parent="T3wQ4acbohLQeAf4zLge-1" vertex="1">
          <mxGeometry x="813" y="844" width="170" height="30" as="geometry" />
        </mxCell>
        <mxCell id="7kCQT9pWkkyVaMc0LGde-123" value="&lt;font color=&quot;#0000ff&quot;&gt;&amp;nbsp;db58_hyjiatingfuwu_t_jtfw_customer_common_data&lt;/font&gt;" style="text;html=1;strokeColor=none;fillColor=none;align=center;verticalAlign=middle;whiteSpace=wrap;rounded=0;labelBackgroundColor=none;fontFamily=Helvetica;fontSize=12;fontColor=#000000;" parent="T3wQ4acbohLQeAf4zLge-1" vertex="1">
          <mxGeometry x="878" y="859" width="60" height="30" as="geometry" />
        </mxCell>
        <mxCell id="7kCQT9pWkkyVaMc0LGde-124" value="" style="group" parent="T3wQ4acbohLQeAf4zLge-1" vertex="1" connectable="0">
          <mxGeometry x="833" y="884" width="130" height="50" as="geometry" />
        </mxCell>
        <mxCell id="7kCQT9pWkkyVaMc0LGde-125" value="db58_hyjiatingfuwu_t_jtfw_operate_log" style="text;html=1;strokeColor=none;fillColor=none;align=center;verticalAlign=middle;whiteSpace=wrap;rounded=0;labelBackgroundColor=none;fontFamily=Helvetica;fontSize=12;fontColor=#0000FF;" parent="7kCQT9pWkkyVaMc0LGde-124" vertex="1">
          <mxGeometry x="45" y="20" width="60" height="30" as="geometry" />
        </mxCell>
        <mxCell id="7kCQT9pWkkyVaMc0LGde-126" value="家庭服务操作日志表" style="text;html=1;strokeColor=none;fillColor=none;align=center;verticalAlign=middle;whiteSpace=wrap;rounded=0;labelBackgroundColor=none;fontFamily=Helvetica;fontSize=12;fontColor=#000000;" parent="7kCQT9pWkkyVaMc0LGde-124" vertex="1">
          <mxGeometry width="130" height="30" as="geometry" />
        </mxCell>
        <mxCell id="xcZ_hmNgE5VOip_oZ6rO-12" value="" style="group" parent="T3wQ4acbohLQeAf4zLge-1" vertex="1" connectable="0">
          <mxGeometry x="836" y="1095" width="130" height="50" as="geometry" />
        </mxCell>
        <mxCell id="xcZ_hmNgE5VOip_oZ6rO-13" value="dwd_jtfw_order_detail" style="text;html=1;strokeColor=none;fillColor=none;align=center;verticalAlign=middle;whiteSpace=wrap;rounded=0;labelBackgroundColor=none;fontFamily=Helvetica;fontSize=12;fontColor=#0000FF;" parent="xcZ_hmNgE5VOip_oZ6rO-12" vertex="1">
          <mxGeometry x="45" y="20" width="60" height="30" as="geometry" />
        </mxCell>
        <mxCell id="xcZ_hmNgE5VOip_oZ6rO-14" value="家庭服务订单表" style="text;html=1;strokeColor=none;fillColor=none;align=center;verticalAlign=middle;whiteSpace=wrap;rounded=0;labelBackgroundColor=none;fontFamily=Helvetica;fontSize=12;fontColor=#000000;" parent="xcZ_hmNgE5VOip_oZ6rO-12" vertex="1">
          <mxGeometry width="130" height="30" as="geometry" />
        </mxCell>
        <mxCell id="xcZ_hmNgE5VOip_oZ6rO-15" value="" style="group" parent="T3wQ4acbohLQeAf4zLge-1" vertex="1" connectable="0">
          <mxGeometry x="836" y="1145" width="130" height="50" as="geometry" />
        </mxCell>
        <mxCell id="xcZ_hmNgE5VOip_oZ6rO-16" value="db58_hy_pay_order_db_t_bm_refund_order" style="text;html=1;strokeColor=none;fillColor=none;align=center;verticalAlign=middle;whiteSpace=wrap;rounded=0;labelBackgroundColor=none;fontFamily=Helvetica;fontSize=12;fontColor=#0000FF;" parent="xcZ_hmNgE5VOip_oZ6rO-15" vertex="1">
          <mxGeometry x="45" y="20" width="60" height="30" as="geometry" />
        </mxCell>
        <mxCell id="xcZ_hmNgE5VOip_oZ6rO-17" value="退单表" style="text;html=1;strokeColor=none;fillColor=none;align=center;verticalAlign=middle;whiteSpace=wrap;rounded=0;labelBackgroundColor=none;fontFamily=Helvetica;fontSize=12;fontColor=#000000;" parent="xcZ_hmNgE5VOip_oZ6rO-15" vertex="1">
          <mxGeometry width="130" height="30" as="geometry" />
        </mxCell>
        <mxCell id="xcZ_hmNgE5VOip_oZ6rO-21" value="" style="group" parent="T3wQ4acbohLQeAf4zLge-1" vertex="1" connectable="0">
          <mxGeometry x="833" y="1190" width="130" height="50" as="geometry" />
        </mxCell>
        <mxCell id="xcZ_hmNgE5VOip_oZ6rO-22" value="db58_hyjiatingfuwu_t_jtfw_contract_addition&amp;nbsp;" style="text;html=1;strokeColor=none;fillColor=none;align=center;verticalAlign=middle;whiteSpace=wrap;rounded=0;labelBackgroundColor=none;fontFamily=Helvetica;fontSize=12;fontColor=#0000FF;" parent="xcZ_hmNgE5VOip_oZ6rO-21" vertex="1">
          <mxGeometry x="45" y="20" width="60" height="30" as="geometry" />
        </mxCell>
        <mxCell id="xcZ_hmNgE5VOip_oZ6rO-23" value="合同表" style="text;html=1;strokeColor=none;fillColor=none;align=center;verticalAlign=middle;whiteSpace=wrap;rounded=0;labelBackgroundColor=none;fontFamily=Helvetica;fontSize=12;fontColor=#000000;" parent="xcZ_hmNgE5VOip_oZ6rO-21" vertex="1">
          <mxGeometry width="130" height="30" as="geometry" />
        </mxCell>
        <mxCell id="xcZ_hmNgE5VOip_oZ6rO-24" value="" style="group" parent="T3wQ4acbohLQeAf4zLge-1" vertex="1" connectable="0">
          <mxGeometry x="834" y="1237" width="130" height="50" as="geometry" />
        </mxCell>
        <mxCell id="xcZ_hmNgE5VOip_oZ6rO-25" value="db58_hy_pay_order_db_t_bm_settle_accounts" style="text;html=1;strokeColor=none;fillColor=none;align=center;verticalAlign=middle;whiteSpace=wrap;rounded=0;labelBackgroundColor=none;fontFamily=Helvetica;fontSize=12;fontColor=#0000FF;" parent="xcZ_hmNgE5VOip_oZ6rO-24" vertex="1">
          <mxGeometry x="45" y="20" width="60" height="30" as="geometry" />
        </mxCell>
        <mxCell id="xcZ_hmNgE5VOip_oZ6rO-26" value="结算表" style="text;html=1;strokeColor=none;fillColor=none;align=center;verticalAlign=middle;whiteSpace=wrap;rounded=0;labelBackgroundColor=none;fontFamily=Helvetica;fontSize=12;fontColor=#000000;" parent="xcZ_hmNgE5VOip_oZ6rO-24" vertex="1">
          <mxGeometry width="130" height="30" as="geometry" />
        </mxCell>
        <mxCell id="xcZ_hmNgE5VOip_oZ6rO-27" value="" style="group" parent="T3wQ4acbohLQeAf4zLge-1" vertex="1" connectable="0">
          <mxGeometry x="833" y="1288" width="130" height="50" as="geometry" />
        </mxCell>
        <mxCell id="xcZ_hmNgE5VOip_oZ6rO-28" value="db58_hy_pay_order_db_t_bm_pay_vouchers" style="text;html=1;strokeColor=none;fillColor=none;align=center;verticalAlign=middle;whiteSpace=wrap;rounded=0;labelBackgroundColor=none;fontFamily=Helvetica;fontSize=12;fontColor=#0000FF;" parent="xcZ_hmNgE5VOip_oZ6rO-27" vertex="1">
          <mxGeometry x="45" y="20" width="60" height="30" as="geometry" />
        </mxCell>
        <mxCell id="xcZ_hmNgE5VOip_oZ6rO-29" value="支付凭证表" style="text;html=1;strokeColor=none;fillColor=none;align=center;verticalAlign=middle;whiteSpace=wrap;rounded=0;labelBackgroundColor=none;fontFamily=Helvetica;fontSize=12;fontColor=#000000;" parent="xcZ_hmNgE5VOip_oZ6rO-27" vertex="1">
          <mxGeometry width="130" height="30" as="geometry" />
        </mxCell>
        <mxCell id="xcZ_hmNgE5VOip_oZ6rO-30" value="" style="group" parent="T3wQ4acbohLQeAf4zLge-1" vertex="1" connectable="0">
          <mxGeometry x="833" y="1334" width="130" height="50" as="geometry" />
        </mxCell>
        <mxCell id="xcZ_hmNgE5VOip_oZ6rO-31" value="o_ba_gaap_detail_daily_lbg" style="text;html=1;strokeColor=none;fillColor=none;align=center;verticalAlign=middle;whiteSpace=wrap;rounded=0;labelBackgroundColor=none;fontFamily=Helvetica;fontSize=12;fontColor=#0000FF;" parent="xcZ_hmNgE5VOip_oZ6rO-30" vertex="1">
          <mxGeometry x="45" y="20" width="60" height="30" as="geometry" />
        </mxCell>
        <mxCell id="xcZ_hmNgE5VOip_oZ6rO-32" value="抽佣表" style="text;html=1;strokeColor=none;fillColor=none;align=center;verticalAlign=middle;whiteSpace=wrap;rounded=0;labelBackgroundColor=none;fontFamily=Helvetica;fontSize=12;fontColor=#000000;" parent="xcZ_hmNgE5VOip_oZ6rO-30" vertex="1">
          <mxGeometry width="130" height="30" as="geometry" />
        </mxCell>
        <mxCell id="bALyorS04zq3nQS6joQn-1" value="家庭服务业务流程概览" style="text;html=1;strokeColor=none;fillColor=none;align=center;verticalAlign=middle;whiteSpace=wrap;rounded=0;" parent="T3wQ4acbohLQeAf4zLge-1" vertex="1">
          <mxGeometry x="80" y="179" width="139" height="30" as="geometry" />
        </mxCell>
        <mxCell id="D2g2FwJ4TqBliL5hNFfS-23" value="" style="edgeStyle=orthogonalEdgeStyle;rounded=0;orthogonalLoop=1;jettySize=auto;html=1;strokeColor=#000000;" parent="T3wQ4acbohLQeAf4zLge-1" source="D2g2FwJ4TqBliL5hNFfS-21" target="D2g2FwJ4TqBliL5hNFfS-22" edge="1">
          <mxGeometry relative="1" as="geometry" />
        </mxCell>
        <mxCell id="D2g2FwJ4TqBliL5hNFfS-21" value="用户发布需求" style="rounded=0;whiteSpace=wrap;html=1;" parent="T3wQ4acbohLQeAf4zLge-1" vertex="1">
          <mxGeometry x="81" y="231.5" width="98" height="45" as="geometry" />
        </mxCell>
        <mxCell id="D2g2FwJ4TqBliL5hNFfS-25" value="" style="edgeStyle=orthogonalEdgeStyle;rounded=0;orthogonalLoop=1;jettySize=auto;html=1;strokeColor=#000000;" parent="T3wQ4acbohLQeAf4zLge-1" source="D2g2FwJ4TqBliL5hNFfS-22" target="D2g2FwJ4TqBliL5hNFfS-24" edge="1">
          <mxGeometry relative="1" as="geometry" />
        </mxCell>
        <mxCell id="D2g2FwJ4TqBliL5hNFfS-22" value="平台下发需求" style="rounded=0;whiteSpace=wrap;html=1;" parent="T3wQ4acbohLQeAf4zLge-1" vertex="1">
          <mxGeometry x="224" y="231" width="107" height="46" as="geometry" />
        </mxCell>
        <mxCell id="D2g2FwJ4TqBliL5hNFfS-27" value="" style="edgeStyle=orthogonalEdgeStyle;rounded=0;orthogonalLoop=1;jettySize=auto;html=1;strokeColor=#000000;" parent="T3wQ4acbohLQeAf4zLge-1" source="D2g2FwJ4TqBliL5hNFfS-24" target="D2g2FwJ4TqBliL5hNFfS-26" edge="1">
          <mxGeometry relative="1" as="geometry" />
        </mxCell>
        <mxCell id="D2g2FwJ4TqBliL5hNFfS-24" value="分配经纪人" style="rounded=0;whiteSpace=wrap;html=1;" parent="T3wQ4acbohLQeAf4zLge-1" vertex="1">
          <mxGeometry x="384" y="230" width="109" height="46.5" as="geometry" />
        </mxCell>
        <mxCell id="D2g2FwJ4TqBliL5hNFfS-29" style="edgeStyle=orthogonalEdgeStyle;rounded=0;orthogonalLoop=1;jettySize=auto;html=1;entryX=1;entryY=0.5;entryDx=0;entryDy=0;strokeColor=#000000;exitX=1;exitY=0.5;exitDx=0;exitDy=0;" parent="T3wQ4acbohLQeAf4zLge-1" source="D2g2FwJ4TqBliL5hNFfS-26" target="D2g2FwJ4TqBliL5hNFfS-28" edge="1">
          <mxGeometry relative="1" as="geometry" />
        </mxCell>
        <mxCell id="D2g2FwJ4TqBliL5hNFfS-26" value="经纪人联系客户，匹配阿姨" style="rounded=0;whiteSpace=wrap;html=1;" parent="T3wQ4acbohLQeAf4zLge-1" vertex="1">
          <mxGeometry x="555" y="231.5" width="120" height="45" as="geometry" />
        </mxCell>
        <mxCell id="D2g2FwJ4TqBliL5hNFfS-31" value="" style="edgeStyle=orthogonalEdgeStyle;rounded=0;orthogonalLoop=1;jettySize=auto;html=1;strokeColor=#000000;" parent="T3wQ4acbohLQeAf4zLge-1" source="D2g2FwJ4TqBliL5hNFfS-28" target="D2g2FwJ4TqBliL5hNFfS-30" edge="1">
          <mxGeometry relative="1" as="geometry" />
        </mxCell>
        <mxCell id="D2g2FwJ4TqBliL5hNFfS-28" value="签单" style="rounded=0;whiteSpace=wrap;html=1;" parent="T3wQ4acbohLQeAf4zLge-1" vertex="1">
          <mxGeometry x="555" y="322.5" width="120" height="47" as="geometry" />
        </mxCell>
        <mxCell id="D2g2FwJ4TqBliL5hNFfS-33" value="" style="edgeStyle=orthogonalEdgeStyle;rounded=0;orthogonalLoop=1;jettySize=auto;html=1;strokeColor=#000000;" parent="T3wQ4acbohLQeAf4zLge-1" source="D2g2FwJ4TqBliL5hNFfS-30" target="D2g2FwJ4TqBliL5hNFfS-32" edge="1">
          <mxGeometry relative="1" as="geometry" />
        </mxCell>
        <mxCell id="D2g2FwJ4TqBliL5hNFfS-30" value="阿姨上门服务" style="rounded=0;whiteSpace=wrap;html=1;" parent="T3wQ4acbohLQeAf4zLge-1" vertex="1">
          <mxGeometry x="384" y="321.5" width="109" height="49" as="geometry" />
        </mxCell>
        <mxCell id="D2g2FwJ4TqBliL5hNFfS-35" value="" style="edgeStyle=orthogonalEdgeStyle;rounded=0;orthogonalLoop=1;jettySize=auto;html=1;strokeColor=#000000;" parent="T3wQ4acbohLQeAf4zLge-1" source="D2g2FwJ4TqBliL5hNFfS-32" target="D2g2FwJ4TqBliL5hNFfS-34" edge="1">
          <mxGeometry relative="1" as="geometry" />
        </mxCell>
        <mxCell id="D2g2FwJ4TqBliL5hNFfS-32" value="服务结束" style="rounded=0;whiteSpace=wrap;html=1;" parent="T3wQ4acbohLQeAf4zLge-1" vertex="1">
          <mxGeometry x="223" y="320.5" width="110" height="51" as="geometry" />
        </mxCell>
        <mxCell id="D2g2FwJ4TqBliL5hNFfS-34" value="用户评价" style="rounded=0;whiteSpace=wrap;html=1;" parent="T3wQ4acbohLQeAf4zLge-1" vertex="1">
          <mxGeometry x="80" y="321.5" width="99" height="49" as="geometry" />
        </mxCell>
        <mxCell id="D2g2FwJ4TqBliL5hNFfS-37" value="用户需求表" style="swimlane;fontStyle=0;childLayout=stackLayout;horizontal=1;startSize=30;horizontalStack=0;resizeParent=1;resizeParentMax=0;resizeLast=0;collapsible=1;marginBottom=0;" parent="T3wQ4acbohLQeAf4zLge-1" vertex="1">
          <mxGeometry x="207" y="438" width="114" height="120" as="geometry" />
        </mxCell>
        <mxCell id="D2g2FwJ4TqBliL5hNFfS-38" value="id" style="text;strokeColor=none;fillColor=none;align=left;verticalAlign=middle;spacingLeft=4;spacingRight=4;overflow=hidden;points=[[0,0.5],[1,0.5]];portConstraint=eastwest;rotatable=0;" parent="D2g2FwJ4TqBliL5hNFfS-37" vertex="1">
          <mxGeometry y="30" width="114" height="30" as="geometry" />
        </mxCell>
        <mxCell id="D2g2FwJ4TqBliL5hNFfS-39" value="customer_id" style="text;strokeColor=none;fillColor=none;align=left;verticalAlign=middle;spacingLeft=4;spacingRight=4;overflow=hidden;points=[[0,0.5],[1,0.5]];portConstraint=eastwest;rotatable=0;" parent="D2g2FwJ4TqBliL5hNFfS-37" vertex="1">
          <mxGeometry y="60" width="114" height="30" as="geometry" />
        </mxCell>
        <mxCell id="D2g2FwJ4TqBliL5hNFfS-59" value="customer_id" style="text;strokeColor=none;fillColor=none;align=left;verticalAlign=middle;spacingLeft=4;spacingRight=4;overflow=hidden;points=[[0,0.5],[1,0.5]];portConstraint=eastwest;rotatable=0;" parent="D2g2FwJ4TqBliL5hNFfS-37" vertex="1">
          <mxGeometry y="90" width="114" height="30" as="geometry" />
        </mxCell>
        <mxCell id="D2g2FwJ4TqBliL5hNFfS-46" value="客户属性表" style="swimlane;fontStyle=0;childLayout=stackLayout;horizontal=1;startSize=30;horizontalStack=0;resizeParent=1;resizeParentMax=0;resizeLast=0;collapsible=1;marginBottom=0;" parent="T3wQ4acbohLQeAf4zLge-1" vertex="1">
          <mxGeometry x="90" y="638" width="114" height="60" as="geometry" />
        </mxCell>
        <mxCell id="D2g2FwJ4TqBliL5hNFfS-47" value="id" style="text;strokeColor=none;fillColor=none;align=left;verticalAlign=middle;spacingLeft=4;spacingRight=4;overflow=hidden;points=[[0,0.5],[1,0.5]];portConstraint=eastwest;rotatable=0;" parent="D2g2FwJ4TqBliL5hNFfS-46" vertex="1">
          <mxGeometry y="30" width="114" height="30" as="geometry" />
        </mxCell>
        <mxCell id="D2g2FwJ4TqBliL5hNFfS-54" value="客户需求表" style="swimlane;fontStyle=0;childLayout=stackLayout;horizontal=1;startSize=30;horizontalStack=0;resizeParent=1;resizeParentMax=0;resizeLast=0;collapsible=1;marginBottom=0;" parent="T3wQ4acbohLQeAf4zLge-1" vertex="1">
          <mxGeometry x="315" y="608" width="160" height="120" as="geometry" />
        </mxCell>
        <mxCell id="D2g2FwJ4TqBliL5hNFfS-55" value="id" style="text;strokeColor=none;fillColor=none;align=left;verticalAlign=middle;spacingLeft=4;spacingRight=4;overflow=hidden;points=[[0,0.5],[1,0.5]];portConstraint=eastwest;rotatable=0;" parent="D2g2FwJ4TqBliL5hNFfS-54" vertex="1">
          <mxGeometry y="30" width="160" height="30" as="geometry" />
        </mxCell>
        <mxCell id="D2g2FwJ4TqBliL5hNFfS-56" value="custome_id" style="text;strokeColor=none;fillColor=none;align=left;verticalAlign=middle;spacingLeft=4;spacingRight=4;overflow=hidden;points=[[0,0.5],[1,0.5]];portConstraint=eastwest;rotatable=0;" parent="D2g2FwJ4TqBliL5hNFfS-54" vertex="1">
          <mxGeometry y="60" width="160" height="30" as="geometry" />
        </mxCell>
        <mxCell id="D2g2FwJ4TqBliL5hNFfS-57" value="customer_user_demand_id" style="text;strokeColor=none;fillColor=none;align=left;verticalAlign=middle;spacingLeft=4;spacingRight=4;overflow=hidden;points=[[0,0.5],[1,0.5]];portConstraint=eastwest;rotatable=0;" parent="D2g2FwJ4TqBliL5hNFfS-54" vertex="1">
          <mxGeometry y="90" width="160" height="30" as="geometry" />
        </mxCell>
        <mxCell id="D2g2FwJ4TqBliL5hNFfS-58" value="" style="endArrow=classic;html=1;rounded=0;strokeColor=#000000;entryX=0;entryY=0.5;entryDx=0;entryDy=0;exitX=0;exitY=0.5;exitDx=0;exitDy=0;" parent="T3wQ4acbohLQeAf4zLge-1" source="D2g2FwJ4TqBliL5hNFfS-47" target="D2g2FwJ4TqBliL5hNFfS-39" edge="1">
          <mxGeometry width="50" height="50" relative="1" as="geometry">
            <mxPoint x="81" y="690" as="sourcePoint" />
            <mxPoint x="131" y="640" as="targetPoint" />
            <Array as="points">
              <mxPoint x="58" y="683" />
              <mxPoint x="58" y="513" />
            </Array>
          </mxGeometry>
        </mxCell>
        <mxCell id="D2g2FwJ4TqBliL5hNFfS-60" value="" style="endArrow=classic;startArrow=classic;html=1;rounded=0;strokeColor=#000000;exitX=1;exitY=0.5;exitDx=0;exitDy=0;" parent="T3wQ4acbohLQeAf4zLge-1" source="D2g2FwJ4TqBliL5hNFfS-47" edge="1">
          <mxGeometry width="50" height="50" relative="1" as="geometry">
            <mxPoint x="517" y="605" as="sourcePoint" />
            <mxPoint x="314" y="682" as="targetPoint" />
          </mxGeometry>
        </mxCell>
        <mxCell id="D2g2FwJ4TqBliL5hNFfS-62" style="edgeStyle=orthogonalEdgeStyle;rounded=0;orthogonalLoop=1;jettySize=auto;html=1;exitX=1;exitY=0.5;exitDx=0;exitDy=0;entryX=1.02;entryY=0.267;entryDx=0;entryDy=0;entryPerimeter=0;strokeColor=#000000;" parent="T3wQ4acbohLQeAf4zLge-1" source="D2g2FwJ4TqBliL5hNFfS-57" target="D2g2FwJ4TqBliL5hNFfS-38" edge="1">
          <mxGeometry relative="1" as="geometry" />
        </mxCell>
        <mxCell id="D2g2FwJ4TqBliL5hNFfS-63" value="&lt;div style=&quot;text-align: left&quot;&gt;&lt;span&gt;用户需求表：&lt;/span&gt;&lt;span style=&quot;font-family: &amp;#34;robotodraft&amp;#34; , &amp;#34;helvetica neue&amp;#34; , &amp;#34;helvetica&amp;#34; , &amp;#34;pingfang sc&amp;#34; , &amp;#34;nimbus sans l&amp;#34; , &amp;#34;arial&amp;#34; , &amp;#34;liberation sans&amp;#34; , &amp;#34;hiragino sans gb&amp;#34; , &amp;#34;sour    ce han sans cn normal&amp;#34; , &amp;#34;microsoft yahei&amp;#34; , &amp;#34;wenquanyi micro hei&amp;#34; , &amp;#34;wenquanyi zen hei&amp;#34; , &amp;#34;st heiti&amp;#34; , &amp;#34;simhei&amp;#34; , &amp;#34;wenquanyi zen hei sharp&amp;#34; , sans-serif ; font-size: 14px ; background-color: rgb(255 , 255 , 255)&quot;&gt;db58_hyjiatingfuwu_t_jtfw_customer_user_demand&lt;/span&gt;&lt;/div&gt;&lt;span style=&quot;font-family: &amp;#34;robotodraft&amp;#34; , &amp;#34;helvetica neue&amp;#34; , &amp;#34;helvetica&amp;#34; , &amp;#34;pingfang sc&amp;#34; , &amp;#34;nimbus sans l&amp;#34; , &amp;#34;arial&amp;#34; , &amp;#34;liberation sans&amp;#34; , &amp;#34;hiragino sans gb&amp;#34; , &amp;#34;sour    ce han sans cn normal&amp;#34; , &amp;#34;microsoft yahei&amp;#34; , &amp;#34;wenquanyi micro hei&amp;#34; , &amp;#34;wenquanyi zen hei&amp;#34; , &amp;#34;st heiti&amp;#34; , &amp;#34;simhei&amp;#34; , &amp;#34;wenquanyi zen hei sharp&amp;#34; , sans-serif ; font-size: 14px ; background-color: rgb(255 , 255 , 255)&quot;&gt;&lt;div style=&quot;text-align: left&quot;&gt;客户表：db58_hyjiatingfuwu_t_jtfw_customer&amp;nbsp;&lt;/div&gt;&lt;/span&gt;&lt;span style=&quot;font-family: &amp;#34;robotodraft&amp;#34; , &amp;#34;helvetica neue&amp;#34; , &amp;#34;helvetica&amp;#34; , &amp;#34;pingfang sc&amp;#34; , &amp;#34;nimbus sans l&amp;#34; , &amp;#34;arial&amp;#34; , &amp;#34;liberation sans&amp;#34; , &amp;#34;hiragino sans gb&amp;#34; , &amp;#34;sour    ce han sans cn normal&amp;#34; , &amp;#34;microsoft yahei&amp;#34; , &amp;#34;wenquanyi micro hei&amp;#34; , &amp;#34;wenquanyi zen hei&amp;#34; , &amp;#34;st heiti&amp;#34; , &amp;#34;simhei&amp;#34; , &amp;#34;wenquanyi zen hei sharp&amp;#34; , sans-serif ; font-size: 14px ; background-color: rgb(255 , 255 , 255)&quot;&gt;&lt;div style=&quot;text-align: left&quot;&gt;客户需求表：db58_hyjiatingfuwu_t_jtfw_customer_demand&amp;nbsp;&lt;/div&gt;&lt;/span&gt;&lt;span style=&quot;background-color: rgb(255 , 255 , 255) ; font-size: 14px&quot;&gt;&lt;div style=&quot;text-align: left&quot;&gt;&lt;font color=&quot;#0092fa&quot; face=&quot;robotodraft, helvetica neue, helvetica, pingfang sc, nimbus sans l, arial, liberation sans, hiragino sans gb, sour    ce han sans cn normal, microsoft yahei, wenquanyi micro hei, wenquanyi zen hei, st heiti, simhei, wenquanyi zen hei sharp, sans-serif&quot;&gt;&lt;br&gt;&lt;/font&gt;&lt;/div&gt;&lt;/span&gt;" style="text;html=1;strokeColor=none;fillColor=none;align=center;verticalAlign=middle;whiteSpace=wrap;rounded=0;" parent="T3wQ4acbohLQeAf4zLge-1" vertex="1">
          <mxGeometry x="45" y="754" width="411" height="77" as="geometry" />
        </mxCell>
        <mxCell id="D2g2FwJ4TqBliL5hNFfS-66" value="1）用户需求表：只包括用户在平台发布的需求，此时还未下发给商家&lt;br&gt;2） 平台将用户需求下发给商家时，将用户需求分为客户属性和客户需求两部分&lt;br&gt;3） 客户属性和客户需求表中既包括平台线索也包括自建线索&lt;br&gt;4） 线索在签单时，若签单用户和线索用户不一致时，会在客户属性表中新增一条关联线索，对应的在客户需求表中新增一条关联需求" style="text;html=1;strokeColor=none;fillColor=none;align=left;verticalAlign=middle;whiteSpace=wrap;rounded=0;fontColor=#000000;" parent="T3wQ4acbohLQeAf4zLge-1" vertex="1">
          <mxGeometry x="52" y="821" width="614" height="83" as="geometry" />
        </mxCell>
        <mxCell id="B4CUguUEGcCA_pv7hJzX-0" value="经纪人角度业务流程：" style="text;html=1;align=center;verticalAlign=middle;resizable=0;points=[];autosize=1;strokeColor=none;fillColor=none;fontColor=#000000;" parent="T3wQ4acbohLQeAf4zLge-1" vertex="1">
          <mxGeometry x="1884" y="263.25" width="130" height="18" as="geometry" />
        </mxCell>
        <mxCell id="igM6PJkrTx6lx4_yaeZT-4" value="" style="edgeStyle=orthogonalEdgeStyle;rounded=0;orthogonalLoop=1;jettySize=auto;html=1;fontColor=#000000;strokeColor=#000000;" parent="T3wQ4acbohLQeAf4zLge-1" source="B4CUguUEGcCA_pv7hJzX-15" target="igM6PJkrTx6lx4_yaeZT-3" edge="1">
          <mxGeometry relative="1" as="geometry" />
        </mxCell>
        <mxCell id="B4CUguUEGcCA_pv7hJzX-15" value="&lt;span style=&quot;color: rgb(50 , 50 , 50) ; font-size: 13px ; background-color: rgba(255 , 255 , 255 , 0.01)&quot;&gt;跟进客户&lt;br&gt;&lt;/span&gt;" style="rounded=0;whiteSpace=wrap;html=1;strokeWidth=1;" parent="T3wQ4acbohLQeAf4zLge-1" vertex="1">
          <mxGeometry x="2060" y="482" width="120" height="30" as="geometry" />
        </mxCell>
        <mxCell id="igM6PJkrTx6lx4_yaeZT-6" value="" style="edgeStyle=orthogonalEdgeStyle;rounded=0;orthogonalLoop=1;jettySize=auto;html=1;fontColor=#000000;strokeColor=#000000;" parent="T3wQ4acbohLQeAf4zLge-1" source="igM6PJkrTx6lx4_yaeZT-3" target="igM6PJkrTx6lx4_yaeZT-5" edge="1">
          <mxGeometry relative="1" as="geometry" />
        </mxCell>
        <mxCell id="igM6PJkrTx6lx4_yaeZT-3" value="&lt;span style=&quot;color: rgb(50 , 50 , 50) ; font-size: 13px ; background-color: rgba(255 , 255 , 255 , 0.01)&quot;&gt;更新需求意向和需求状态&lt;br&gt;&lt;/span&gt;" style="rounded=0;whiteSpace=wrap;html=1;strokeWidth=1;" parent="T3wQ4acbohLQeAf4zLge-1" vertex="1">
          <mxGeometry x="2060" y="554" width="120" height="30" as="geometry" />
        </mxCell>
        <mxCell id="igM6PJkrTx6lx4_yaeZT-8" value="" style="edgeStyle=orthogonalEdgeStyle;rounded=0;orthogonalLoop=1;jettySize=auto;html=1;fontColor=#000000;strokeColor=#000000;" parent="T3wQ4acbohLQeAf4zLge-1" source="igM6PJkrTx6lx4_yaeZT-5" target="igM6PJkrTx6lx4_yaeZT-7" edge="1">
          <mxGeometry relative="1" as="geometry" />
        </mxCell>
        <mxCell id="igM6PJkrTx6lx4_yaeZT-5" value="&lt;span style=&quot;color: rgb(50 , 50 , 50) ; font-size: 13px ; background-color: rgba(255 , 255 , 255 , 0.01)&quot;&gt;寻找合适阿姨&lt;br&gt;&lt;/span&gt;" style="rounded=0;whiteSpace=wrap;html=1;strokeWidth=1;" parent="T3wQ4acbohLQeAf4zLge-1" vertex="1">
          <mxGeometry x="2060" y="609" width="120" height="30" as="geometry" />
        </mxCell>
        <mxCell id="igM6PJkrTx6lx4_yaeZT-10" value="" style="edgeStyle=orthogonalEdgeStyle;rounded=0;orthogonalLoop=1;jettySize=auto;html=1;fontColor=#000000;strokeColor=#000000;" parent="T3wQ4acbohLQeAf4zLge-1" source="igM6PJkrTx6lx4_yaeZT-7" edge="1">
          <mxGeometry relative="1" as="geometry">
            <mxPoint x="2120" y="745" as="targetPoint" />
          </mxGeometry>
        </mxCell>
        <mxCell id="igM6PJkrTx6lx4_yaeZT-7" value="&lt;span style=&quot;color: rgb(50 , 50 , 50) ; font-size: 13px ; background-color: rgba(255 , 255 , 255 , 0.01)&quot;&gt;安排客户与阿姨面试&lt;br&gt;&lt;/span&gt;" style="rounded=0;whiteSpace=wrap;html=1;strokeWidth=1;" parent="T3wQ4acbohLQeAf4zLge-1" vertex="1">
          <mxGeometry x="2060" y="677" width="120" height="30" as="geometry" />
        </mxCell>
        <mxCell id="igM6PJkrTx6lx4_yaeZT-47" value="&lt;span style=&quot;color: rgb(50 , 50 , 50) ; font-size: 13px ; background-color: rgba(255 , 255 , 255 , 0.01)&quot;&gt;追踪订单，回访用户和阿姨&lt;br&gt;&lt;/span&gt;" style="rounded=0;whiteSpace=wrap;html=1;strokeWidth=1;" parent="T3wQ4acbohLQeAf4zLge-1" vertex="1">
          <mxGeometry x="2060" y="824" width="120" height="30" as="geometry" />
        </mxCell>
        <mxCell id="igM6PJkrTx6lx4_yaeZT-49" value="" style="edgeStyle=orthogonalEdgeStyle;rounded=0;orthogonalLoop=1;jettySize=auto;html=1;fontColor=#000000;strokeColor=#000000;" parent="T3wQ4acbohLQeAf4zLge-1" source="igM6PJkrTx6lx4_yaeZT-48" target="igM6PJkrTx6lx4_yaeZT-47" edge="1">
          <mxGeometry relative="1" as="geometry" />
        </mxCell>
        <mxCell id="igM6PJkrTx6lx4_yaeZT-48" value="&lt;span style=&quot;color: rgb(50 , 50 , 50) ; font-size: 13px ; background-color: rgba(255 , 255 , 255 , 0.01)&quot;&gt;创建订单&lt;br&gt;&lt;/span&gt;" style="rounded=0;whiteSpace=wrap;html=1;strokeWidth=1;" parent="T3wQ4acbohLQeAf4zLge-1" vertex="1">
          <mxGeometry x="2060" y="743.5" width="120" height="30" as="geometry" />
        </mxCell>
        <mxCell id="4P0eioY_hSoK8zpyynvr-14" value="" style="edgeStyle=orthogonalEdgeStyle;rounded=0;orthogonalLoop=1;jettySize=auto;html=1;" parent="T3wQ4acbohLQeAf4zLge-1" source="4P0eioY_hSoK8zpyynvr-10" target="4P0eioY_hSoK8zpyynvr-13" edge="1">
          <mxGeometry relative="1" as="geometry" />
        </mxCell>
        <mxCell id="4P0eioY_hSoK8zpyynvr-20" value="" style="edgeStyle=orthogonalEdgeStyle;rounded=0;orthogonalLoop=1;jettySize=auto;html=1;" parent="T3wQ4acbohLQeAf4zLge-1" source="4P0eioY_hSoK8zpyynvr-10" target="4P0eioY_hSoK8zpyynvr-19" edge="1">
          <mxGeometry relative="1" as="geometry" />
        </mxCell>
        <mxCell id="4P0eioY_hSoK8zpyynvr-10" value="是否在线" style="rhombus;whiteSpace=wrap;html=1;strokeWidth=1;" parent="T3wQ4acbohLQeAf4zLge-1" vertex="1">
          <mxGeometry x="2048" y="330.25" width="144" height="45" as="geometry" />
        </mxCell>
        <mxCell id="4P0eioY_hSoK8zpyynvr-12" value="" style="edgeStyle=orthogonalEdgeStyle;rounded=0;orthogonalLoop=1;jettySize=auto;html=1;" parent="T3wQ4acbohLQeAf4zLge-1" source="4P0eioY_hSoK8zpyynvr-11" target="4P0eioY_hSoK8zpyynvr-10" edge="1">
          <mxGeometry relative="1" as="geometry" />
        </mxCell>
        <mxCell id="4P0eioY_hSoK8zpyynvr-11" value="&lt;span style=&quot;color: rgb(50 , 50 , 50) ; font-size: 13px ; background-color: rgba(255 , 255 , 255 , 0.01)&quot;&gt;打卡上班&lt;br&gt;&lt;/span&gt;" style="rounded=0;whiteSpace=wrap;html=1;strokeWidth=1;" parent="T3wQ4acbohLQeAf4zLge-1" vertex="1">
          <mxGeometry x="2060" y="257.25" width="120" height="30" as="geometry" />
        </mxCell>
        <mxCell id="4P0eioY_hSoK8zpyynvr-17" value="" style="edgeStyle=orthogonalEdgeStyle;rounded=0;orthogonalLoop=1;jettySize=auto;html=1;" parent="T3wQ4acbohLQeAf4zLge-1" source="4P0eioY_hSoK8zpyynvr-13" target="B4CUguUEGcCA_pv7hJzX-15" edge="1">
          <mxGeometry relative="1" as="geometry" />
        </mxCell>
        <mxCell id="4P0eioY_hSoK8zpyynvr-13" value="&lt;span style=&quot;color: rgb(50 , 50 , 50) ; font-size: 13px ; background-color: rgba(255 , 255 , 255 , 0.01)&quot;&gt;接收线索&lt;br&gt;&lt;/span&gt;" style="rounded=0;whiteSpace=wrap;html=1;strokeWidth=1;" parent="T3wQ4acbohLQeAf4zLge-1" vertex="1">
          <mxGeometry x="2060" y="416.5" width="120" height="31" as="geometry" />
        </mxCell>
        <mxCell id="4P0eioY_hSoK8zpyynvr-18" value="Y" style="text;html=1;align=center;verticalAlign=middle;resizable=0;points=[];autosize=1;strokeColor=none;fillColor=none;" parent="T3wQ4acbohLQeAf4zLge-1" vertex="1">
          <mxGeometry x="2124" y="372.25" width="18" height="18" as="geometry" />
        </mxCell>
        <mxCell id="4P0eioY_hSoK8zpyynvr-19" value="&lt;span style=&quot;color: rgb(50 , 50 , 50) ; font-size: 13px ; background-color: rgba(255 , 255 , 255 , 0.01)&quot;&gt;不在线&lt;br&gt;&lt;/span&gt;" style="rounded=0;whiteSpace=wrap;html=1;strokeWidth=1;" parent="T3wQ4acbohLQeAf4zLge-1" vertex="1">
          <mxGeometry x="1947" y="337" width="78" height="31.5" as="geometry" />
        </mxCell>
        <mxCell id="4P0eioY_hSoK8zpyynvr-21" value="N" style="text;html=1;align=center;verticalAlign=middle;resizable=0;points=[];autosize=1;strokeColor=none;fillColor=none;" parent="T3wQ4acbohLQeAf4zLge-1" vertex="1">
          <mxGeometry x="2040" y="325.25" width="19" height="18" as="geometry" />
        </mxCell>
        <mxCell id="LQp-TOS6l6jIE_p288gQ-0" value="&lt;span style=&quot;color: rgb(50 , 50 , 50) ; font-size: 13px ; background-color: rgba(255 , 255 , 255 , 0.01)&quot;&gt;客服系统&lt;br&gt;&lt;/span&gt;" style="rounded=0;whiteSpace=wrap;html=1;strokeWidth=1;" parent="T3wQ4acbohLQeAf4zLge-1" vertex="1">
          <mxGeometry x="1526" y="1225" width="98" height="30" as="geometry" />
        </mxCell>
        <mxCell id="LQp-TOS6l6jIE_p288gQ-2" value="投诉，咨询" style="text;html=1;align=center;verticalAlign=middle;resizable=0;points=[];autosize=1;strokeColor=none;fillColor=none;" parent="T3wQ4acbohLQeAf4zLge-1" vertex="1">
          <mxGeometry x="1442" y="1219" width="70" height="18" as="geometry" />
        </mxCell>
      </root>
    </mxGraphModel>
  </diagram>
  <diagram id="Y6BzZKyjuGDd7Wrt0I40" name="劳动者简历">
    <mxGraphModel dx="1662" dy="796" grid="0" gridSize="10" guides="1" tooltips="1" connect="1" arrows="1" fold="1" page="1" pageScale="1" pageWidth="827" pageHeight="1169" math="0" shadow="0">
      <root>
        <mxCell id="OW7mkBmdmPTutjs3nILY-0" />
        <mxCell id="OW7mkBmdmPTutjs3nILY-1" parent="OW7mkBmdmPTutjs3nILY-0" />
        <mxCell id="OW7mkBmdmPTutjs3nILY-2" value="劳动者简历生成流程：&lt;br&gt;" style="text;html=1;align=center;verticalAlign=middle;resizable=0;points=[];autosize=1;strokeColor=none;" parent="OW7mkBmdmPTutjs3nILY-1" vertex="1">
          <mxGeometry x="71" y="7" width="130" height="18" as="geometry" />
        </mxCell>
        <mxCell id="OW7mkBmdmPTutjs3nILY-3" value="" style="edgeStyle=none;rounded=0;orthogonalLoop=1;jettySize=auto;html=1;" parent="OW7mkBmdmPTutjs3nILY-1" source="OW7mkBmdmPTutjs3nILY-4" target="OW7mkBmdmPTutjs3nILY-7" edge="1">
          <mxGeometry relative="1" as="geometry" />
        </mxCell>
        <mxCell id="OW7mkBmdmPTutjs3nILY-4" value="经纪人登录系统" style="rounded=0;whiteSpace=wrap;html=1;" parent="OW7mkBmdmPTutjs3nILY-1" vertex="1">
          <mxGeometry x="300" y="42" width="120" height="39" as="geometry" />
        </mxCell>
        <mxCell id="OW7mkBmdmPTutjs3nILY-5" value="1.自有简历" style="text;html=1;align=center;verticalAlign=middle;resizable=0;points=[];autosize=1;strokeColor=none;" parent="OW7mkBmdmPTutjs3nILY-1" vertex="1">
          <mxGeometry x="303" y="17" width="68" height="18" as="geometry" />
        </mxCell>
        <mxCell id="OW7mkBmdmPTutjs3nILY-6" value="" style="edgeStyle=none;rounded=0;orthogonalLoop=1;jettySize=auto;html=1;" parent="OW7mkBmdmPTutjs3nILY-1" source="OW7mkBmdmPTutjs3nILY-7" target="OW7mkBmdmPTutjs3nILY-10" edge="1">
          <mxGeometry relative="1" as="geometry" />
        </mxCell>
        <mxCell id="OW7mkBmdmPTutjs3nILY-7" value="录入阿姨简历" style="rounded=0;whiteSpace=wrap;html=1;" parent="OW7mkBmdmPTutjs3nILY-1" vertex="1">
          <mxGeometry x="299" y="97" width="120" height="36" as="geometry" />
        </mxCell>
        <mxCell id="OW7mkBmdmPTutjs3nILY-8" value="" style="edgeStyle=none;rounded=0;orthogonalLoop=1;jettySize=auto;html=1;" parent="OW7mkBmdmPTutjs3nILY-1" source="OW7mkBmdmPTutjs3nILY-10" target="OW7mkBmdmPTutjs3nILY-12" edge="1">
          <mxGeometry relative="1" as="geometry" />
        </mxCell>
        <mxCell id="OW7mkBmdmPTutjs3nILY-9" value="" style="edgeStyle=none;rounded=0;orthogonalLoop=1;jettySize=auto;html=1;" parent="OW7mkBmdmPTutjs3nILY-1" source="OW7mkBmdmPTutjs3nILY-10" target="OW7mkBmdmPTutjs3nILY-15" edge="1">
          <mxGeometry relative="1" as="geometry" />
        </mxCell>
        <mxCell id="OW7mkBmdmPTutjs3nILY-10" value="是否中途退出" style="rhombus;whiteSpace=wrap;html=1;" parent="OW7mkBmdmPTutjs3nILY-1" vertex="1">
          <mxGeometry x="319" y="260" width="80" height="80" as="geometry" />
        </mxCell>
        <mxCell id="OW7mkBmdmPTutjs3nILY-11" value="" style="edgeStyle=none;rounded=0;orthogonalLoop=1;jettySize=auto;html=1;" parent="OW7mkBmdmPTutjs3nILY-1" source="OW7mkBmdmPTutjs3nILY-12" target="OW7mkBmdmPTutjs3nILY-35" edge="1">
          <mxGeometry relative="1" as="geometry" />
        </mxCell>
        <mxCell id="OW7mkBmdmPTutjs3nILY-12" value="简历草稿" style="rounded=0;whiteSpace=wrap;html=1;" parent="OW7mkBmdmPTutjs3nILY-1" vertex="1">
          <mxGeometry x="92" y="283" width="111" height="34" as="geometry" />
        </mxCell>
        <mxCell id="OW7mkBmdmPTutjs3nILY-13" value="Y" style="text;html=1;align=center;verticalAlign=middle;resizable=0;points=[];autosize=1;strokeColor=none;" parent="OW7mkBmdmPTutjs3nILY-1" vertex="1">
          <mxGeometry x="215" y="282" width="18" height="18" as="geometry" />
        </mxCell>
        <mxCell id="OW7mkBmdmPTutjs3nILY-14" value="" style="edgeStyle=none;rounded=0;orthogonalLoop=1;jettySize=auto;html=1;" parent="OW7mkBmdmPTutjs3nILY-1" source="OW7mkBmdmPTutjs3nILY-15" target="OW7mkBmdmPTutjs3nILY-19" edge="1">
          <mxGeometry relative="1" as="geometry" />
        </mxCell>
        <mxCell id="OW7mkBmdmPTutjs3nILY-15" value="提交审核" style="rounded=0;whiteSpace=wrap;html=1;" parent="OW7mkBmdmPTutjs3nILY-1" vertex="1">
          <mxGeometry x="299" y="363" width="120" height="36" as="geometry" />
        </mxCell>
        <mxCell id="OW7mkBmdmPTutjs3nILY-16" value="N" style="text;html=1;align=center;verticalAlign=middle;resizable=0;points=[];autosize=1;strokeColor=none;" parent="OW7mkBmdmPTutjs3nILY-1" vertex="1">
          <mxGeometry x="363" y="338" width="19" height="18" as="geometry" />
        </mxCell>
        <mxCell id="OW7mkBmdmPTutjs3nILY-17" value="" style="edgeStyle=none;rounded=0;orthogonalLoop=1;jettySize=auto;html=1;" parent="OW7mkBmdmPTutjs3nILY-1" source="OW7mkBmdmPTutjs3nILY-19" target="OW7mkBmdmPTutjs3nILY-20" edge="1">
          <mxGeometry relative="1" as="geometry" />
        </mxCell>
        <mxCell id="OW7mkBmdmPTutjs3nILY-18" value="" style="edgeStyle=none;rounded=0;orthogonalLoop=1;jettySize=auto;html=1;" parent="OW7mkBmdmPTutjs3nILY-1" source="OW7mkBmdmPTutjs3nILY-19" target="OW7mkBmdmPTutjs3nILY-23" edge="1">
          <mxGeometry relative="1" as="geometry" />
        </mxCell>
        <mxCell id="OW7mkBmdmPTutjs3nILY-19" value="是否通过" style="rhombus;whiteSpace=wrap;html=1;" parent="OW7mkBmdmPTutjs3nILY-1" vertex="1">
          <mxGeometry x="320" y="427" width="80" height="80" as="geometry" />
        </mxCell>
        <mxCell id="OW7mkBmdmPTutjs3nILY-20" value="审核拒绝" style="rounded=0;whiteSpace=wrap;html=1;" parent="OW7mkBmdmPTutjs3nILY-1" vertex="1">
          <mxGeometry x="90" y="450" width="111" height="34" as="geometry" />
        </mxCell>
        <mxCell id="OW7mkBmdmPTutjs3nILY-21" value="N" style="text;html=1;align=center;verticalAlign=middle;resizable=0;points=[];autosize=1;strokeColor=none;" parent="OW7mkBmdmPTutjs3nILY-1" vertex="1">
          <mxGeometry x="214" y="444" width="19" height="18" as="geometry" />
        </mxCell>
        <mxCell id="OW7mkBmdmPTutjs3nILY-22" value="" style="edgeStyle=none;rounded=0;orthogonalLoop=1;jettySize=auto;html=1;" parent="OW7mkBmdmPTutjs3nILY-1" source="OW7mkBmdmPTutjs3nILY-23" target="OW7mkBmdmPTutjs3nILY-27" edge="1">
          <mxGeometry relative="1" as="geometry" />
        </mxCell>
        <mxCell id="OW7mkBmdmPTutjs3nILY-23" value="审核通过" style="rounded=0;whiteSpace=wrap;html=1;" parent="OW7mkBmdmPTutjs3nILY-1" vertex="1">
          <mxGeometry x="300" y="537" width="120" height="36" as="geometry" />
        </mxCell>
        <mxCell id="OW7mkBmdmPTutjs3nILY-24" value="Y" style="text;html=1;align=center;verticalAlign=middle;resizable=0;points=[];autosize=1;strokeColor=none;" parent="OW7mkBmdmPTutjs3nILY-1" vertex="1">
          <mxGeometry x="366" y="513" width="18" height="18" as="geometry" />
        </mxCell>
        <mxCell id="OW7mkBmdmPTutjs3nILY-25" value="" style="edgeStyle=none;rounded=0;orthogonalLoop=1;jettySize=auto;html=1;" parent="OW7mkBmdmPTutjs3nILY-1" source="OW7mkBmdmPTutjs3nILY-27" target="OW7mkBmdmPTutjs3nILY-28" edge="1">
          <mxGeometry relative="1" as="geometry" />
        </mxCell>
        <mxCell id="OW7mkBmdmPTutjs3nILY-26" value="" style="edgeStyle=none;rounded=0;orthogonalLoop=1;jettySize=auto;html=1;" parent="OW7mkBmdmPTutjs3nILY-1" source="OW7mkBmdmPTutjs3nILY-27" target="OW7mkBmdmPTutjs3nILY-31" edge="1">
          <mxGeometry relative="1" as="geometry" />
        </mxCell>
        <mxCell id="OW7mkBmdmPTutjs3nILY-27" value="创建简历审核通过时间是否超过7天" style="rhombus;whiteSpace=wrap;html=1;" parent="OW7mkBmdmPTutjs3nILY-1" vertex="1">
          <mxGeometry x="320" y="602" width="80" height="80" as="geometry" />
        </mxCell>
        <mxCell id="OW7mkBmdmPTutjs3nILY-28" value="保护期" style="rounded=0;whiteSpace=wrap;html=1;" parent="OW7mkBmdmPTutjs3nILY-1" vertex="1">
          <mxGeometry x="92" y="622" width="111" height="34" as="geometry" />
        </mxCell>
        <mxCell id="OW7mkBmdmPTutjs3nILY-29" value="N" style="text;html=1;align=center;verticalAlign=middle;resizable=0;points=[];autosize=1;strokeColor=none;" parent="OW7mkBmdmPTutjs3nILY-1" vertex="1">
          <mxGeometry x="214" y="617" width="19" height="18" as="geometry" />
        </mxCell>
        <mxCell id="OvLWAvEePfQ7vRnS9xWt-14" value="" style="edgeStyle=orthogonalEdgeStyle;rounded=0;orthogonalLoop=1;jettySize=auto;html=1;fontFamily=Helvetica;fontSize=12;fontColor=#0000FF;" parent="OW7mkBmdmPTutjs3nILY-1" source="OW7mkBmdmPTutjs3nILY-31" target="OvLWAvEePfQ7vRnS9xWt-13" edge="1">
          <mxGeometry relative="1" as="geometry" />
        </mxCell>
        <mxCell id="OW7mkBmdmPTutjs3nILY-31" value="公开" style="rounded=0;whiteSpace=wrap;html=1;" parent="OW7mkBmdmPTutjs3nILY-1" vertex="1">
          <mxGeometry x="299" y="700" width="120" height="36" as="geometry" />
        </mxCell>
        <mxCell id="OW7mkBmdmPTutjs3nILY-32" value="Y" style="text;html=1;align=center;verticalAlign=middle;resizable=0;points=[];autosize=1;strokeColor=none;" parent="OW7mkBmdmPTutjs3nILY-1" vertex="1">
          <mxGeometry x="369" y="682" width="18" height="18" as="geometry" />
        </mxCell>
        <mxCell id="OW7mkBmdmPTutjs3nILY-34" value="" style="edgeStyle=none;rounded=0;orthogonalLoop=1;jettySize=auto;html=1;" parent="OW7mkBmdmPTutjs3nILY-1" source="OW7mkBmdmPTutjs3nILY-35" target="OW7mkBmdmPTutjs3nILY-15" edge="1">
          <mxGeometry relative="1" as="geometry" />
        </mxCell>
        <mxCell id="OW7mkBmdmPTutjs3nILY-35" value="完善简历" style="rounded=0;whiteSpace=wrap;html=1;" parent="OW7mkBmdmPTutjs3nILY-1" vertex="1">
          <mxGeometry x="92" y="364" width="111" height="34" as="geometry" />
        </mxCell>
        <mxCell id="OW7mkBmdmPTutjs3nILY-36" value="2.邀请" style="text;html=1;align=center;verticalAlign=middle;resizable=0;points=[];autosize=1;strokeColor=none;" parent="OW7mkBmdmPTutjs3nILY-1" vertex="1">
          <mxGeometry x="520" y="17" width="44" height="18" as="geometry" />
        </mxCell>
        <mxCell id="OW7mkBmdmPTutjs3nILY-37" value="" style="edgeStyle=none;rounded=0;orthogonalLoop=1;jettySize=auto;html=1;" parent="OW7mkBmdmPTutjs3nILY-1" source="OW7mkBmdmPTutjs3nILY-38" target="OW7mkBmdmPTutjs3nILY-40" edge="1">
          <mxGeometry relative="1" as="geometry" />
        </mxCell>
        <mxCell id="OW7mkBmdmPTutjs3nILY-38" value="经纪人提供二维码" style="rounded=0;whiteSpace=wrap;html=1;" parent="OW7mkBmdmPTutjs3nILY-1" vertex="1">
          <mxGeometry x="514" y="42" width="120" height="39" as="geometry" />
        </mxCell>
        <mxCell id="OW7mkBmdmPTutjs3nILY-39" value="" style="edgeStyle=none;rounded=0;orthogonalLoop=1;jettySize=auto;html=1;" parent="OW7mkBmdmPTutjs3nILY-1" source="OW7mkBmdmPTutjs3nILY-40" target="OW7mkBmdmPTutjs3nILY-41" edge="1">
          <mxGeometry relative="1" as="geometry" />
        </mxCell>
        <mxCell id="OW7mkBmdmPTutjs3nILY-40" value="阿姨扫码登录" style="rounded=0;whiteSpace=wrap;html=1;" parent="OW7mkBmdmPTutjs3nILY-1" vertex="1">
          <mxGeometry x="514" y="97" width="120" height="36" as="geometry" />
        </mxCell>
        <mxCell id="OW7mkBmdmPTutjs3nILY-41" value="简历认证" style="rounded=0;whiteSpace=wrap;html=1;" parent="OW7mkBmdmPTutjs3nILY-1" vertex="1">
          <mxGeometry x="514" y="219" width="120" height="36" as="geometry" />
        </mxCell>
        <mxCell id="OW7mkBmdmPTutjs3nILY-42" value="" style="strokeWidth=1;html=1;shape=mxgraph.flowchart.annotation_2;align=left;labelPosition=right;pointerEvents=1;" parent="OW7mkBmdmPTutjs3nILY-1" vertex="1">
          <mxGeometry x="636" y="189" width="50" height="100" as="geometry" />
        </mxCell>
        <mxCell id="OW7mkBmdmPTutjs3nILY-44" value="接单意向认证" style="rounded=0;whiteSpace=wrap;html=1;" parent="OW7mkBmdmPTutjs3nILY-1" vertex="1">
          <mxGeometry x="686" y="176" width="120" height="36" as="geometry" />
        </mxCell>
        <mxCell id="OW7mkBmdmPTutjs3nILY-45" value="身份信息认证" style="rounded=0;whiteSpace=wrap;html=1;" parent="OW7mkBmdmPTutjs3nILY-1" vertex="1">
          <mxGeometry x="681" y="273" width="120" height="36" as="geometry" />
        </mxCell>
        <mxCell id="OW7mkBmdmPTutjs3nILY-46" value="" style="endArrow=none;html=1;entryX=0;entryY=0.5;entryDx=0;entryDy=0;" parent="OW7mkBmdmPTutjs3nILY-1" target="OW7mkBmdmPTutjs3nILY-41" edge="1">
          <mxGeometry width="50" height="50" relative="1" as="geometry">
            <mxPoint x="360" y="237" as="sourcePoint" />
            <mxPoint x="481" y="238.5" as="targetPoint" />
          </mxGeometry>
        </mxCell>
        <mxCell id="OW7mkBmdmPTutjs3nILY-47" value="3 阿姨自己登录注册" style="text;html=1;align=center;verticalAlign=middle;resizable=0;points=[];autosize=1;strokeColor=none;" parent="OW7mkBmdmPTutjs3nILY-1" vertex="1">
          <mxGeometry x="681" y="17" width="116" height="18" as="geometry" />
        </mxCell>
        <mxCell id="OW7mkBmdmPTutjs3nILY-48" value="阿姨自己登录" style="rounded=0;whiteSpace=wrap;html=1;" parent="OW7mkBmdmPTutjs3nILY-1" vertex="1">
          <mxGeometry x="677" y="97" width="120" height="36" as="geometry" />
        </mxCell>
        <mxCell id="OW7mkBmdmPTutjs3nILY-50" value="" style="edgeStyle=none;rounded=0;orthogonalLoop=1;jettySize=auto;html=1;" parent="OW7mkBmdmPTutjs3nILY-1" source="OW7mkBmdmPTutjs3nILY-52" target="OW7mkBmdmPTutjs3nILY-53" edge="1">
          <mxGeometry relative="1" as="geometry" />
        </mxCell>
        <mxCell id="OW7mkBmdmPTutjs3nILY-51" value="" style="edgeStyle=none;rounded=0;orthogonalLoop=1;jettySize=auto;html=1;" parent="OW7mkBmdmPTutjs3nILY-1" source="OW7mkBmdmPTutjs3nILY-52" target="OW7mkBmdmPTutjs3nILY-57" edge="1">
          <mxGeometry relative="1" as="geometry" />
        </mxCell>
        <mxCell id="OW7mkBmdmPTutjs3nILY-52" value="是否经纪人录入" style="rhombus;whiteSpace=wrap;html=1;rounded=0;" parent="OW7mkBmdmPTutjs3nILY-1" vertex="1">
          <mxGeometry x="314" y="1240" width="80" height="80" as="geometry" />
        </mxCell>
        <mxCell id="OW7mkBmdmPTutjs3nILY-53" value="自有简历" style="whiteSpace=wrap;html=1;rounded=0;" parent="OW7mkBmdmPTutjs3nILY-1" vertex="1">
          <mxGeometry x="135" y="1260" width="120" height="35" as="geometry" />
        </mxCell>
        <mxCell id="OW7mkBmdmPTutjs3nILY-54" value="Y" style="text;html=1;align=center;verticalAlign=middle;resizable=0;points=[];autosize=1;strokeColor=none;" parent="OW7mkBmdmPTutjs3nILY-1" vertex="1">
          <mxGeometry x="275" y="1260" width="18" height="18" as="geometry" />
        </mxCell>
        <mxCell id="OW7mkBmdmPTutjs3nILY-55" value="" style="edgeStyle=none;rounded=0;orthogonalLoop=1;jettySize=auto;html=1;entryX=1;entryY=0.5;entryDx=0;entryDy=0;" parent="OW7mkBmdmPTutjs3nILY-1" source="OW7mkBmdmPTutjs3nILY-57" target="OW7mkBmdmPTutjs3nILY-60" edge="1">
          <mxGeometry relative="1" as="geometry">
            <mxPoint x="253" y="1512" as="targetPoint" />
          </mxGeometry>
        </mxCell>
        <mxCell id="OvLWAvEePfQ7vRnS9xWt-5" style="edgeStyle=orthogonalEdgeStyle;rounded=0;orthogonalLoop=1;jettySize=auto;html=1;entryX=0.5;entryY=0;entryDx=0;entryDy=0;fontFamily=Helvetica;fontSize=12;fontColor=#0000FF;" parent="OW7mkBmdmPTutjs3nILY-1" source="OW7mkBmdmPTutjs3nILY-57" target="OW7mkBmdmPTutjs3nILY-63" edge="1">
          <mxGeometry relative="1" as="geometry">
            <mxPoint x="354" y="1457" as="targetPoint" />
          </mxGeometry>
        </mxCell>
        <mxCell id="4komd8JDKZgG2VkC9Z_O-0" style="edgeStyle=orthogonalEdgeStyle;rounded=0;orthogonalLoop=1;jettySize=auto;html=1;entryX=0.5;entryY=0;entryDx=0;entryDy=0;fontFamily=Helvetica;fontSize=12;fontColor=#FF3333;strokeColor=#000000;" parent="OW7mkBmdmPTutjs3nILY-1" source="OW7mkBmdmPTutjs3nILY-57" target="OW7mkBmdmPTutjs3nILY-78" edge="1">
          <mxGeometry relative="1" as="geometry">
            <Array as="points">
              <mxPoint x="353" y="1467" />
              <mxPoint x="526" y="1467" />
            </Array>
          </mxGeometry>
        </mxCell>
        <mxCell id="OW7mkBmdmPTutjs3nILY-57" value="是否阿姨扫经纪人二维码" style="rhombus;whiteSpace=wrap;html=1;rounded=0;" parent="OW7mkBmdmPTutjs3nILY-1" vertex="1">
          <mxGeometry x="313" y="1349" width="80" height="80" as="geometry" />
        </mxCell>
        <mxCell id="OW7mkBmdmPTutjs3nILY-58" value="N" style="text;html=1;align=center;verticalAlign=middle;resizable=0;points=[];autosize=1;strokeColor=none;" parent="OW7mkBmdmPTutjs3nILY-1" vertex="1">
          <mxGeometry x="364" y="1320" width="19" height="18" as="geometry" />
        </mxCell>
        <mxCell id="OW7mkBmdmPTutjs3nILY-59" value="Y" style="text;html=1;align=center;verticalAlign=middle;resizable=0;points=[];autosize=1;strokeColor=none;" parent="OW7mkBmdmPTutjs3nILY-1" vertex="1">
          <mxGeometry x="276" y="1371" width="18" height="18" as="geometry" />
        </mxCell>
        <mxCell id="OW7mkBmdmPTutjs3nILY-60" value="邀请简历" style="rounded=0;whiteSpace=wrap;html=1;" parent="OW7mkBmdmPTutjs3nILY-1" vertex="1">
          <mxGeometry x="137" y="1371" width="120" height="36" as="geometry" />
        </mxCell>
        <mxCell id="OW7mkBmdmPTutjs3nILY-61" value="N" style="text;html=1;align=center;verticalAlign=middle;resizable=0;points=[];autosize=1;strokeColor=none;" parent="OW7mkBmdmPTutjs3nILY-1" vertex="1">
          <mxGeometry x="359" y="1436" width="19" height="18" as="geometry" />
        </mxCell>
        <mxCell id="OvLWAvEePfQ7vRnS9xWt-7" value="" style="edgeStyle=orthogonalEdgeStyle;rounded=0;orthogonalLoop=1;jettySize=auto;html=1;fontFamily=Helvetica;fontSize=12;fontColor=#0000FF;" parent="OW7mkBmdmPTutjs3nILY-1" source="OW7mkBmdmPTutjs3nILY-63" target="OW7mkBmdmPTutjs3nILY-65" edge="1">
          <mxGeometry relative="1" as="geometry" />
        </mxCell>
        <mxCell id="OW7mkBmdmPTutjs3nILY-63" value="是否经纪人扫阿姨二维码" style="rhombus;whiteSpace=wrap;html=1;rounded=0;" parent="OW7mkBmdmPTutjs3nILY-1" vertex="1">
          <mxGeometry x="312.5" y="1550" width="81" height="80" as="geometry" />
        </mxCell>
        <mxCell id="OW7mkBmdmPTutjs3nILY-64" value="Y" style="text;html=1;align=center;verticalAlign=middle;resizable=0;points=[];autosize=1;strokeColor=none;" parent="OW7mkBmdmPTutjs3nILY-1" vertex="1">
          <mxGeometry x="276" y="1566" width="18" height="18" as="geometry" />
        </mxCell>
        <mxCell id="OW7mkBmdmPTutjs3nILY-65" value="扫码查看" style="rounded=0;whiteSpace=wrap;html=1;" parent="OW7mkBmdmPTutjs3nILY-1" vertex="1">
          <mxGeometry x="135" y="1572" width="120" height="36" as="geometry" />
        </mxCell>
        <mxCell id="OW7mkBmdmPTutjs3nILY-66" value="" style="edgeStyle=none;rounded=0;orthogonalLoop=1;jettySize=auto;html=1;exitX=0.5;exitY=1;exitDx=0;exitDy=0;" parent="OW7mkBmdmPTutjs3nILY-1" source="OW7mkBmdmPTutjs3nILY-63" target="OW7mkBmdmPTutjs3nILY-68" edge="1">
          <mxGeometry relative="1" as="geometry">
            <mxPoint x="354.38277511961724" y="2063.6172248803828" as="sourcePoint" />
          </mxGeometry>
        </mxCell>
        <mxCell id="OW7mkBmdmPTutjs3nILY-67" value="" style="edgeStyle=none;rounded=0;orthogonalLoop=1;jettySize=auto;html=1;" parent="OW7mkBmdmPTutjs3nILY-1" source="OW7mkBmdmPTutjs3nILY-68" target="OW7mkBmdmPTutjs3nILY-75" edge="1">
          <mxGeometry relative="1" as="geometry" />
        </mxCell>
        <mxCell id="OW7mkBmdmPTutjs3nILY-68" value="二者没有建立联系" style="whiteSpace=wrap;html=1;rounded=0;" parent="OW7mkBmdmPTutjs3nILY-1" vertex="1">
          <mxGeometry x="293" y="1739" width="120" height="35" as="geometry" />
        </mxCell>
        <mxCell id="OW7mkBmdmPTutjs3nILY-69" value="N" style="text;html=1;align=center;verticalAlign=middle;resizable=0;points=[];autosize=1;strokeColor=none;" parent="OW7mkBmdmPTutjs3nILY-1" vertex="1">
          <mxGeometry x="420" y="1700" width="19" height="18" as="geometry" />
        </mxCell>
        <mxCell id="OW7mkBmdmPTutjs3nILY-75" value="结束" style="ellipse;whiteSpace=wrap;html=1;rounded=0;" parent="OW7mkBmdmPTutjs3nILY-1" vertex="1">
          <mxGeometry x="292" y="1795" width="120" height="42" as="geometry" />
        </mxCell>
        <mxCell id="OW7mkBmdmPTutjs3nILY-76" value="自有和邀请不能并存" style="ellipse;shape=cloud;whiteSpace=wrap;html=1;" parent="OW7mkBmdmPTutjs3nILY-1" vertex="1">
          <mxGeometry x="397" y="1289" width="120" height="80" as="geometry" />
        </mxCell>
        <mxCell id="OW7mkBmdmPTutjs3nILY-77" value="" style="edgeStyle=none;rounded=0;orthogonalLoop=1;jettySize=auto;html=1;" parent="OW7mkBmdmPTutjs3nILY-1" source="OW7mkBmdmPTutjs3nILY-78" target="OW7mkBmdmPTutjs3nILY-80" edge="1">
          <mxGeometry relative="1" as="geometry" />
        </mxCell>
        <mxCell id="OW7mkBmdmPTutjs3nILY-78" value="经纪人查看平台公开简历列表" style="whiteSpace=wrap;html=1;rounded=0;" parent="OW7mkBmdmPTutjs3nILY-1" vertex="1">
          <mxGeometry x="466" y="1487" width="120" height="34" as="geometry" />
        </mxCell>
        <mxCell id="OW7mkBmdmPTutjs3nILY-79" value="" style="edgeStyle=none;rounded=0;orthogonalLoop=1;jettySize=auto;html=1;" parent="OW7mkBmdmPTutjs3nILY-1" source="OW7mkBmdmPTutjs3nILY-80" target="OW7mkBmdmPTutjs3nILY-82" edge="1">
          <mxGeometry relative="1" as="geometry" />
        </mxCell>
        <mxCell id="OW7mkBmdmPTutjs3nILY-80" value="阿姨简历详情" style="whiteSpace=wrap;html=1;rounded=0;" parent="OW7mkBmdmPTutjs3nILY-1" vertex="1">
          <mxGeometry x="466" y="1543" width="120" height="34" as="geometry" />
        </mxCell>
        <mxCell id="OW7mkBmdmPTutjs3nILY-81" value="" style="edgeStyle=none;rounded=0;orthogonalLoop=1;jettySize=auto;html=1;" parent="OW7mkBmdmPTutjs3nILY-1" source="OW7mkBmdmPTutjs3nILY-82" target="OW7mkBmdmPTutjs3nILY-83" edge="1">
          <mxGeometry relative="1" as="geometry" />
        </mxCell>
        <mxCell id="OvLWAvEePfQ7vRnS9xWt-11" style="edgeStyle=orthogonalEdgeStyle;rounded=0;orthogonalLoop=1;jettySize=auto;html=1;exitX=0.5;exitY=1;exitDx=0;exitDy=0;fontFamily=Helvetica;fontSize=12;fontColor=#0000FF;" parent="OW7mkBmdmPTutjs3nILY-1" source="OW7mkBmdmPTutjs3nILY-82" edge="1">
          <mxGeometry relative="1" as="geometry">
            <mxPoint x="352.66668701171875" y="1720.6666259765625" as="targetPoint" />
            <Array as="points">
              <mxPoint x="526" y="1721" />
            </Array>
          </mxGeometry>
        </mxCell>
        <mxCell id="OW7mkBmdmPTutjs3nILY-82" value="是否查看阿姨电话" style="rhombus;whiteSpace=wrap;html=1;rounded=0;" parent="OW7mkBmdmPTutjs3nILY-1" vertex="1">
          <mxGeometry x="486" y="1604" width="80" height="80" as="geometry" />
        </mxCell>
        <mxCell id="OW7mkBmdmPTutjs3nILY-83" value="公开库查看" style="rounded=0;whiteSpace=wrap;html=1;" parent="OW7mkBmdmPTutjs3nILY-1" vertex="1">
          <mxGeometry x="617" y="1626" width="120" height="36" as="geometry" />
        </mxCell>
        <mxCell id="OW7mkBmdmPTutjs3nILY-84" value="Y" style="text;html=1;align=center;verticalAlign=middle;resizable=0;points=[];autosize=1;strokeColor=none;" parent="OW7mkBmdmPTutjs3nILY-1" vertex="1">
          <mxGeometry x="578" y="1619" width="18" height="18" as="geometry" />
        </mxCell>
        <mxCell id="OW7mkBmdmPTutjs3nILY-85" value="" style="endArrow=none;html=1;rounded=0;fontFamily=Helvetica;fontSize=12;fontColor=#0000FF;entryX=0.5;entryY=1;entryDx=0;entryDy=0;" parent="OW7mkBmdmPTutjs3nILY-1" target="OW7mkBmdmPTutjs3nILY-28" edge="1">
          <mxGeometry width="50" height="50" relative="1" as="geometry">
            <mxPoint x="363" y="751" as="sourcePoint" />
            <mxPoint x="151.5" y="656" as="targetPoint" />
            <Array as="points">
              <mxPoint x="148" y="751" />
            </Array>
          </mxGeometry>
        </mxCell>
        <mxCell id="OvLWAvEePfQ7vRnS9xWt-2" value="" style="endArrow=none;html=1;rounded=0;fontFamily=Helvetica;fontSize=12;fontColor=#0000FF;" parent="OW7mkBmdmPTutjs3nILY-1" edge="1">
          <mxGeometry width="50" height="50" relative="1" as="geometry">
            <mxPoint x="575" y="168" as="sourcePoint" />
            <mxPoint x="739" y="135" as="targetPoint" />
            <Array as="points">
              <mxPoint x="739" y="168" />
            </Array>
          </mxGeometry>
        </mxCell>
        <mxCell id="OvLWAvEePfQ7vRnS9xWt-13" value="&lt;font color=&quot;#000000&quot;&gt;结束&lt;/font&gt;" style="ellipse;whiteSpace=wrap;html=1;labelBackgroundColor=none;fontFamily=Helvetica;fontSize=12;fontColor=#0000FF;strokeWidth=1;fillColor=none;gradientColor=none;" parent="OW7mkBmdmPTutjs3nILY-1" vertex="1">
          <mxGeometry x="299" y="777" width="120" height="47" as="geometry" />
        </mxCell>
        <mxCell id="OvLWAvEePfQ7vRnS9xWt-15" value="简历更新" style="rounded=0;whiteSpace=wrap;html=1;" parent="OW7mkBmdmPTutjs3nILY-1" vertex="1">
          <mxGeometry x="433" y="598" width="120" height="35" as="geometry" />
        </mxCell>
        <mxCell id="OvLWAvEePfQ7vRnS9xWt-17" value="" style="endArrow=classic;html=1;rounded=0;fontFamily=Helvetica;fontSize=12;fontColor=#000000;entryX=0.5;entryY=1;entryDx=0;entryDy=0;" parent="OW7mkBmdmPTutjs3nILY-1" target="OvLWAvEePfQ7vRnS9xWt-15" edge="1">
          <mxGeometry width="50" height="50" relative="1" as="geometry">
            <mxPoint x="360" y="751" as="sourcePoint" />
            <mxPoint x="511" y="678" as="targetPoint" />
            <Array as="points">
              <mxPoint x="493" y="751" />
            </Array>
          </mxGeometry>
        </mxCell>
        <mxCell id="OvLWAvEePfQ7vRnS9xWt-20" value="" style="endArrow=none;html=1;rounded=0;fontFamily=Helvetica;fontSize=12;fontColor=#000000;exitX=0.5;exitY=0;exitDx=0;exitDy=0;" parent="OW7mkBmdmPTutjs3nILY-1" source="OvLWAvEePfQ7vRnS9xWt-15" edge="1">
          <mxGeometry width="50" height="50" relative="1" as="geometry">
            <mxPoint x="491" y="587" as="sourcePoint" />
            <mxPoint x="493" y="238" as="targetPoint" />
          </mxGeometry>
        </mxCell>
        <mxCell id="OvLWAvEePfQ7vRnS9xWt-27" value="" style="edgeStyle=orthogonalEdgeStyle;rounded=0;orthogonalLoop=1;jettySize=auto;html=1;fontFamily=Helvetica;fontSize=12;fontColor=#000000;" parent="OW7mkBmdmPTutjs3nILY-1" source="OvLWAvEePfQ7vRnS9xWt-24" target="OW7mkBmdmPTutjs3nILY-52" edge="1">
          <mxGeometry relative="1" as="geometry" />
        </mxCell>
        <mxCell id="OvLWAvEePfQ7vRnS9xWt-24" value="劳动者简历" style="whiteSpace=wrap;html=1;rounded=0;" parent="OW7mkBmdmPTutjs3nILY-1" vertex="1">
          <mxGeometry x="294" y="1172" width="120" height="38" as="geometry" />
        </mxCell>
        <mxCell id="OvLWAvEePfQ7vRnS9xWt-28" value="" style="strokeWidth=1;html=1;shape=mxgraph.flowchart.annotation_2;align=left;labelPosition=right;pointerEvents=1;" parent="OW7mkBmdmPTutjs3nILY-1" vertex="1">
          <mxGeometry x="553" y="568" width="50" height="100" as="geometry" />
        </mxCell>
        <mxCell id="OvLWAvEePfQ7vRnS9xWt-29" value="智能外呼变更简历" style="rounded=0;whiteSpace=wrap;html=1;" parent="OW7mkBmdmPTutjs3nILY-1" vertex="1">
          <mxGeometry x="598" y="554" width="120" height="36" as="geometry" />
        </mxCell>
        <mxCell id="OvLWAvEePfQ7vRnS9xWt-30" value="经纪人变更简历" style="rounded=0;whiteSpace=wrap;html=1;" parent="OW7mkBmdmPTutjs3nILY-1" vertex="1">
          <mxGeometry x="598" y="603" width="120" height="36" as="geometry" />
        </mxCell>
        <mxCell id="OvLWAvEePfQ7vRnS9xWt-31" value="本人变更简历" style="rounded=0;whiteSpace=wrap;html=1;" parent="OW7mkBmdmPTutjs3nILY-1" vertex="1">
          <mxGeometry x="598" y="652" width="120" height="36" as="geometry" />
        </mxCell>
        <mxCell id="OvLWAvEePfQ7vRnS9xWt-40" value="" style="edgeStyle=orthogonalEdgeStyle;rounded=0;orthogonalLoop=1;jettySize=auto;html=1;fontFamily=Helvetica;fontSize=12;fontColor=#000000;" parent="OW7mkBmdmPTutjs3nILY-1" source="OvLWAvEePfQ7vRnS9xWt-33" target="OvLWAvEePfQ7vRnS9xWt-34" edge="1">
          <mxGeometry relative="1" as="geometry" />
        </mxCell>
        <mxCell id="OvLWAvEePfQ7vRnS9xWt-33" value="平台下发需求" style="rounded=0;whiteSpace=wrap;html=1;labelBackgroundColor=none;fontFamily=Helvetica;fontSize=12;fontColor=#000000;strokeWidth=1;fillColor=none;gradientColor=none;" parent="OW7mkBmdmPTutjs3nILY-1" vertex="1">
          <mxGeometry x="185" y="1898" width="120" height="37" as="geometry" />
        </mxCell>
        <mxCell id="OvLWAvEePfQ7vRnS9xWt-38" value="" style="edgeStyle=orthogonalEdgeStyle;rounded=0;orthogonalLoop=1;jettySize=auto;html=1;fontFamily=Helvetica;fontSize=12;fontColor=#000000;" parent="OW7mkBmdmPTutjs3nILY-1" source="OvLWAvEePfQ7vRnS9xWt-34" target="OvLWAvEePfQ7vRnS9xWt-37" edge="1">
          <mxGeometry relative="1" as="geometry" />
        </mxCell>
        <mxCell id="OvLWAvEePfQ7vRnS9xWt-42" value="" style="edgeStyle=orthogonalEdgeStyle;rounded=0;orthogonalLoop=1;jettySize=auto;html=1;fontFamily=Helvetica;fontSize=12;fontColor=#000000;" parent="OW7mkBmdmPTutjs3nILY-1" source="OvLWAvEePfQ7vRnS9xWt-34" target="OvLWAvEePfQ7vRnS9xWt-41" edge="1">
          <mxGeometry relative="1" as="geometry" />
        </mxCell>
        <mxCell id="OvLWAvEePfQ7vRnS9xWt-34" value="简历库中是否有合适阿姨" style="rhombus;whiteSpace=wrap;html=1;labelBackgroundColor=none;fontFamily=Helvetica;fontSize=12;fontColor=#000000;strokeWidth=1;fillColor=none;gradientColor=none;" parent="OW7mkBmdmPTutjs3nILY-1" vertex="1">
          <mxGeometry x="205" y="1961" width="80" height="80" as="geometry" />
        </mxCell>
        <mxCell id="OvLWAvEePfQ7vRnS9xWt-37" value="无推荐阿姨" style="rounded=0;whiteSpace=wrap;html=1;labelBackgroundColor=none;fontFamily=Helvetica;fontSize=12;fontColor=#000000;strokeWidth=1;fillColor=none;gradientColor=none;" parent="OW7mkBmdmPTutjs3nILY-1" vertex="1">
          <mxGeometry x="41" y="1982.5" width="120" height="37" as="geometry" />
        </mxCell>
        <mxCell id="OvLWAvEePfQ7vRnS9xWt-39" value="N" style="text;html=1;align=center;verticalAlign=middle;resizable=0;points=[];autosize=1;strokeColor=none;fillColor=none;fontSize=12;fontFamily=Helvetica;fontColor=#000000;" parent="OW7mkBmdmPTutjs3nILY-1" vertex="1">
          <mxGeometry x="174" y="1982.5" width="19" height="18" as="geometry" />
        </mxCell>
        <mxCell id="OvLWAvEePfQ7vRnS9xWt-41" value="推荐阿姨下发给经纪人" style="rounded=0;whiteSpace=wrap;html=1;labelBackgroundColor=none;fontFamily=Helvetica;fontSize=12;fontColor=#000000;strokeWidth=1;fillColor=none;gradientColor=none;" parent="OW7mkBmdmPTutjs3nILY-1" vertex="1">
          <mxGeometry x="186" y="2065" width="120" height="37" as="geometry" />
        </mxCell>
        <mxCell id="OvLWAvEePfQ7vRnS9xWt-43" value="Y" style="text;html=1;align=center;verticalAlign=middle;resizable=0;points=[];autosize=1;strokeColor=none;fillColor=none;fontSize=12;fontFamily=Helvetica;fontColor=#000000;" parent="OW7mkBmdmPTutjs3nILY-1" vertex="1">
          <mxGeometry x="257" y="2038" width="18" height="18" as="geometry" />
        </mxCell>
        <mxCell id="OvLWAvEePfQ7vRnS9xWt-44" value="智能推荐" style="text;html=1;strokeColor=none;fillColor=none;align=center;verticalAlign=middle;whiteSpace=wrap;rounded=0;labelBackgroundColor=none;fontFamily=Helvetica;fontSize=12;fontColor=#000000;" parent="OW7mkBmdmPTutjs3nILY-1" vertex="1">
          <mxGeometry x="27" y="1892" width="60" height="30" as="geometry" />
        </mxCell>
        <mxCell id="OvLWAvEePfQ7vRnS9xWt-45" value="智能匹配" style="text;html=1;strokeColor=none;fillColor=none;align=center;verticalAlign=middle;whiteSpace=wrap;rounded=0;labelBackgroundColor=none;fontFamily=Helvetica;fontSize=12;fontColor=#000000;" parent="OW7mkBmdmPTutjs3nILY-1" vertex="1">
          <mxGeometry x="510" y="1909" width="60" height="30" as="geometry" />
        </mxCell>
        <mxCell id="OvLWAvEePfQ7vRnS9xWt-48" value="" style="edgeStyle=orthogonalEdgeStyle;rounded=0;orthogonalLoop=1;jettySize=auto;html=1;fontFamily=Helvetica;fontSize=12;fontColor=#000000;" parent="OW7mkBmdmPTutjs3nILY-1" source="OvLWAvEePfQ7vRnS9xWt-46" target="OvLWAvEePfQ7vRnS9xWt-47" edge="1">
          <mxGeometry relative="1" as="geometry" />
        </mxCell>
        <mxCell id="OvLWAvEePfQ7vRnS9xWt-46" value="平台下发需求" style="rounded=0;whiteSpace=wrap;html=1;labelBackgroundColor=none;fontFamily=Helvetica;fontSize=12;fontColor=#000000;strokeWidth=1;fillColor=none;gradientColor=none;" parent="OW7mkBmdmPTutjs3nILY-1" vertex="1">
          <mxGeometry x="606" y="1912.5" width="120" height="37" as="geometry" />
        </mxCell>
        <mxCell id="OvLWAvEePfQ7vRnS9xWt-50" value="" style="edgeStyle=orthogonalEdgeStyle;rounded=0;orthogonalLoop=1;jettySize=auto;html=1;fontFamily=Helvetica;fontSize=12;fontColor=#000000;" parent="OW7mkBmdmPTutjs3nILY-1" source="OvLWAvEePfQ7vRnS9xWt-47" target="OvLWAvEePfQ7vRnS9xWt-49" edge="1">
          <mxGeometry relative="1" as="geometry" />
        </mxCell>
        <mxCell id="OvLWAvEePfQ7vRnS9xWt-47" value="经纪人" style="rounded=0;whiteSpace=wrap;html=1;labelBackgroundColor=none;fontFamily=Helvetica;fontSize=12;fontColor=#000000;strokeWidth=1;fillColor=none;gradientColor=none;" parent="OW7mkBmdmPTutjs3nILY-1" vertex="1">
          <mxGeometry x="606" y="1976.5" width="120" height="37" as="geometry" />
        </mxCell>
        <mxCell id="OvLWAvEePfQ7vRnS9xWt-54" value="" style="edgeStyle=orthogonalEdgeStyle;rounded=0;orthogonalLoop=1;jettySize=auto;html=1;fontFamily=Helvetica;fontSize=12;fontColor=#000000;" parent="OW7mkBmdmPTutjs3nILY-1" source="OvLWAvEePfQ7vRnS9xWt-49" target="OvLWAvEePfQ7vRnS9xWt-51" edge="1">
          <mxGeometry relative="1" as="geometry" />
        </mxCell>
        <mxCell id="OvLWAvEePfQ7vRnS9xWt-57" value="" style="edgeStyle=orthogonalEdgeStyle;rounded=0;orthogonalLoop=1;jettySize=auto;html=1;fontFamily=Helvetica;fontSize=12;fontColor=#000000;" parent="OW7mkBmdmPTutjs3nILY-1" source="OvLWAvEePfQ7vRnS9xWt-49" target="OvLWAvEePfQ7vRnS9xWt-56" edge="1">
          <mxGeometry relative="1" as="geometry" />
        </mxCell>
        <mxCell id="OvLWAvEePfQ7vRnS9xWt-49" value="是否开启智能匹配" style="rhombus;whiteSpace=wrap;html=1;labelBackgroundColor=none;fontFamily=Helvetica;fontSize=12;fontColor=#000000;strokeWidth=1;fillColor=none;gradientColor=none;" parent="OW7mkBmdmPTutjs3nILY-1" vertex="1">
          <mxGeometry x="626" y="2033.5" width="80" height="80" as="geometry" />
        </mxCell>
        <mxCell id="OvLWAvEePfQ7vRnS9xWt-51" value="不使用智能匹配" style="rounded=0;whiteSpace=wrap;html=1;labelBackgroundColor=none;fontFamily=Helvetica;fontSize=12;fontColor=#000000;strokeWidth=1;fillColor=none;gradientColor=none;" parent="OW7mkBmdmPTutjs3nILY-1" vertex="1">
          <mxGeometry x="473" y="2055" width="120" height="37" as="geometry" />
        </mxCell>
        <mxCell id="OvLWAvEePfQ7vRnS9xWt-55" value="N" style="text;html=1;align=center;verticalAlign=middle;resizable=0;points=[];autosize=1;strokeColor=none;fillColor=none;fontSize=12;fontFamily=Helvetica;fontColor=#000000;" parent="OW7mkBmdmPTutjs3nILY-1" vertex="1">
          <mxGeometry x="604" y="2047" width="19" height="18" as="geometry" />
        </mxCell>
        <mxCell id="OvLWAvEePfQ7vRnS9xWt-60" value="" style="edgeStyle=orthogonalEdgeStyle;rounded=0;orthogonalLoop=1;jettySize=auto;html=1;fontFamily=Helvetica;fontSize=12;fontColor=#000000;" parent="OW7mkBmdmPTutjs3nILY-1" source="OvLWAvEePfQ7vRnS9xWt-56" target="OvLWAvEePfQ7vRnS9xWt-59" edge="1">
          <mxGeometry relative="1" as="geometry" />
        </mxCell>
        <mxCell id="OvLWAvEePfQ7vRnS9xWt-56" value="使用智能匹配挑选阿姨" style="rounded=0;whiteSpace=wrap;html=1;labelBackgroundColor=none;fontFamily=Helvetica;fontSize=12;fontColor=#000000;strokeWidth=1;fillColor=none;gradientColor=none;" parent="OW7mkBmdmPTutjs3nILY-1" vertex="1">
          <mxGeometry x="606" y="2146" width="120" height="37" as="geometry" />
        </mxCell>
        <mxCell id="OvLWAvEePfQ7vRnS9xWt-58" value="Y" style="text;html=1;align=center;verticalAlign=middle;resizable=0;points=[];autosize=1;strokeColor=none;fillColor=none;fontSize=12;fontFamily=Helvetica;fontColor=#000000;" parent="OW7mkBmdmPTutjs3nILY-1" vertex="1">
          <mxGeometry x="677" y="2111" width="18" height="18" as="geometry" />
        </mxCell>
        <mxCell id="OvLWAvEePfQ7vRnS9xWt-59" value="联系阿姨，安排面试" style="rounded=0;whiteSpace=wrap;html=1;labelBackgroundColor=none;fontFamily=Helvetica;fontSize=12;fontColor=#000000;strokeWidth=1;fillColor=none;gradientColor=none;" parent="OW7mkBmdmPTutjs3nILY-1" vertex="1">
          <mxGeometry x="606" y="2214" width="120" height="37" as="geometry" />
        </mxCell>
        <mxCell id="_M7xqo7ggwUvtnFr13Xr-0" value="阿姨角度业务流程：" style="text;html=1;align=center;verticalAlign=middle;resizable=0;points=[];autosize=1;strokeColor=none;fillColor=none;fontColor=#000000;" parent="OW7mkBmdmPTutjs3nILY-1" vertex="1">
          <mxGeometry x="1163" y="14" width="118" height="18" as="geometry" />
        </mxCell>
        <mxCell id="_M7xqo7ggwUvtnFr13Xr-1" value="" style="edgeStyle=orthogonalEdgeStyle;rounded=0;orthogonalLoop=1;jettySize=auto;html=1;fontColor=#000000;strokeColor=#000000;" parent="OW7mkBmdmPTutjs3nILY-1" source="_M7xqo7ggwUvtnFr13Xr-2" target="_M7xqo7ggwUvtnFr13Xr-4" edge="1">
          <mxGeometry relative="1" as="geometry" />
        </mxCell>
        <mxCell id="_M7xqo7ggwUvtnFr13Xr-2" value="&lt;span style=&quot;color: rgb(50 , 50 , 50) ; font-size: 13px ; background-color: rgba(255 , 255 , 255 , 0.01)&quot;&gt;注册简历&lt;br&gt;&lt;/span&gt;" style="rounded=0;whiteSpace=wrap;html=1;strokeWidth=1;" parent="OW7mkBmdmPTutjs3nILY-1" vertex="1">
          <mxGeometry x="1158" y="62" width="120" height="30" as="geometry" />
        </mxCell>
        <mxCell id="_M7xqo7ggwUvtnFr13Xr-3" value="" style="edgeStyle=orthogonalEdgeStyle;rounded=0;orthogonalLoop=1;jettySize=auto;html=1;fontColor=#000000;strokeColor=#000000;" parent="OW7mkBmdmPTutjs3nILY-1" source="_M7xqo7ggwUvtnFr13Xr-4" target="_M7xqo7ggwUvtnFr13Xr-10" edge="1">
          <mxGeometry relative="1" as="geometry" />
        </mxCell>
        <mxCell id="_M7xqo7ggwUvtnFr13Xr-4" value="&lt;span style=&quot;color: rgb(50 , 50 , 50) ; font-size: 13px ; background-color: rgba(255 , 255 , 255 , 0.01)&quot;&gt;更新简历&lt;br&gt;&lt;/span&gt;" style="rounded=0;whiteSpace=wrap;html=1;strokeWidth=1;" parent="OW7mkBmdmPTutjs3nILY-1" vertex="1">
          <mxGeometry x="1158" y="152" width="120" height="30" as="geometry" />
        </mxCell>
        <mxCell id="_M7xqo7ggwUvtnFr13Xr-5" value="&lt;span style=&quot;color: rgb(50 , 50 , 50) ; font-size: 13px ; background-color: rgba(255 , 255 , 255 , 0.01)&quot;&gt;更新工作状态&lt;br&gt;&lt;/span&gt;" style="rounded=0;whiteSpace=wrap;html=1;strokeWidth=1;" parent="OW7mkBmdmPTutjs3nILY-1" vertex="1">
          <mxGeometry x="1310" y="100" width="120" height="30" as="geometry" />
        </mxCell>
        <mxCell id="_M7xqo7ggwUvtnFr13Xr-6" value="&lt;span style=&quot;color: rgb(50 , 50 , 50) ; font-size: 13px ; background-color: rgba(255 , 255 , 255 , 0.01)&quot;&gt;更新体检报告&lt;br&gt;&lt;/span&gt;" style="rounded=0;whiteSpace=wrap;html=1;strokeWidth=1;" parent="OW7mkBmdmPTutjs3nILY-1" vertex="1">
          <mxGeometry x="1310" y="145.5" width="120" height="30" as="geometry" />
        </mxCell>
        <mxCell id="_M7xqo7ggwUvtnFr13Xr-7" value="&lt;span style=&quot;color: rgb(50 , 50 , 50) ; font-size: 13px ; background-color: rgba(255 , 255 , 255 , 0.01)&quot;&gt;其他&lt;br&gt;&lt;/span&gt;" style="rounded=0;whiteSpace=wrap;html=1;strokeWidth=1;" parent="OW7mkBmdmPTutjs3nILY-1" vertex="1">
          <mxGeometry x="1310" y="192.5" width="120" height="30" as="geometry" />
        </mxCell>
        <mxCell id="_M7xqo7ggwUvtnFr13Xr-8" value="" style="shape=curlyBracket;whiteSpace=wrap;html=1;rounded=1;fontColor=#000000;" parent="OW7mkBmdmPTutjs3nILY-1" vertex="1">
          <mxGeometry x="1285" y="107" width="20" height="120" as="geometry" />
        </mxCell>
        <mxCell id="_M7xqo7ggwUvtnFr13Xr-9" value="" style="edgeStyle=orthogonalEdgeStyle;rounded=0;orthogonalLoop=1;jettySize=auto;html=1;fontColor=#000000;strokeColor=#000000;" parent="OW7mkBmdmPTutjs3nILY-1" source="_M7xqo7ggwUvtnFr13Xr-10" target="_M7xqo7ggwUvtnFr13Xr-12" edge="1">
          <mxGeometry relative="1" as="geometry" />
        </mxCell>
        <mxCell id="_M7xqo7ggwUvtnFr13Xr-10" value="智能推荐" style="rounded=0;whiteSpace=wrap;html=1;strokeWidth=1;" parent="OW7mkBmdmPTutjs3nILY-1" vertex="1">
          <mxGeometry x="1158" y="227" width="120" height="30" as="geometry" />
        </mxCell>
        <mxCell id="_M7xqo7ggwUvtnFr13Xr-11" value="" style="edgeStyle=orthogonalEdgeStyle;rounded=0;orthogonalLoop=1;jettySize=auto;html=1;fontColor=#000000;strokeColor=#000000;" parent="OW7mkBmdmPTutjs3nILY-1" source="_M7xqo7ggwUvtnFr13Xr-12" target="_M7xqo7ggwUvtnFr13Xr-14" edge="1">
          <mxGeometry relative="1" as="geometry" />
        </mxCell>
        <mxCell id="_M7xqo7ggwUvtnFr13Xr-12" value="智能匹配抢线索" style="rounded=0;whiteSpace=wrap;html=1;strokeWidth=1;" parent="OW7mkBmdmPTutjs3nILY-1" vertex="1">
          <mxGeometry x="1158" y="297" width="120" height="30" as="geometry" />
        </mxCell>
        <mxCell id="_M7xqo7ggwUvtnFr13Xr-13" value="" style="edgeStyle=orthogonalEdgeStyle;rounded=0;orthogonalLoop=1;jettySize=auto;html=1;" parent="OW7mkBmdmPTutjs3nILY-1" source="_M7xqo7ggwUvtnFr13Xr-14" target="_M7xqo7ggwUvtnFr13Xr-30" edge="1">
          <mxGeometry relative="1" as="geometry" />
        </mxCell>
        <mxCell id="_M7xqo7ggwUvtnFr13Xr-14" value="合同签字" style="rounded=0;whiteSpace=wrap;html=1;strokeWidth=1;" parent="OW7mkBmdmPTutjs3nILY-1" vertex="1">
          <mxGeometry x="1158" y="368" width="120" height="30" as="geometry" />
        </mxCell>
        <mxCell id="_M7xqo7ggwUvtnFr13Xr-15" value="" style="edgeStyle=orthogonalEdgeStyle;rounded=0;orthogonalLoop=1;jettySize=auto;html=1;" parent="OW7mkBmdmPTutjs3nILY-1" source="_M7xqo7ggwUvtnFr13Xr-16" edge="1">
          <mxGeometry relative="1" as="geometry">
            <mxPoint x="1218" y="680.5" as="targetPoint" />
          </mxGeometry>
        </mxCell>
        <mxCell id="_M7xqo7ggwUvtnFr13Xr-16" value="上户服务" style="rounded=0;whiteSpace=wrap;html=1;strokeWidth=1;" parent="OW7mkBmdmPTutjs3nILY-1" vertex="1">
          <mxGeometry x="1158" y="609" width="120" height="30" as="geometry" />
        </mxCell>
        <mxCell id="_M7xqo7ggwUvtnFr13Xr-17" value="签到" style="rounded=0;whiteSpace=wrap;html=1;strokeWidth=1;" parent="OW7mkBmdmPTutjs3nILY-1" vertex="1">
          <mxGeometry x="1318" y="587" width="120" height="30" as="geometry" />
        </mxCell>
        <mxCell id="_M7xqo7ggwUvtnFr13Xr-18" value="上户时间" style="rounded=0;whiteSpace=wrap;html=1;strokeWidth=1;" parent="OW7mkBmdmPTutjs3nILY-1" vertex="1">
          <mxGeometry x="1319" y="637" width="120" height="30" as="geometry" />
        </mxCell>
        <mxCell id="_M7xqo7ggwUvtnFr13Xr-19" value="" style="shape=curlyBracket;whiteSpace=wrap;html=1;rounded=1;fontColor=#000000;" parent="OW7mkBmdmPTutjs3nILY-1" vertex="1">
          <mxGeometry x="1287" y="589" width="20" height="86" as="geometry" />
        </mxCell>
        <mxCell id="_M7xqo7ggwUvtnFr13Xr-20" value="" style="edgeStyle=orthogonalEdgeStyle;rounded=0;orthogonalLoop=1;jettySize=auto;html=1;fontColor=#000000;strokeColor=#000000;" parent="OW7mkBmdmPTutjs3nILY-1" source="_M7xqo7ggwUvtnFr13Xr-21" target="_M7xqo7ggwUvtnFr13Xr-4" edge="1">
          <mxGeometry relative="1" as="geometry" />
        </mxCell>
        <mxCell id="_M7xqo7ggwUvtnFr13Xr-21" value="&lt;span style=&quot;color: rgb(50 , 50 , 50) ; font-size: 13px ; background-color: rgba(255 , 255 , 255 , 0.01)&quot;&gt;阿姨培训&lt;br&gt;&lt;/span&gt;" style="rounded=0;whiteSpace=wrap;html=1;strokeWidth=1;" parent="OW7mkBmdmPTutjs3nILY-1" vertex="1">
          <mxGeometry x="1031" y="152" width="80" height="30" as="geometry" />
        </mxCell>
        <mxCell id="_M7xqo7ggwUvtnFr13Xr-22" value="阿姨结算" style="rounded=0;whiteSpace=wrap;html=1;strokeWidth=1;" parent="OW7mkBmdmPTutjs3nILY-1" vertex="1">
          <mxGeometry x="1158" y="680.5" width="120" height="30" as="geometry" />
        </mxCell>
        <mxCell id="_M7xqo7ggwUvtnFr13Xr-23" value="" style="edgeStyle=orthogonalEdgeStyle;rounded=0;orthogonalLoop=1;jettySize=auto;html=1;" parent="OW7mkBmdmPTutjs3nILY-1" source="_M7xqo7ggwUvtnFr13Xr-24" target="_M7xqo7ggwUvtnFr13Xr-25" edge="1">
          <mxGeometry relative="1" as="geometry" />
        </mxCell>
        <mxCell id="_M7xqo7ggwUvtnFr13Xr-24" value="阿姨评价" style="rounded=0;whiteSpace=wrap;html=1;strokeWidth=1;" parent="OW7mkBmdmPTutjs3nILY-1" vertex="1">
          <mxGeometry x="1158" y="680.5" width="120" height="30" as="geometry" />
        </mxCell>
        <mxCell id="_M7xqo7ggwUvtnFr13Xr-25" value="阿姨结算" style="rounded=0;whiteSpace=wrap;html=1;strokeWidth=1;" parent="OW7mkBmdmPTutjs3nILY-1" vertex="1">
          <mxGeometry x="1158" y="744.5" width="120" height="30" as="geometry" />
        </mxCell>
        <mxCell id="_M7xqo7ggwUvtnFr13Xr-26" value="" style="edgeStyle=orthogonalEdgeStyle;rounded=0;orthogonalLoop=1;jettySize=auto;html=1;" parent="OW7mkBmdmPTutjs3nILY-1" source="_M7xqo7ggwUvtnFr13Xr-27" target="_M7xqo7ggwUvtnFr13Xr-16" edge="1">
          <mxGeometry relative="1" as="geometry" />
        </mxCell>
        <mxCell id="_M7xqo7ggwUvtnFr13Xr-27" value="阿姨保证金" style="rounded=0;whiteSpace=wrap;html=1;strokeWidth=1;" parent="OW7mkBmdmPTutjs3nILY-1" vertex="1">
          <mxGeometry x="1158" y="537.5" width="120" height="30" as="geometry" />
        </mxCell>
        <mxCell id="_M7xqo7ggwUvtnFr13Xr-28" value="" style="edgeStyle=orthogonalEdgeStyle;rounded=0;orthogonalLoop=1;jettySize=auto;html=1;" parent="OW7mkBmdmPTutjs3nILY-1" source="_M7xqo7ggwUvtnFr13Xr-30" target="_M7xqo7ggwUvtnFr13Xr-31" edge="1">
          <mxGeometry relative="1" as="geometry" />
        </mxCell>
        <mxCell id="_M7xqo7ggwUvtnFr13Xr-29" value="" style="edgeStyle=orthogonalEdgeStyle;rounded=0;orthogonalLoop=1;jettySize=auto;html=1;" parent="OW7mkBmdmPTutjs3nILY-1" source="_M7xqo7ggwUvtnFr13Xr-30" target="_M7xqo7ggwUvtnFr13Xr-27" edge="1">
          <mxGeometry relative="1" as="geometry" />
        </mxCell>
        <mxCell id="_M7xqo7ggwUvtnFr13Xr-30" value="是否有保证金&amp;amp;&amp;amp;订单类型和保证金是否一致" style="rhombus;whiteSpace=wrap;html=1;strokeWidth=1;" parent="OW7mkBmdmPTutjs3nILY-1" vertex="1">
          <mxGeometry x="1146" y="449.5" width="144" height="45" as="geometry" />
        </mxCell>
        <mxCell id="_M7xqo7ggwUvtnFr13Xr-31" value="已缴纳" style="rounded=0;whiteSpace=wrap;html=1;strokeWidth=1;" parent="OW7mkBmdmPTutjs3nILY-1" vertex="1">
          <mxGeometry x="1034" y="456.88" width="66" height="30.25" as="geometry" />
        </mxCell>
        <mxCell id="_M7xqo7ggwUvtnFr13Xr-32" value="Y" style="text;html=1;align=center;verticalAlign=middle;resizable=0;points=[];autosize=1;strokeColor=none;fillColor=none;" parent="OW7mkBmdmPTutjs3nILY-1" vertex="1">
          <mxGeometry x="1101" y="446.5" width="18" height="18" as="geometry" />
        </mxCell>
        <mxCell id="_M7xqo7ggwUvtnFr13Xr-33" value="N" style="text;html=1;align=center;verticalAlign=middle;resizable=0;points=[];autosize=1;strokeColor=none;fillColor=none;" parent="OW7mkBmdmPTutjs3nILY-1" vertex="1">
          <mxGeometry x="1229" y="505.5" width="19" height="18" as="geometry" />
        </mxCell>
        <mxCell id="_M7xqo7ggwUvtnFr13Xr-34" value="保证金只分月嫂和非月嫂" style="ellipse;shape=cloud;whiteSpace=wrap;html=1;" parent="OW7mkBmdmPTutjs3nILY-1" vertex="1">
          <mxGeometry x="1305" y="399.5" width="183" height="110" as="geometry" />
        </mxCell>
      </root>
    </mxGraphModel>
  </diagram>
</mxfile>
